  0
SECTION
  2
HEADER
  9
$ACADVER
  1
AC1009
  9
$INSBASE
 10
0.0
 20
0.0
 30
0.0
  9
$EXTMIN
 10
-10.0
 20
-31.060135023039152
 30
-0.0000000000000063
  9
$EXTMAX
 10
373.75177813830533
 20
224.125
 30
0.0000000000000025
  9
$LIMMIN
 10
0.0
 20
0.0
  9
$LIMMAX
 10
420.0
 20
297.0
  9
$ORTHOMODE
 70
     0
  9
$REGENMODE
 70
     1
  9
$FILLMODE
 70
     1
  9
$QTEXTMODE
 70
     0
  9
$MIRRTEXT
 70
     0
  9
$DRAGMODE
 70
     2
  9
$LTSCALE
 40
1.0
  9
$OSMODE
 70
    37
  9
$ATTMODE
 70
     1
  9
$TEXTSIZE
 40
2.5
  9
$TRACEWID
 40
1.0
  9
$TEXTSTYLE
  7
STANDARD
  9
$CLAYER
  8
RAW
  9
$CELTYPE
  6
BYLAYER
  9
$CECOLOR
 62
   256
  9
$DIMSCALE
 40
1.0
  9
$DIMASZ
 40
2.5
  9
$DIMEXO
 40
0.625
  9
$DIMDLI
 40
3.75
  9
$DIMRND
 40
0.0
  9
$DIMDLE
 40
0.0
  9
$DIMEXE
 40
1.25
  9
$DIMTP
 40
0.0
  9
$DIMTM
 40
0.0
  9
$DIMTXT
 40
2.5
  9
$DIMCEN
 40
2.5
  9
$DIMTSZ
 40
0.0
  9
$DIMTOL
 70
     0
  9
$DIMLIM
 70
     0
  9
$DIMTIH
 70
     0
  9
$DIMTOH
 70
     0
  9
$DIMSE1
 70
     0
  9
$DIMSE2
 70
     0
  9
$DIMTAD
 70
     1
  9
$DIMZIN
 70
     8
  9
$DIMBLK
  1

  9
$DIMASO
 70
     1
  9
$DIMSHO
 70
     1
  9
$DIMPOST
  1

  9
$DIMAPOST
  1

  9
$DIMALT
 70
     0
  9
$DIMALTD
 70
     3
  9
$DIMALTF
 40
0.03937007874016
  9
$DIMLFAC
 40
1.0
  9
$DIMTOFL
 70
     1
  9
$DIMTVP
 40
0.0
  9
$DIMTIX
 70
     0
  9
$DIMSOXD
 70
     0
  9
$DIMSAH
 70
     0
  9
$DIMBLK1
  1

  9
$DIMBLK2
  1

  9
$DIMSTYLE
  2
ISO-25
  9
$DIMCLRD
 70
     0
  9
$DIMCLRE
 70
     0
  9
$DIMCLRT
 70
     0
  9
$DIMTFAC
 40
1.0
  9
$DIMGAP
 40
0.625
  9
$LUNITS
 70
     2
  9
$LUPREC
 70
     4
  9
$SKETCHINC
 40
1.0
  9
$FILLETRAD
 40
1.6000000000000001
  9
$AUNITS
 70
     0
  9
$AUPREC
 70
     0
  9
$MENU
  1
.
  9
$ELEVATION
 40
0.0
  9
$PELEVATION
 40
0.0
  9
$THICKNESS
 40
0.0
  9
$LIMCHECK
 70
     0
  9
$BLIPMODE
 70
     0
  9
$CHAMFERA
 40
0.0
  9
$CHAMFERB
 40
0.0
  9
$SKPOLY
 70
     0
  9
$TDCREATE
 40
2457390.8703590631
  9
$TDUPDATE
 40
2457409.9212579508
  9
$TDINDWG
 40
0.2443630093
  9
$TDUSRTIMER
 40
0.2443603472
  9
$USRTIMER
 70
     1
  9
$ANGBASE
 50
0.0
  9
$ANGDIR
 70
     0
  9
$PDMODE
 70
     0
  9
$PDSIZE
 40
0.0
  9
$PLINEWID
 40
0.0
  9
$COORDS
 70
     1
  9
$SPLFRAME
 70
     0
  9
$SPLINETYPE
 70
     6
  9
$SPLINESEGS
 70
     8
  9
$ATTDIA
 70
     0
  9
$ATTREQ
 70
     1
  9
$HANDLING
 70
     1
  9
$HANDSEED
  5
8F1
  9
$SURFTAB1
 70
     6
  9
$SURFTAB2
 70
     6
  9
$SURFTYPE
 70
     6
  9
$SURFU
 70
     6
  9
$SURFV
 70
     6
  9
$UCSNAME
  2

  9
$UCSORG
 10
0.0
 20
0.0
 30
0.0
  9
$UCSXDIR
 10
1.0
 20
0.0
 30
0.0
  9
$UCSYDIR
 10
0.0
 20
1.0
 30
0.0
  9
$PUCSNAME
  2

  9
$PUCSORG
 10
0.0
 20
0.0
 30
0.0
  9
$PUCSXDIR
 10
1.0
 20
0.0
 30
0.0
  9
$PUCSYDIR
 10
0.0
 20
1.0
 30
0.0
  9
$USERI1
 70
     0
  9
$USERI2
 70
     0
  9
$USERI3
 70
     0
  9
$USERI4
 70
     0
  9
$USERI5
 70
     0
  9
$USERR1
 40
0.0
  9
$USERR2
 40
0.0
  9
$USERR3
 40
0.0
  9
$USERR4
 40
0.0
  9
$USERR5
 40
0.0
  9
$WORLDVIEW
 70
     1
  9
$SHADEDGE
 70
     3
  9
$SHADEDIF
 70
    70
  9
$TILEMODE
 70
     1
  9
$MAXACTVP
 70
    64
  9
$PLIMCHECK
 70
     0
  9
$PEXTMIN
 10
0.0
 20
0.0
 30
0.0
  9
$PEXTMAX
 10
0.0
 20
0.0
 30
0.0
  9
$PLIMMIN
 10
0.0
 20
0.0
  9
$PLIMMAX
 10
12.0
 20
9.0
  9
$UNITMODE
 70
     0
  9
$VISRETAIN
 70
     1
  9
$PLINEGEN
 70
     0
  9
$PSLTSCALE
 70
     1
  0
ENDSEC
  0
SECTION
  2
TABLES
  0
TABLE
  2
VPORT
 70
     1
  0
VPORT
  2
*ACTIVE
 70
     0
 10
0.0
 20
0.0
 11
1.0
 21
1.0
 12
163.63843338444451
 22
85.343061269174655
 13
0.0
 23
0.0
 14
10.0
 24
10.0
 15
10.0
 25
10.0
 16
0.0
 26
0.0
 36
1.0
 17
0.0
 27
0.0
 37
0.0
 40
207.28394393117759
 41
2.2573891625615761
 42
50.0
 43
0.0
 44
0.0
 50
0.0
 51
0.0
 71
     0
 72
  1000
 73
     1
 74
     3
 75
     0
 76
     0
 77
     0
 78
     0
  0
ENDTAB
  0
TABLE
  2
LTYPE
 70
     4
  0
LTYPE
  2
CONTINUOUS
 70
     0
  3
Solid line
 72
    65
 73
     0
 40
0.0
  0
LTYPE
  2
ACAD_ISO04W100
 70
     0
  3
ISO long-dash dot ____ . ____ . ____ . ____ . _
 72
    65
 73
     4
 40
30.0
 49
24.0
 49
-3.0
 49
0.0
 49
-3.0
  0
LTYPE
  2
ACAD_ISO02W100
 70
     0
  3
ISO dash __ __ __ __ __ __ __ __ __ __ __ __ __
 72
    65
 73
     2
 40
15.0
 49
12.0
 49
-3.0
  0
ENDTAB
  0
TABLE
  2
LAYER
 70
     4
  0
LAYER
  2
0
 70
     0
 62
     7
  6
CONTINUOUS
  0
LAYER
  2
DIM
 70
     0
 62
     5
  6
CONTINUOUS
  0
LAYER
  2
DEFPOINTS
 70
     0
 62
     7
  6
CONTINUOUS
  0
LAYER
  2
RAW
 70
     0
 62
    10
  6
CONTINUOUS
  0
ENDTAB
  0
TABLE
  2
STYLE
 70
     3
  0
STYLE
  2
STANDARD
 70
     0
 40
0.0
 41
1.0
 50
0.0
 71
     0
 42
2.5
  3
txt
  4

  0
STYLE
  2
ANNOTATIVE
 70
     0
 40
0.0
 41
1.0
 50
0.0
 71
     0
 42
2.5
  3
txt
  4

  0
STYLE
  2

 70
     1
 40
0.0
 41
1.0
 50
0.0
 71
     0
 42
2.5
  3
ltypeshp.shx
  4

  0
ENDTAB
  0
TABLE
  2
VIEW
 70
     0
  0
ENDTAB
  0
TABLE
  2
UCS
 70
     0
  0
ENDTAB
  0
TABLE
  2
APPID
 70
    10
  0
APPID
  2
ACAD
 70
     0
  0
APPID
  2
ACAD_PSEXT
 70
     0
  0
APPID
  2
ACADANNOPO
 70
     0
  0
APPID
  2
ACADANNOTATIVE
 70
     0
  0
APPID
  2
ACAD_DSTYLE_DIMJAG
 70
     0
  0
APPID
  2
ACAD_DSTYLE_DIMTALN
 70
     0
  0
APPID
  2
ACAD_MLEADERVER
 70
     0
  0
APPID
  2
ACAD_EXEMPT_FROM_CAD_STANDARDS
 70
     0
  0
APPID
  2
ACAECLAYERSTANDARD
 70
     0
  0
APPID
  2
ACAD_DSTYLE_DIMRADIAL_EXTENSION
 70
     0
  0
ENDTAB
  0
TABLE
  2
DIMSTYLE
 70
     4
  0
DIMSTYLE
  2
STANDARD
 70
     0
  3

  4

  5

  6

  7

 40
1.0
 41
0.18
 42
0.0625
 43
0.38
 44
0.18
 45
0.0
 46
0.0
 47
0.0
 48
0.0
140
0.18
141
0.09
142
0.0
143
25.399999999999999
144
1.0
145
0.0
146
1.0
147
0.09
 71
     0
 72
     0
 73
     1
 74
     1
 75
     0
 76
     0
 77
     0
 78
     0
170
     0
171
     2
172
     0
173
     0
174
     0
175
     0
176
     0
177
     0
178
     0
  0
DIMSTYLE
  2
ANNOTATIVE
 70
     0
  3

  4

  5

  6

  7

 40
0.0
 41
2.5
 42
0.625
 43
3.75
 44
1.25
 45
0.0
 46
0.0
 47
0.0
 48
0.0
140
2.5
141
2.5
142
0.0
143
0.03937007874016
144
1.0
145
0.0
146
1.0
147
0.625
 71
     0
 72
     0
 73
     0
 74
     0
 75
     0
 76
     0
 77
     1
 78
     8
170
     0
171
     3
172
     1
173
     0
174
     0
175
     0
176
     0
177
     0
178
     0
  0
DIMSTYLE
  2
ISO-25
 70
     0
  3

  4

  5

  6

  7

 40
1.0
 41
2.5
 42
0.625
 43
3.75
 44
1.25
 45
0.0
 46
0.0
 47
0.0
 48
0.0
140
2.5
141
2.5
142
0.0
143
0.03937007874016
144
1.0
145
0.0
146
1.0
147
0.625
 71
     0
 72
     0
 73
     0
 74
     0
 75
     0
 76
     0
 77
     1
 78
     8
170
     0
171
     3
172
     1
173
     0
174
     0
175
     0
176
     0
177
     0
178
     0
  0
ENDTAB
  0
ENDSEC
  0
SECTION
  2
BLOCKS
  0
BLOCK
  8
0
  2
$MODEL_SPACE
 70
     0
 10
0.0
 20
0.0
 30
0.0
  3
$MODEL_SPACE
  1

  0
ENDBLK
  5
21
  8
0
  0
BLOCK
 67
     1
  8
0
  2
$PAPER_SPACE
 70
     0
 10
0.0
 20
0.0
 30
0.0
  3
$PAPER_SPACE
  1

  0
ENDBLK
  5
D5
 67
     1
  8
0
  0
BLOCK
  8
0
  2
*D1
 70
     1
 10
0.0
 20
0.0
 30
0.0
  3
*D1
  1

  0
LINE
  5
27E
  8
DIM
 62
     0
 10
34.0
 20
149.625
 30
0.0
 11
34.0
 21
168.63674569383241
 31
0.0
  0
LINE
  5
27F
  8
DIM
 62
     0
 10
111.0
 20
149.625
 30
0.0
 11
111.0
 21
168.63674569383241
 31
0.0
  0
LINE
  5
280
  8
DIM
 62
     0
 10
36.5
 20
167.38674569383241
 30
0.0
 11
108.5
 21
167.38674569383241
 31
0.0
  0
SOLID
  5
281
  8
DIM
 62
     0
 10
36.5
 20
167.80341236049901
 30
0.0
 11
36.5
 21
166.9700790271657
 31
0.0
 12
34.0
 22
167.38674569383241
 32
0.0
 13
34.0
 23
167.38674569383241
 33
0.0
  0
SOLID
  5
282
  8
DIM
 62
     0
 10
108.5
 20
167.80341236049901
 30
0.0
 11
108.5
 21
166.9700790271657
 31
0.0
 12
111.0
 22
167.38674569383241
 32
0.0
 13
111.0
 23
167.38674569383241
 33
0.0
  0
INSERT
  5
283
  8
RAW
  2
*U23
 10
0.0
 20
0.0
 30
0.0
  0
POINT
  5
284
  8
DEFPOINTS
 62
     0
 10
34.0
 20
149.0
 30
0.0
  0
POINT
  5
285
  8
DEFPOINTS
 62
     0
 10
111.0
 20
149.0
 30
0.0
  0
POINT
  5
286
  8
DEFPOINTS
 62
     0
 10
111.0
 20
167.38674569383241
 30
0.0
  0
ENDBLK
  5
273
  8
0
  0
BLOCK
  8
0
  2
*D2
 70
     1
 10
0.0
 20
0.0
 30
0.0
  3
*D2
  1

  0
LINE
  5
873
  8
DIM
 62
     0
 10
111.0
 20
149.625
 30
0.0
 11
111.0
 21
168.63674569383241
 31
0.0
  0
LINE
  5
874
  8
DIM
 62
     0
 10
145.0
 20
149.625
 30
0.0
 11
145.0
 21
168.63674569383241
 31
0.0
  0
LINE
  5
875
  8
DIM
 62
     0
 10
113.5
 20
167.38674569383241
 30
0.0
 11
142.5
 21
167.38674569383241
 31
0.0
  0
SOLID
  5
876
  8
DIM
 62
     0
 10
113.5
 20
167.80341236049901
 30
0.0
 11
113.5
 21
166.9700790271657
 31
0.0
 12
111.0
 22
167.38674569383241
 32
0.0
 13
111.0
 23
167.38674569383241
 33
0.0
  0
SOLID
  5
877
  8
DIM
 62
     0
 10
142.5
 20
167.80341236049901
 30
0.0
 11
142.5
 21
166.9700790271657
 31
0.0
 12
145.0
 22
167.38674569383241
 32
0.0
 13
145.0
 23
167.38674569383241
 33
0.0
  0
TEXT
  8
DIM
  40
2.5
  5
8ED
  62
0
  72
0
  71
0
 10
128.000
 20
166.039
 30
0.000000
  1
34
  0
POINT
  5
879
  8
DEFPOINTS
 62
     0
 10
111.0
 20
149.0
 30
0.0
  0
POINT
  5
87A
  8
DEFPOINTS
 62
     0
 10
145.0
 20
149.0
 30
0.0
  0
POINT
  5
87B
  8
DEFPOINTS
 62
     0
 10
145.0
 20
167.38674569383241
 30
0.0
  0
ENDBLK
  5
28B
  8
0
  0
BLOCK
  8
0
  2
*D3
 70
     1
 10
0.0
 20
0.0
 30
0.0
  3
*D3
  1

  0
LINE
  5
87C
  8
DIM
 62
     0
 10
145.0
 20
149.625
 30
0.0
 11
145.0
 21
168.63674569383241
 31
0.0
  0
LINE
  5
87D
  8
DIM
 62
     0
 10
222.0
 20
149.625
 30
0.0
 11
222.0
 21
168.63674569383241
 31
0.0
  0
LINE
  5
87E
  8
DIM
 62
     0
 10
147.5
 20
167.38674569383241
 30
0.0
 11
219.5
 21
167.38674569383241
 31
0.0
  0
SOLID
  5
87F
  8
DIM
 62
     0
 10
147.5
 20
167.80341236049901
 30
0.0
 11
147.5
 21
166.9700790271657
 31
0.0
 12
145.0
 22
167.38674569383241
 32
0.0
 13
145.0
 23
167.38674569383241
 33
0.0
  0
SOLID
  5
880
  8
DIM
 62
     0
 10
219.5
 20
167.80341236049901
 30
0.0
 11
219.5
 21
166.9700790271657
 31
0.0
 12
222.0
 22
167.38674569383241
 32
0.0
 13
222.0
 23
167.38674569383241
 33
0.0
  0
TEXT
  8
DIM
  40
2.5
  5
8EE
  62
0
  72
0
  71
0
 10
183.500
 20
166.012
 30
0.000000
  1
77
  0
POINT
  5
882
  8
DEFPOINTS
 62
     0
 10
145.0
 20
149.0
 30
0.0
  0
POINT
  5
883
  8
DEFPOINTS
 62
     0
 10
222.0
 20
149.0
 30
0.0
  0
POINT
  5
884
  8
DEFPOINTS
 62
     0
 10
222.0
 20
167.38674569383241
 30
0.0
  0
ENDBLK
  5
2A3
  8
0
  0
BLOCK
  8
0
  2
*D4
 70
     1
 10
0.0
 20
0.0
 30
0.0
  3
*D4
  1

  0
LINE
  5
2DE
  8
DIM
 62
     0
 10
232.71030155598339
 20
-0.0000000000000002
 30
0.0
 11
270.71372272379989
 21
-0.0000000000000109
 31
0.0
  0
LINE
  5
2DF
  8
DIM
 62
     0
 10
232.7103015559837
 20
148.9999999999996
 30
0.0
 11
270.71372272379989
 21
148.9999999999996
 31
0.0
  0
LINE
  5
2E0
  8
DIM
 62
     0
 10
269.46372272379989
 20
2.4999999999999889
 30
0.0
 11
269.4637227238
 21
146.4999999999996
 31
0.0
  0
SOLID
  5
2E1
  8
DIM
 62
     0
 10
269.0470560571332
 20
2.4999999999999889
 30
0.0
 11
269.88038939046658
 21
2.4999999999999889
 31
0.0
 12
269.46372272379989
 22
-0.0000000000000106
 32
0.0
 13
269.46372272379989
 23
-0.0000000000000106
 33
0.0
  0
SOLID
  5
2E2
  8
DIM
 62
     0
 10
269.04705605713332
 20
146.4999999999996
 30
0.0
 11
269.88038939046669
 21
146.4999999999996
 31
0.0
 12
269.4637227238
 22
148.9999999999996
 32
0.0
 13
269.4637227238
 23
148.9999999999996
 33
0.0
  0
INSERT
  5
2E3
  8
RAW
  2
*U24
 10
0.0
 20
0.0
 30
0.0
  0
POINT
  5
2E4
  8
DEFPOINTS
 62
     0
 10
232.08530155598339
 20
0.0
 30
0.0
  0
POINT
  5
2E5
  8
DEFPOINTS
 62
     0
 10
232.0853015559837
 20
148.9999999999996
 30
0.0
  0
POINT
  5
2E6
  8
DEFPOINTS
 62
     0
 10
269.4637227238
 20
148.9999999999996
 30
0.0
  0
ENDBLK
  5
2D3
  8
0
  0
BLOCK
  8
0
  2
*D5
 70
     1
 10
0.0
 20
0.0
 30
0.0
  3
*D5
  1

  0
LINE
  5
2F6
  8
DIM
 62
     0
 10
221.375
 20
124.5
 30
0.0
 11
211.77702328905431
 21
124.5
 31
0.0
  0
LINE
  5
2F7
  8
DIM
 62
     0
 10
221.375
 20
149.0
 30
0.0
 11
211.77702328905431
 21
149.0
 31
0.0
  0
LINE
  5
2F8
  8
DIM
 62
     0
 10
213.0270232890544
 20
127.0
 30
0.0
 11
213.0270232890544
 21
146.5
 31
0.0
  0
SOLID
  5
2F9
  8
DIM
 62
     0
 10
212.61035662238771
 20
127.0
 30
0.0
 11
213.443689955721
 21
127.0
 31
0.0
 12
213.0270232890544
 22
124.5
 32
0.0
 13
213.0270232890544
 23
124.5
 33
0.0
  0
SOLID
  5
2FA
  8
DIM
 62
     0
 10
212.61035662238771
 20
146.5
 30
0.0
 11
213.443689955721
 21
146.5
 31
0.0
 12
213.0270232890544
 22
149.0
 32
0.0
 13
213.0270232890544
 23
149.0
 33
0.0
  0
INSERT
  5
2FB
  8
RAW
  2
*U25
 10
0.0
 20
0.0
 30
0.0
  0
POINT
  5
2FC
  8
DEFPOINTS
 62
     0
 10
222.0
 20
124.5
 30
0.0
  0
POINT
  5
2FD
  8
DEFPOINTS
 62
     0
 10
222.0
 20
149.0
 30
0.0
  0
POINT
  5
2FE
  8
DEFPOINTS
 62
     0
 10
213.0270232890544
 20
149.0
 30
0.0
  0
ENDBLK
  5
2EB
  8
0
  0
BLOCK
  8
0
  2
*D6
 70
     1
 10
0.0
 20
0.0
 30
0.0
  3
*D6
  1

  0
LINE
  5
30D
  8
DIM
 62
     0
 10
128.0
 20
74.5
 30
0.0
 11
99.858864836919878
 21
77.477055080028464
 31
0.0
  0
LINE
  5
30E
  8
DIM
 62
     0
 10
99.858864836919878
 20
77.477055080028464
 30
0.0
 11
3.1964300281167768
 21
87.702989141601478
 31
0.0
  0
SOLID
  5
30F
  8
DIM
 62
     0
 10
3.2402646534209012
 20
88.117343623579856
 30
0.0
 11
3.152595402812655
 21
87.288634659623114
 31
0.0
 12
0.7103031362465943
 22
87.965996893426222
 32
0.0
 13
0.7103031362465943
 23
87.965996893426222
 33
0.0
  0
INSERT
  5
310
  8
RAW
  2
*U27
 10
0.0
 20
0.0
 30
0.0
  0
POINT
  5
311
  8
DEFPOINTS
 62
     0
 10
0.7103031362465943
 20
87.965996893426222
 30
0.0
  0
POINT
  5
312
  8
DEFPOINTS
 62
     0
 10
128.0
 20
74.5
 30
0.0
  0
POINT
  5
313
  8
DEFPOINTS
 62
     0
 10
99.858864836919878
 20
77.477055080028464
 30
0.0
  0
ENDBLK
  5
304
  8
0
  0
BLOCK
  8
0
  2
*D7
 70
     1
 10
0.0
 20
0.0
 30
0.0
  3
*D7
  1

  0
LINE
  5
321
  8
DIM
 62
     0
 10
36.000000000000007
 20
126.4999999999999
 30
0.0
 11
35.12628823745203
 21
126.0135560094056
 31
0.0
  0
LINE
  5
322
  8
DIM
 62
     0
 10
35.12628823745203
 20
126.0135560094056
 30
0.0
 11
36.436855881273978
 21
126.74322199529711
 31
0.0
  0
SOLID
  5
323
  8
DIM
 62
     0
 10
36.234170885193009
 20
127.1072685630254
 30
0.0
 11
36.639540877354953
 21
126.3791754275688
 31
0.0
 12
34.252576474904068
 22
125.52711201881129
 32
0.0
 13
34.252576474904068
 23
125.52711201881129
 33
0.0
  0
INSERT
  5
324
  8
RAW
  2
*U29
 10
0.0
 20
0.0
 30
0.0
  0
POINT
  5
325
  8
DEFPOINTS
 62
     0
 10
34.252576474904068
 20
125.52711201881129
 30
0.0
  0
POINT
  5
326
  8
DEFPOINTS
 62
     0
 10
36.000000000000007
 20
126.4999999999999
 30
0.0
  0
POINT
  5
327
  8
DEFPOINTS
 62
     0
 10
35.12628823745203
 20
126.0135560094056
 30
0.0
  0
ENDBLK
  5
318
  8
0
  0
BLOCK
  8
0
  2
*D8
 70
     1
 10
0.0
 20
0.0
 30
0.0
  3
*D8
  1

  0
LINE
  5
3BE
  8
DIM
 62
     0
 10
0.0
 20
75.125
 30
0.0
 11
0.0000000000000063
 21
178.10513294868539
 31
0.0
  0
LINE
  5
3BF
  8
DIM
 62
     0
 10
256.0
 20
75.125
 30
0.0
 11
256.0
 21
178.10513294868539
 31
0.0
  0
LINE
  5
3C0
  8
DIM
 62
     0
 10
2.5000000000000062
 20
176.85513294868539
 30
0.0
 11
253.5
 21
176.85513294868539
 31
0.0
  0
SOLID
  5
3C1
  8
DIM
 62
     0
 10
2.5000000000000062
 20
177.27179961535211
 30
0.0
 11
2.5000000000000062
 21
176.43846628201871
 31
0.0
 12
0.0000000000000063
 22
176.85513294868539
 32
0.0
 13
0.0000000000000063
 23
176.85513294868539
 33
0.0
  0
SOLID
  5
3C2
  8
DIM
 62
     0
 10
253.5
 20
177.27179961535211
 30
0.0
 11
253.5
 21
176.43846628201871
 31
0.0
 12
256.0
 22
176.85513294868539
 32
0.0
 13
256.0
 23
176.85513294868539
 33
0.0
  0
INSERT
  5
3C3
  8
RAW
  2
*U32
 10
0.0
 20
0.0
 30
0.0
  0
POINT
  5
3C4
  8
DEFPOINTS
 62
     0
 10
0.0
 20
74.5
 30
0.0
  0
POINT
  5
3C5
  8
DEFPOINTS
 62
     0
 10
256.0
 20
74.5
 30
0.0
  0
POINT
  5
3C6
  8
DEFPOINTS
 62
     0
 10
256.0
 20
176.85513294868539
 30
0.0
  0
ENDBLK
  5
343
  8
0
  0
BLOCK
  8
0
  2
*D9
 70
     1
 10
0.0
 20
0.0
 30
0.0
  3
*D9
  1

  0
LINE
  5
384
  8
DIM
 62
     0
 10
222.0
 20
149.625
 30
0.0
 11
222.0
 21
168.63674569383241
 31
0.0
  0
LINE
  5
385
  8
DIM
 62
     0
 10
256.0
 20
149.6249999999996
 30
0.0
 11
256.0
 21
168.63674569383241
 31
0.0
  0
LINE
  5
386
  8
DIM
 62
     0
 10
224.5
 20
167.38674569383241
 30
0.0
 11
253.5
 21
167.38674569383241
 31
0.0
  0
SOLID
  5
387
  8
DIM
 62
     0
 10
224.5
 20
167.80341236049901
 30
0.0
 11
224.5
 21
166.9700790271657
 31
0.0
 12
222.0
 22
167.38674569383241
 32
0.0
 13
222.0
 23
167.38674569383241
 33
0.0
  0
SOLID
  5
388
  8
DIM
 62
     0
 10
253.5
 20
167.80341236049901
 30
0.0
 11
253.5
 21
166.9700790271657
 31
0.0
 12
256.0
 22
167.38674569383241
 32
0.0
 13
256.0
 23
167.38674569383241
 33
0.0
  0
INSERT
  5
389
  8
RAW
  2
*U30
 10
0.0
 20
0.0
 30
0.0
  0
POINT
  5
38A
  8
DEFPOINTS
 62
     0
 10
222.0
 20
149.0
 30
0.0
  0
POINT
  5
38B
  8
DEFPOINTS
 62
     0
 10
256.0
 20
148.9999999999996
 30
0.0
  0
POINT
  5
38C
  8
DEFPOINTS
 62
     0
 10
256.0
 20
167.38674569383241
 30
0.0
  0
ENDBLK
  5
379
  8
0
  0
BLOCK
  8
0
  2
*D10
 70
     1
 10
0.0
 20
0.0
 30
0.0
  3
*D10
  1

  0
LINE
  5
3B4
  8
DIM
 62
     0
 10
34.0
 20
149.625
 30
0.0
 11
34.0
 21
168.63674569383241
 31
0.0
  0
LINE
  5
3B5
  8
DIM
 62
     0
 10
0.0000000000000071
 20
149.625
 30
0.0
 11
0.0000000000000083
 21
168.63674569383241
 31
0.0
  0
LINE
  5
3B6
  8
DIM
 62
     0
 10
31.5
 20
167.38674569383241
 30
0.0
 11
2.500000000000008
 21
167.38674569383241
 31
0.0
  0
SOLID
  5
3B7
  8
DIM
 62
     0
 10
31.5
 20
167.80341236049901
 30
0.0
 11
31.5
 21
166.9700790271657
 31
0.0
 12
34.0
 22
167.38674569383241
 32
0.0
 13
34.0
 23
167.38674569383241
 33
0.0
  0
SOLID
  5
3B8
  8
DIM
 62
     0
 10
2.500000000000008
 20
167.80341236049901
 30
0.0
 11
2.500000000000008
 21
166.9700790271657
 31
0.0
 12
0.0000000000000082
 22
167.38674569383241
 32
0.0
 13
0.0000000000000082
 23
167.38674569383241
 33
0.0
  0
INSERT
  5
3B9
  8
RAW
  2
*U31
 10
0.0
 20
0.0
 30
0.0
  0
POINT
  5
3BA
  8
DEFPOINTS
 62
     0
 10
34.0
 20
149.0
 30
0.0
  0
POINT
  5
3BB
  8
DEFPOINTS
 62
     0
 10
0.0000000000000071
 20
149.0
 30
0.0
  0
POINT
  5
3BC
  8
DEFPOINTS
 62
     0
 10
0.0000000000000082
 20
167.38674569383241
 30
0.0
  0
ENDBLK
  5
3A9
  8
0
  0
BLOCK
  8
0
  2
*D12
 70
     1
 10
0.0
 20
0.0
 30
0.0
  3
*D12
  1

  0
LINE
  5
661
  8
DIM
 62
     0
 10
53.999999999999993
 20
147.42500000000001
 30
0.0
 11
53.999999999999993
 21
158.93100398735459
 31
0.0
  0
LINE
  5
662
  8
DIM
 62
     0
 10
86.0
 20
147.42500000000001
 30
0.0
 11
86.0
 21
158.93100398735459
 31
0.0
  0
LINE
  5
663
  8
DIM
 62
     0
 10
56.499999999999993
 20
157.68100398735459
 30
0.0
 11
83.499999999999986
 21
157.68100398735459
 31
0.0
  0
SOLID
  5
664
  8
DIM
 62
     0
 10
56.499999999999993
 20
158.0976706540213
 30
0.0
 11
56.499999999999993
 21
157.26433732068801
 31
0.0
 12
53.999999999999993
 22
157.68100398735459
 32
0.0
 13
53.999999999999993
 23
157.68100398735459
 33
0.0
  0
SOLID
  5
665
  8
DIM
 62
     0
 10
83.499999999999986
 20
158.0976706540213
 30
0.0
 11
83.499999999999986
 21
157.26433732068801
 31
0.0
 12
86.0
 22
157.68100398735459
 32
0.0
 13
86.0
 23
157.68100398735459
 33
0.0
  0
INSERT
  5
666
  8
RAW
  2
*U33
 10
0.0
 20
0.0
 30
0.0
  0
POINT
  5
667
  8
DEFPOINTS
 62
     0
 10
53.999999999999993
 20
146.80000000000001
 30
0.0
  0
POINT
  5
668
  8
DEFPOINTS
 62
     0
 10
86.0
 20
146.80000000000001
 30
0.0
  0
POINT
  5
669
  8
DEFPOINTS
 62
     0
 10
86.0
 20
157.68100398735459
 30
0.0
  0
ENDBLK
  5
656
  8
0
  0
BLOCK
  8
0
  2
*D13
 70
     1
 10
0.0
 20
0.0
 30
0.0
  3
*D13
  1

  0
LINE
  5
679
  8
DIM
 62
     0
 10
53.999999999999993
 20
147.42500000000001
 30
0.0
 11
53.999999999999993
 21
153.99189546107479
 31
0.0
  0
LINE
  5
67A
  8
DIM
 62
     0
 10
81.5
 20
147.42500000000001
 30
0.0
 11
81.5
 21
153.99189546107479
 31
0.0
  0
LINE
  5
67B
  8
DIM
 62
     0
 10
56.499999999999993
 20
152.74189546107479
 30
0.0
 11
79.0
 21
152.74189546107479
 31
0.0
  0
SOLID
  5
67C
  8
DIM
 62
     0
 10
56.499999999999993
 20
153.1585621277415
 30
0.0
 11
56.499999999999993
 21
152.32522879440819
 31
0.0
 12
53.999999999999993
 22
152.74189546107479
 32
0.0
 13
53.999999999999993
 23
152.74189546107479
 33
0.0
  0
SOLID
  5
67D
  8
DIM
 62
     0
 10
79.0
 20
153.1585621277415
 30
0.0
 11
79.0
 21
152.32522879440819
 31
0.0
 12
81.5
 22
152.74189546107479
 32
0.0
 13
81.5
 23
152.74189546107479
 33
0.0
  0
INSERT
  5
67E
  8
RAW
  2
*U34
 10
0.0
 20
0.0
 30
0.0
  0
POINT
  5
67F
  8
DEFPOINTS
 62
     0
 10
53.999999999999993
 20
146.80000000000001
 30
0.0
  0
POINT
  5
680
  8
DEFPOINTS
 62
     0
 10
81.5
 20
146.80000000000001
 30
0.0
  0
POINT
  5
681
  8
DEFPOINTS
 62
     0
 10
81.5
 20
152.74189546107479
 30
0.0
  0
ENDBLK
  5
66E
  8
0
  0
BLOCK
  8
0
  2
*D14
 70
     1
 10
0.0
 20
0.0
 30
0.0
  3
*D14
  1

  0
LINE
  5
691
  8
DIM
 62
     0
 10
53.375
 20
136.0
 30
0.0
 11
47.181383099205952
 21
136.0
 31
0.0
  0
LINE
  5
692
  8
DIM
 62
     0
 10
53.374999999999993
 20
146.80000000000001
 30
0.0
 11
47.181383099205959
 21
146.80000000000001
 31
0.0
  0
LINE
  5
693
  8
DIM
 62
     0
 10
48.431383099205952
 20
138.5
 30
0.0
 11
48.431383099205959
 21
144.30000000000001
 31
0.0
  0
SOLID
  5
694
  8
DIM
 62
     0
 10
48.014716432539288
 20
138.5
 30
0.0
 11
48.848049765872609
 21
138.5
 31
0.0
 12
48.431383099205952
 22
136.0
 32
0.0
 13
48.431383099205952
 23
136.0
 33
0.0
  0
SOLID
  5
695
  8
DIM
 62
     0
 10
48.014716432539288
 20
144.30000000000001
 30
0.0
 11
48.848049765872616
 21
144.30000000000001
 31
0.0
 12
48.431383099205959
 22
146.80000000000001
 32
0.0
 13
48.431383099205959
 23
146.80000000000001
 33
0.0
  0
INSERT
  5
696
  8
RAW
  2
*U35
 10
0.0
 20
0.0
 30
0.0
  0
POINT
  5
697
  8
DEFPOINTS
 62
     0
 10
54.0
 20
136.0
 30
0.0
  0
POINT
  5
698
  8
DEFPOINTS
 62
     0
 10
53.999999999999993
 20
146.80000000000001
 30
0.0
  0
POINT
  5
699
  8
DEFPOINTS
 62
     0
 10
48.431383099205959
 20
146.80000000000001
 30
0.0
  0
ENDBLK
  5
686
  8
0
  0
BLOCK
  8
0
  2
*D15
 70
     1
 10
0.0
 20
0.0
 30
0.0
  3
*D15
  1

  0
LINE
  5
6A9
  8
DIM
 62
     0
 10
86.624999999999986
 20
133.80000000000001
 30
0.0
 11
95.445222258278363
 21
133.80000000000001
 31
0.0
  0
LINE
  5
6AA
  8
DIM
 62
     0
 10
86.624999999999986
 20
149.0
 30
0.0
 11
95.445222258278363
 21
149.0
 31
0.0
  0
LINE
  5
6AB
  8
DIM
 62
     0
 10
94.195222258278363
 20
136.30000000000001
 30
0.0
 11
94.195222258278363
 21
146.5
 31
0.0
  0
SOLID
  5
6AC
  8
DIM
 62
     0
 10
93.778555591611692
 20
136.30000000000001
 30
0.0
 11
94.611888924945035
 21
136.30000000000001
 31
0.0
 12
94.195222258278363
 22
133.80000000000001
 32
0.0
 13
94.195222258278363
 23
133.80000000000001
 33
0.0
  0
SOLID
  5
6AD
  8
DIM
 62
     0
 10
93.778555591611692
 20
146.5
 30
0.0
 11
94.611888924945035
 21
146.5
 31
0.0
 12
94.195222258278363
 22
149.0
 32
0.0
 13
94.195222258278363
 23
149.0
 33
0.0
  0
INSERT
  5
6AE
  8
RAW
  2
*U36
 10
0.0
 20
0.0
 30
0.0
  0
POINT
  5
6AF
  8
DEFPOINTS
 62
     0
 10
86.0
 20
133.80000000000001
 30
0.0
  0
POINT
  5
6B0
  8
DEFPOINTS
 62
     0
 10
86.0
 20
149.0
 30
0.0
  0
POINT
  5
6B1
  8
DEFPOINTS
 62
     0
 10
94.195222258278363
 20
149.0
 30
0.0
  0
ENDBLK
  5
69E
  8
0
  0
BLOCK
  8
0
  2
*D16
 70
     1
 10
0.0
 20
0.0
 30
0.0
  3
*D16
  1

  0
LINE
  5
6C3
  8
DIM
 62
     0
 10
71.574999999999974
 20
143.06
 30
0.0
 11
66.219139530519669
 21
143.06
 31
0.0
  0
LINE
  5
6C4
  8
DIM
 62
     0
 10
71.574999999999974
 20
139.74000000000001
 30
0.0
 11
66.219139530519669
 21
139.74000000000001
 31
0.0
  0
LINE
  5
6C5
  8
DIM
 62
     0
 10
67.469139530519669
 20
145.56
 30
0.0
 11
67.469139530519669
 21
148.06
 31
0.0
  0
LINE
  5
6C6
  8
DIM
 62
     0
 10
67.469139530519669
 20
137.24000000000001
 30
0.0
 11
67.469139530519669
 21
127.02342428376529
 31
0.0
  0
LINE
  5
6C7
  8
DIM
 62
     0
 10
67.469139530519669
 20
143.06
 30
0.0
 11
67.469139530519669
 21
139.74000000000001
 31
0.0
  0
SOLID
  5
6C8
  8
DIM
 62
     0
 10
67.052472863852998
 20
145.56
 30
0.0
 11
67.885806197186341
 21
145.56
 31
0.0
 12
67.469139530519669
 22
143.06
 32
0.0
 13
67.469139530519669
 23
143.06
 33
0.0
  0
SOLID
  5
6C9
  8
DIM
 62
     0
 10
67.052472863852998
 20
137.24000000000001
 30
0.0
 11
67.885806197186341
 21
137.24000000000001
 31
0.0
 12
67.469139530519669
 22
139.74000000000001
 32
0.0
 13
67.469139530519669
 23
139.74000000000001
 33
0.0
  0
INSERT
  5
6CA
  8
RAW
  2
*U37
 10
0.0
 20
0.0
 30
0.0
  0
POINT
  5
6CB
  8
DEFPOINTS
 62
     0
 10
72.199999999999974
 20
143.06
 30
0.0
  0
POINT
  5
6CC
  8
DEFPOINTS
 62
     0
 10
72.199999999999974
 20
139.74000000000001
 30
0.0
  0
POINT
  5
6CD
  8
DEFPOINTS
 62
     0
 10
67.469139530519669
 20
139.74000000000001
 30
0.0
  0
ENDBLK
  5
6B6
  8
0
  0
BLOCK
  8
0
  2
*D17
 70
     1
 10
0.0
 20
0.0
 30
0.0
  3
*D17
  1

  0
LINE
  5
6D3
  8
DIM
 62
     0
 10
54.0
 20
135.375
 30
0.0
 11
54.0
 21
118.6559704664684
 31
0.0
  0
LINE
  5
6D4
  8
DIM
 62
     0
 10
56.450000000000003
 20
135.375
 30
0.0
 11
56.450000000000003
 21
118.6559704664684
 31
0.0
  0
LINE
  5
6D5
  8
DIM
 62
     0
 10
51.5
 20
119.9059704664684
 30
0.0
 11
49.0
 21
119.9059704664684
 31
0.0
  0
LINE
  5
6D6
  8
DIM
 62
     0
 10
58.950000000000003
 20
119.9059704664684
 30
0.0
 11
69.255252387448834
 21
119.9059704664684
 31
0.0
  0
LINE
  5
6D7
  8
DIM
 62
     0
 10
54.0
 20
119.9059704664684
 30
0.0
 11
56.450000000000003
 21
119.9059704664684
 31
0.0
  0
SOLID
  5
6D8
  8
DIM
 62
     0
 10
51.5
 20
120.322637133135
 30
0.0
 11
51.5
 21
119.4893037998017
 31
0.0
 12
54.0
 22
119.9059704664684
 32
0.0
 13
54.0
 23
119.9059704664684
 33
0.0
  0
SOLID
  5
6D9
  8
DIM
 62
     0
 10
58.950000000000003
 20
120.322637133135
 30
0.0
 11
58.950000000000003
 21
119.4893037998017
 31
0.0
 12
56.450000000000003
 22
119.9059704664684
 32
0.0
 13
56.450000000000003
 23
119.9059704664684
 33
0.0
  0
INSERT
  5
6DA
  8
RAW
  2
*U38
 10
0.0
 20
0.0
 30
0.0
  0
POINT
  5
6DB
  8
DEFPOINTS
 62
     0
 10
54.0
 20
136.0
 30
0.0
  0
POINT
  5
6DC
  8
DEFPOINTS
 62
     0
 10
56.450000000000003
 20
136.0
 30
0.0
  0
POINT
  5
6DD
  8
DEFPOINTS
 62
     0
 10
56.450000000000003
 20
119.9059704664684
 30
0.0
  0
ENDBLK
  5
6D2
  8
0
  0
BLOCK
  8
0
  2
*D18
 70
     1
 10
0.0
 20
0.0
 30
0.0
  3
*D18
  1

  0
LINE
  5
6F1
  8
DIM
 62
     0
 10
56.450000000000003
 20
135.375
 30
0.0
 11
56.450000000000003
 21
118.6559704664684
 31
0.0
  0
LINE
  5
6F2
  8
DIM
 62
     0
 10
61.550000000000011
 20
140.83500000000001
 30
0.0
 11
61.550000000000011
 21
118.6559704664684
 31
0.0
  0
LINE
  5
6F3
  8
DIM
 62
     0
 10
53.950000000000003
 20
119.9059704664684
 30
0.0
 11
51.450000000000003
 21
119.9059704664684
 31
0.0
  0
LINE
  5
6F4
  8
DIM
 62
     0
 10
64.050000000000011
 20
119.9059704664684
 30
0.0
 11
66.550000000000011
 21
119.9059704664684
 31
0.0
  0
LINE
  5
6F5
  8
DIM
 62
     0
 10
59.000000000000007
 20
119.9059704664684
 30
0.0
 11
61.008398703956352
 21
113.2113081199472
 31
0.0
  0
LINE
  5
6F6
  8
DIM
 62
     0
 10
61.008398703956352
 20
113.2113081199472
 30
0.0
 11
66.327293656207374
 21
113.2113081199472
 31
0.0
  0
INSERT
  5
6F7
  8
RAW
  2
*U39
 10
0.0
 20
0.0
 30
0.0
  0
LINE
  5
6F8
  8
DIM
 62
     0
 10
56.450000000000003
 20
119.9059704664684
 30
0.0
 11
61.550000000000011
 21
119.9059704664684
 31
0.0
  0
LINE
  5
6F9
  8
DIM
 62
     0
 10
56.450000000000003
 20
119.9059704664684
 30
0.0
 11
61.550000000000011
 21
119.9059704664684
 31
0.0
  0
SOLID
  5
6FA
  8
DIM
 62
     0
 10
53.950000000000003
 20
120.322637133135
 30
0.0
 11
53.950000000000003
 21
119.4893037998017
 31
0.0
 12
56.450000000000003
 22
119.9059704664684
 32
0.0
 13
56.450000000000003
 23
119.9059704664684
 33
0.0
  0
SOLID
  5
6FB
  8
DIM
 62
     0
 10
64.050000000000011
 20
120.322637133135
 30
0.0
 11
64.050000000000011
 21
119.4893037998017
 31
0.0
 12
61.550000000000011
 22
119.9059704664684
 32
0.0
 13
61.550000000000011
 23
119.9059704664684
 33
0.0
  0
POINT
  5
6FC
  8
DEFPOINTS
 62
     0
 10
56.450000000000003
 20
136.0
 30
0.0
  0
POINT
  5
6FD
  8
DEFPOINTS
 62
     0
 10
61.550000000000011
 20
141.46000000000001
 30
0.0
  0
POINT
  5
6FE
  8
DEFPOINTS
 62
     0
 10
61.550000000000011
 20
119.9059704664684
 30
0.0
  0
ENDBLK
  5
6E1
  8
0
  0
BLOCK
  8
0
  2
*D19
 70
     1
 10
0.0
 20
0.0
 30
0.0
  3
*D19
  1

  0
LINE
  5
70E
  8
DIM
 62
     0
 10
61.550000000000011
 20
140.83500000000001
 30
0.0
 11
61.550000000000011
 21
118.6559704664684
 31
0.0
  0
LINE
  5
70F
  8
DIM
 62
     0
 10
70.599999999999994
 20
140.715
 30
0.0
 11
70.599999999999994
 21
118.6559704664684
 31
0.0
  0
LINE
  5
710
  8
DIM
 62
     0
 10
64.050000000000011
 20
119.9059704664684
 30
0.0
 11
68.099999999999994
 21
119.9059704664684
 31
0.0
  0
SOLID
  5
711
  8
DIM
 62
     0
 10
64.050000000000011
 20
120.322637133135
 30
0.0
 11
64.050000000000011
 21
119.4893037998017
 31
0.0
 12
61.550000000000011
 22
119.9059704664684
 32
0.0
 13
61.550000000000011
 23
119.9059704664684
 33
0.0
  0
SOLID
  5
712
  8
DIM
 62
     0
 10
68.099999999999994
 20
120.322637133135
 30
0.0
 11
68.099999999999994
 21
119.4893037998017
 31
0.0
 12
70.599999999999994
 22
119.9059704664684
 32
0.0
 13
70.599999999999994
 23
119.9059704664684
 33
0.0
  0
INSERT
  5
713
  8
RAW
  2
*U40
 10
0.0
 20
0.0
 30
0.0
  0
POINT
  5
714
  8
DEFPOINTS
 62
     0
 10
61.550000000000011
 20
141.46000000000001
 30
0.0
  0
POINT
  5
715
  8
DEFPOINTS
 62
     0
 10
70.599999999999994
 20
141.34
 30
0.0
  0
POINT
  5
716
  8
DEFPOINTS
 62
     0
 10
70.599999999999994
 20
119.9059704664684
 30
0.0
  0
ENDBLK
  5
703
  8
0
  0
BLOCK
  8
0
  2
*D20
 70
     1
 10
0.0
 20
0.0
 30
0.0
  3
*D20
  1

  0
LINE
  5
8D2
  8
DIM
 62
     0
 10
70.599999999999994
 20
140.715
 30
0.0
 11
70.599999999999994
 21
118.6559704664684
 31
0.0
  0
LINE
  5
8D3
  8
DIM
 62
     0
 10
78.799999999999983
 20
140.715
 30
0.0
 11
78.799999999999983
 21
118.6559704664684
 31
0.0
  0
LINE
  5
8D4
  8
DIM
 62
     0
 10
73.099999999999994
 20
119.9059704664684
 30
0.0
 11
76.299999999999983
 21
119.9059704664684
 31
0.0
  0
SOLID
  5
8D5
  8
DIM
 62
     0
 10
73.099999999999994
 20
120.322637133135
 30
0.0
 11
73.099999999999994
 21
119.4893037998017
 31
0.0
 12
70.599999999999994
 22
119.9059704664684
 32
0.0
 13
70.599999999999994
 23
119.9059704664684
 33
0.0
  0
SOLID
  5
8D6
  8
DIM
 62
     0
 10
76.299999999999983
 20
120.322637133135
 30
0.0
 11
76.299999999999983
 21
119.4893037998017
 31
0.0
 12
78.799999999999983
 22
119.9059704664684
 32
0.0
 13
78.799999999999983
 23
119.9059704664684
 33
0.0
  0
TEXT
  8
DIM
  40
2.5
  5
8EF
  62
0
  72
0
  71
0
 10
74.7000
 20
118.783
 30
0.000000
  1
8,2
  0
POINT
  5
8D8
  8
DEFPOINTS
 62
     0
 10
70.599999999999994
 20
141.34
 30
0.0
  0
POINT
  5
8D9
  8
DEFPOINTS
 62
     0
 10
78.799999999999983
 20
141.34
 30
0.0
  0
POINT
  5
8DA
  8
DEFPOINTS
 62
     0
 10
78.799999999999983
 20
119.9059704664684
 30
0.0
  0
ENDBLK
  5
71B
  8
0
  0
BLOCK
  8
0
  2
*D21
 70
     1
 10
0.0
 20
0.0
 30
0.0
  3
*D21
  1

  0
LINE
  5
8DB
  8
DIM
 62
     0
 10
78.799999999999983
 20
140.715
 30
0.0
 11
78.799999999999983
 21
118.6559704664684
 31
0.0
  0
LINE
  5
8DC
  8
DIM
 62
     0
 10
86.0
 20
140.77500000000001
 30
0.0
 11
86.0
 21
118.6559704664684
 31
0.0
  0
LINE
  5
8DD
  8
DIM
 62
     0
 10
81.299999999999983
 20
119.9059704664684
 30
0.0
 11
83.499999999999986
 21
119.9059704664684
 31
0.0
  0
SOLID
  5
8DE
  8
DIM
 62
     0
 10
81.299999999999983
 20
120.322637133135
 30
0.0
 11
81.299999999999983
 21
119.4893037998017
 31
0.0
 12
78.799999999999983
 22
119.9059704664684
 32
0.0
 13
78.799999999999983
 23
119.9059704664684
 33
0.0
  0
SOLID
  5
8DF
  8
DIM
 62
     0
 10
83.499999999999986
 20
120.322637133135
 30
0.0
 11
83.499999999999986
 21
119.4893037998017
 31
0.0
 12
86.0
 22
119.9059704664684
 32
0.0
 13
86.0
 23
119.9059704664684
 33
0.0
  0
TEXT
  8
DIM
  40
2.5
  5
8F0
  62
0
  72
0
  71
0
 10
82.4000
 20
118.783
 30
0.000000
  1
7,2
  0
POINT
  5
8E1
  8
DEFPOINTS
 62
     0
 10
78.799999999999983
 20
141.34
 30
0.0
  0
POINT
  5
8E2
  8
DEFPOINTS
 62
     0
 10
86.0
 20
141.40000000000001
 30
0.0
  0
POINT
  5
8E3
  8
DEFPOINTS
 62
     0
 10
86.0
 20
119.9059704664684
 30
0.0
  0
ENDBLK
  5
733
  8
0
  0
BLOCK
  8
0
  2
*D22
 70
     1
 10
0.0
 20
0.0
 30
0.0
  3
*D22
  1

  0
LINE
  5
758
  8
DIM
 62
     0
 10
56.450000000000003
 20
135.375
 30
0.0
 11
56.450000000000003
 21
112.9030341858532
 31
0.0
  0
LINE
  5
759
  8
DIM
 62
     0
 10
61.550000000000011
 20
135.375
 30
0.0
 11
61.550000000000011
 21
112.9030341858532
 31
0.0
  0
LINE
  5
75A
  8
DIM
 62
     0
 10
53.950000000000003
 20
114.1530341858532
 30
0.0
 11
51.450000000000003
 21
114.1530341858532
 31
0.0
  0
LINE
  5
75B
  8
DIM
 62
     0
 10
64.050000000000011
 20
114.1530341858532
 30
0.0
 11
71.86889495225104
 21
114.1530341858532
 31
0.0
  0
LINE
  5
75C
  8
DIM
 62
     0
 10
56.450000000000003
 20
114.1530341858532
 30
0.0
 11
61.550000000000011
 21
114.1530341858532
 31
0.0
  0
SOLID
  5
75D
  8
DIM
 62
     0
 10
53.950000000000003
 20
114.5697008525199
 30
0.0
 11
53.950000000000003
 21
113.7363675191865
 31
0.0
 12
56.450000000000003
 22
114.1530341858532
 32
0.0
 13
56.450000000000003
 23
114.1530341858532
 33
0.0
  0
SOLID
  5
75E
  8
DIM
 62
     0
 10
64.050000000000011
 20
114.5697008525199
 30
0.0
 11
64.050000000000011
 21
113.7363675191865
 31
0.0
 12
61.550000000000011
 22
114.1530341858532
 32
0.0
 13
61.550000000000011
 23
114.1530341858532
 33
0.0
  0
INSERT
  5
75F
  8
RAW
  2
*U41
 10
0.0
 20
0.0
 30
0.0
  0
POINT
  5
760
  8
DEFPOINTS
 62
     0
 10
56.450000000000003
 20
136.0
 30
0.0
  0
POINT
  5
761
  8
DEFPOINTS
 62
     0
 10
61.550000000000011
 20
136.0
 30
0.0
  0
POINT
  5
762
  8
DEFPOINTS
 62
     0
 10
61.550000000000011
 20
114.1530341858532
 30
0.0
  0
ENDBLK
  5
74B
  8
0
  0
BLOCK
  8
0
  2
*U23
 70
     1
 10
0.0
 20
0.0
 30
0.0
  3
*U23
  1

  0
TEXT
  5
870
  8
DIM
 62
     0
 10
70.554229195088666
 20
168.01174569383241
 30
0.0
 40
2.5
  1
77
  0
ENDBLK
  5
872
  8
0
  0
BLOCK
  8
0
  2
*U24
 70
     1
 10
0.0
 20
0.0
 30
0.0
  3
*U24
  1

  0
TEXT
  5
886
  8
DIM
 62
     0
 10
268.79608970879309
 20
71.473055934515557
 30
0.0
 40
2.5
  1
149
 50
90.0
  0
ENDBLK
  5
888
  8
0
  0
BLOCK
  8
0
  2
*U25
 70
     1
 10
0.0
 20
0.0
 30
0.0
  3
*U25
  1

  0
TEXT
  5
88A
  8
DIM
 62
     0
 10
211.9074803149752
 20
133.37005457025921
 30
0.0
 40
2.5
  1
24,5
 50
90.0
  0
ENDBLK
  5
88C
  8
0
  0
BLOCK
  8
0
  2
*D26
 70
     1
 10
0.0
 20
0.0
 30
0.0
  3
*D26
  1

  0
LINE
  5
88E
  8
DIM
 10
128.0
 20
74.5
 30
0.0
 11
99.858864836919878
 21
77.477055080028464
 31
0.0
  0
LINE
  5
88F
  8
DIM
 10
99.858864836919878
 20
77.477055080028464
 30
0.0
 11
3.1964300281167768
 21
87.702989141601478
 31
0.0
  0
SOLID
  5
890
  8
DIM
 10
3.2402646534209012
 20
88.117343623579856
 30
0.0
 11
3.152595402812655
 21
87.288634659623114
 31
0.0
 12
0.7103031362465943
 22
87.965996893426222
 32
0.0
 13
0.7103031362465943
 23
87.965996893426222
 33
0.0
  0
TEXT
  5
891
  8
DIM
 10
47.386222738711901
 20
83.69950262229105
 30
0.0
 40
2.5
  1
R128
 50
353.96113181569967
  0
ENDBLK
  5
893
  8
0
  0
BLOCK
  8
0
  2
*U27
 70
     1
 10
0.0
 20
0.0
 30
0.0
  3
*U27
  1

  0
TEXT
  5
895
  8
DIM
 62
     0
 10
47.386222738711901
 20
83.69950262229105
 30
0.0
 40
2.5
  1
R128
 50
353.96113181569967
  0
ENDBLK
  5
897
  8
0
  0
BLOCK
  8
0
  2
*D28
 70
     1
 10
0.0
 20
0.0
 30
0.0
  3
*D28
  1

  0
LINE
  5
899
  8
DIM
 10
36.000000000000007
 20
126.4999999999999
 30
0.0
 11
35.12628823745203
 21
126.0135560094056
 31
0.0
  0
LINE
  5
89A
  8
DIM
 10
35.12628823745203
 20
126.0135560094056
 30
0.0
 11
36.436855881273978
 21
126.74322199529711
 31
0.0
  0
SOLID
  5
89B
  8
DIM
 10
36.234170885193009
 20
127.1072685630254
 30
0.0
 11
36.639540877354953
 21
126.3791754275688
 31
0.0
 12
34.252576474904068
 22
125.52711201881129
 32
0.0
 13
34.252576474904068
 23
125.52711201881129
 33
0.0
  0
TEXT
  5
89C
  8
DIM
 10
27.478403467712099
 20
122.47089157511761
 30
0.0
 40
2.5
  1
R2
 50
29.10712213038169
  0
ENDBLK
  5
89E
  8
0
  0
BLOCK
  8
0
  2
*U29
 70
     1
 10
0.0
 20
0.0
 30
0.0
  3
*U29
  1

  0
TEXT
  5
8A0
  8
DIM
 62
     0
 10
27.478403467712099
 20
122.47089157511761
 30
0.0
 40
2.5
  1
R2
 50
29.10712213038169
  0
ENDBLK
  5
8A2
  8
0
  0
BLOCK
  8
0
  2
*U30
 70
     1
 10
0.0
 20
0.0
 30
0.0
  3
*U30
  1

  0
TEXT
  5
8A4
  8
DIM
 62
     0
 10
237.06872442019099
 20
168.05608402943949
 30
0.0
 40
2.5
  1
34
  0
ENDBLK
  5
8A6
  8
0
  0
BLOCK
  8
0
  2
*U31
 70
     1
 10
0.0
 20
0.0
 30
0.0
  3
*U31
  1

  0
TEXT
  5
8A8
  8
DIM
 62
     0
 10
15.068724420191
 20
168.05608402943949
 30
0.0
 40
2.5
  1
34
  0
ENDBLK
  5
8AA
  8
0
  0
BLOCK
  8
0
  2
*U32
 70
     1
 10
0.0
 20
0.0
 30
0.0
  3
*U32
  1

  0
TEXT
  5
8AC
  8
DIM
 62
     0
 10
125.11545020463851
 20
177.52276596369219
 30
0.0
 40
2.5
  1
256
  0
ENDBLK
  5
8AE
  8
0
  0
BLOCK
  8
0
  2
*U33
 70
     1
 10
0.0
 20
0.0
 30
0.0
  3
*U33
  1

  0
TEXT
  5
8B3
  8
DIM
 62
     0
 10
68.07639836289222
 20
158.35034232296169
 30
0.0
 40
2.5
  1
32
  0
ENDBLK
  5
8B5
  8
0
  0
BLOCK
  8
0
  2
*U34
 70
     1
 10
0.0
 20
0.0
 30
0.0
  3
*U34
  1

  0
TEXT
  5
8B7
  8
DIM
 62
     0
 10
64.370054570259214
 20
153.8614384351539
 30
0.0
 40
2.5
  1
27,5
  0
ENDBLK
  5
8B9
  8
0
  0
BLOCK
  8
0
  2
*U35
 70
     1
 10
0.0
 20
0.0
 30
0.0
  3
*U35
  1

  0
TEXT
  5
8BB
  8
DIM
 62
     0
 10
47.3118401251268
 20
137.88789222373799
 30
0.0
 40
2.5
  1
10,8
 50
90.0
  0
ENDBLK
  5
8BD
  8
0
  0
BLOCK
  8
0
  2
*U36
 70
     1
 10
0.0
 20
0.0
 30
0.0
  3
*U36
  1

  0
TEXT
  5
8BF
  8
DIM
 62
     0
 10
93.075679284199225
 20
137.90324010914051
 30
0.0
 40
2.5
  1
15,2
 50
90.0
  0
ENDBLK
  5
8C1
  8
0
  0
BLOCK
  8
0
  2
*U37
 70
     1
 10
0.0
 20
0.0
 30
0.0
  3
*U37
  1

  0
TEXT
  5
8C3
  8
DIM
 62
     0
 10
66.349596556440531
 20
127.5017667121419
 30
0.0
 40
2.5
  1
3,32
 50
90.0
  0
ENDBLK
  5
8C5
  8
0
  0
BLOCK
  8
0
  2
*U38
 70
     1
 10
0.0
 20
0.0
 30
0.0
  3
*U38
  1

  0
TEXT
  5
8C7
  8
DIM
 62
     0
 10
61.972680763983618
 20
121.0255134405475
 30
0.0
 40
2.5
  1
2,45
  0
ENDBLK
  5
8C9
  8
0
  0
BLOCK
  8
0
  2
*U39
 70
     1
 10
0.0
 20
0.0
 30
0.0
  3
*U39
  1

  0
TEXT
  5
8CB
  8
DIM
 62
     0
 10
61.488446452933161
 20
114.3308510940263
 30
0.0
 40
2.5
  1
5,1
  0
ENDBLK
  5
8CD
  8
0
  0
BLOCK
  8
0
  2
*U40
 70
     1
 10
0.0
 20
0.0
 30
0.0
  3
*U40
  1

  0
TEXT
  5
8CF
  8
DIM
 62
     0
 10
62.673738062755803
 20
121.0255134405475
 30
0.0
 40
2.5
  1
9,05
  0
ENDBLK
  5
8D1
  8
0
  0
BLOCK
  8
0
  2
*U41
 70
     1
 10
0.0
 20
0.0
 30
0.0
  3
*U41
  1

  0
TEXT
  5
8E5
  8
DIM
 62
     0
 10
67.030047748976813
 20
115.2725771599323
 30
0.0
 40
2.5
  1
5,1
  0
ENDBLK
  5
8E7
  8
0
  0
ENDSEC
  0
SECTION
  2
ENTITIES
  0
POLYLINE
  5
1F3
  8
0
 66
     1
 10
0.0
 20
0.0
 30
0.0
  0
VERTEX
  5
863
  8
0
 10
23.914698444016611
 20
0.0
 30
0.0
  0
VERTEX
  5
864
  8
0
 10
34.0
 20
0.0
 30
0.0
  0
SEQEND
  5
865
  8
0
  0
LINE
  5
1FB
  8
0
  6
ACAD_ISO04W100
 10
-10.0
 20
74.5
 30
0.0
 11
266.0
 21
74.5
 31
0.0
  0
LINE
  5
1FD
  8
0
 10
34.0
 20
149.0
 30
0.0
 11
34.0
 21
126.5
 31
0.0
  0
ARC
  5
200
  8
0
 10
128.0
 20
74.5
 30
0.0
 40
128.0
 50
144.40646287150079
 51
215.59353712849921
  0
LINE
  5
201
  8
0
 10
36.0
 20
124.5
 30
0.0
 11
84.25
 21
124.5
 31
0.0
  0
LINE
  5
202
  8
0
 10
36.0
 20
24.5
 30
0.0
 11
84.25
 21
24.5
 31
0.0
  0
LINE
  5
205
  8
0
 10
34.0
 20
22.5
 30
0.0
 11
34.0
 21
0.0
 31
0.0
  0
POLYLINE
  5
207
  8
0
 66
     1
 10
0.0
 20
0.0
 30
0.0
  0
VERTEX
  5
866
  8
0
 10
34.0
 20
149.0
 30
0.0
  0
VERTEX
  5
867
  8
0
 10
23.914698444016611
 20
149.0
 30
0.0
  0
SEQEND
  5
868
  8
0
  0
ARC
  5
208
  8
0
 10
128.0
 20
74.5
 30
0.0
 40
128.0
 50
324.40646287150082
 51
35.5935371284992
  0
ARC
  5
20C
  8
0
 10
36.0
 20
126.5
 30
0.0
 40
2.0
 50
180.0
 51
270.0
  0
ARC
  5
20D
  8
0
 10
36.0
 20
22.5
 30
0.0
 40
2.0
 50
90.0
 51
180.0
  0
POLYLINE
  5
20E
  8
0
 66
     1
 10
0.0
 20
0.0
 30
0.0
  0
VERTEX
  5
869
  8
0
 10
232.08530155598339
 20
0.0
 30
0.0
  0
VERTEX
  5
86A
  8
0
 10
222.0
 20
0.0
 30
0.0
  0
SEQEND
  5
86B
  8
0
  0
POLYLINE
  5
20F
  8
0
 66
     1
 10
0.0
 20
0.0
 30
0.0
  0
VERTEX
  5
86C
  8
0
 10
222.0
 20
149.0
 30
0.0
  0
VERTEX
  5
86D
  8
0
 10
232.08530155598339
 20
149.0
 30
0.0
  0
SEQEND
  5
86E
  8
0
  0
LINE
  5
210
  8
0
 10
222.0
 20
149.0
 30
0.0
 11
222.0
 21
126.5
 31
0.0
  0
LINE
  5
211
  8
0
 10
222.0
 20
22.5
 30
0.0
 11
222.0
 21
0.0
 31
0.0
  0
ARC
  5
212
  8
0
 10
128.0
 20
74.5
 30
0.0
 40
128.0
 50
324.40646287150099
 51
35.593537128499008
  0
ARC
  5
213
  8
0
 10
220.0
 20
126.5
 30
0.0
 40
2.0
 50
270.0
 51
0.000000000000007
  0
ARC
  5
214
  8
0
 10
220.0
 20
22.5
 30
0.0
 40
2.0
 50
0.000000000000007
 51
90.0
  0
ARC
  5
215
  8
0
 10
220.0
 20
126.5
 30
0.0
 40
2.0
 50
270.0
 51
0.0
  0
ARC
  5
216
  8
0
 10
220.0
 20
22.5
 30
0.0
 40
2.0
 50
0.0
 51
90.0
  0
LINE
  5
217
  8
0
 10
111.0
 20
149.0
 30
0.0
 11
111.0
 21
126.5
 31
0.0
  0
LINE
  5
218
  8
0
 10
111.0
 20
22.5
 30
0.0
 11
111.0
 21
0.0
 31
0.0
  0
LINE
  5
219
  8
0
 10
145.0
 20
22.5
 30
0.0
 11
145.0
 21
0.0
 31
0.0
  0
LINE
  5
21A
  8
0
 10
145.0
 20
149.0
 30
0.0
 11
145.0
 21
126.5
 31
0.0
  0
LINE
  5
21B
  8
0
 10
111.0
 20
149.0
 30
0.0
 11
145.0
 21
149.0
 31
0.0
  0
LINE
  5
21C
  8
0
 10
111.0
 20
0.0
 30
0.0
 11
145.0
 21
0.0
 31
0.0
  0
LINE
  5
21D
  8
0
 10
147.0
 20
24.5
 30
0.0
 11
159.25
 21
24.5
 31
0.0
  0
LINE
  5
21E
  8
0
 10
147.0
 20
124.5
 30
0.0
 11
159.25
 21
124.5
 31
0.0
  0
ARC
  5
21F
  8
0
 10
147.0
 20
126.5
 30
0.0
 40
2.0
 50
180.0
 51
270.0
  0
ARC
  5
220
  8
0
 10
147.0
 20
22.5
 30
0.0
 40
2.0
 50
90.0
 51
180.0
  0
ARC
  5
221
  8
0
 10
109.0
 20
22.5
 30
0.0
 40
2.0
 50
0.0
 51
90.0
  0
ARC
  5
222
  8
0
 10
109.0
 20
126.5
 30
0.0
 40
2.0
 50
270.0
 51
0.0
  0
DIMENSION
  5
270
  8
DIM
  2
*D1
 10
111.0
 20
167.38674569383241
 30
0.0
 11
72.5
 21
169.26174569383241
 31
0.0
 70
     0
 13
34.0
 23
149.0
 33
0.0
 14
111.0
 24
149.0
 34
0.0
  0
DIMENSION
  5
288
  8
DIM
  2
*D2
 10
145.0
 20
167.38674569383241
 30
0.0
 11
128.0
 21
169.28903082343669
 31
0.0
 70
     0
 13
111.0
 23
149.0
 33
0.0
 14
145.0
 24
149.0
 34
0.0
1001
ACAD
1000
DSTYLE
1002
{
1070
   287
1070
     4
1070
   279
1070
     1
1002
}
  0
DIMENSION
  5
2A0
  8
DIM
  2
*D3
 10
222.0
 20
167.38674569383241
 30
0.0
 11
183.5
 21
169.26174569383241
 31
0.0
 70
     0
 13
145.0
 23
149.0
 33
0.0
 14
222.0
 24
149.0
 34
0.0
1001
ACAD
1000
DSTYLE
1002
{
1070
   287
1070
     4
1070
   279
1070
     1
1002
}
  0
DIMENSION
  5
2D0
  8
DIM
  2
*D4
 10
269.4637227238
 20
148.9999999999996
 30
0.0
 11
267.56229025449568
 21
74.499999999999872
 31
0.0
 70
     0
 13
232.08530155598339
 23
0.0
 33
0.0
 14
232.0853015559837
 24
148.9999999999996
 34
0.0
 50
90.0
  0
DIMENSION
  5
2E8
  8
DIM
  2
*D5
 10
213.0270232890544
 20
149.0
 30
0.0
 11
210.8996358402139
 21
136.75
 31
0.0
 70
     0
 13
222.0
 23
124.5
 33
0.0
 14
222.0
 24
149.0
 34
0.0
 50
90.0
  0
INSERT
  5
301
  8
RAW
  2
*D26
 10
0.0
 20
0.0
 30
0.0
1001
ACAD
1000
DSTYLE
1002
{
1070
    50
1040
0.7853981633974483
1002
}
1001
ACAD_DSTYLE_DIMRADIAL_EXTENSION
1070
   387
1070
     1
1070
   388
1040
2.520368238266633
1070
   390
1040
3.7628170689129519
  0
INSERT
  5
315
  8
RAW
  2
*D28
 10
0.0
 20
0.0
 30
0.0
1001
ACAD
1000
DSTYLE
1002
{
1070
    50
1040
0.7853981633974483
1002
}
1001
ACAD_DSTYLE_DIMRADIAL_EXTENSION
1070
   387
1070
     1
1070
   388
1040
3.1415926535897931
1070
   390
1040
4.7123889803846888
  0
DIMENSION
  5
340
  8
DIM
  2
*D8
 10
256.0
 20
176.85513294868539
 30
0.0
 11
128.0
 21
178.75656541798961
 31
0.0
 70
     0
 13
0.0
 23
74.5
 33
0.0
 14
256.0
 24
74.5
 34
0.0
  0
DIMENSION
  5
376
  8
DIM
  2
*D9
 10
256.0
 20
167.38674569383241
 30
0.0
 11
239.0
 21
169.28903082343669
 31
0.0
 70
     0
 13
222.0
 23
149.0
 33
0.0
 14
256.0
 24
148.9999999999996
 34
0.0
  0
DIMENSION
  5
3A6
  8
DIM
  2
*D10
 10
0.0000000000000082
 20
167.38674569383241
 30
0.0
 11
17.0
 21
169.28903082343669
 31
0.0
 70
     0
 13
34.0
 23
149.0
 33
0.0
 14
0.0000000000000071
 24
149.0
 34
0.0
  0
LINE
  5
3C7
  8
0
 10
14.0
 20
74.500000000000014
 30
0.0
 11
14.0
 21
105.0
 31
0.0
  0
LINE
  5
3C8
  8
0
 10
12.0
 20
107.0
 30
0.0
 11
12.0
 21
107.0
 31
0.0
  0
LINE
  5
3C9
  8
0
 10
10.0
 20
105.0
 30
0.0
 11
10.0
 21
74.5
 31
0.0
  0
ARC
  5
3CA
  8
0
 10
12.0
 20
105.0
 30
0.0
 40
2.0
 50
90.0
 51
180.0
  0
ARC
  5
3CB
  8
0
 10
12.0
 20
105.0
 30
0.0
 40
2.0
 50
0.0
 51
90.0
  0
LINE
  5
3CC
  8
0
 10
14.0
 20
74.499999999999986
 30
0.0
 11
14.0
 21
43.999999999999979
 31
0.0
  0
ARC
  5
3CD
  8
0
 10
12.0
 20
43.999999999999979
 30
0.0
 40
2.0
 50
270.0
 51
0.0
  0
LINE
  5
3CE
  8
0
 10
12.0
 20
41.999999999999979
 30
0.0
 11
12.0
 21
41.999999999999979
 31
0.0
  0
ARC
  5
3CF
  8
0
 10
12.0
 20
43.999999999999979
 30
0.0
 40
2.0
 50
180.0
 51
270.0
  0
LINE
  5
3D0
  8
0
 10
10.0
 20
43.999999999999979
 30
0.0
 11
10.0
 21
74.5
 31
0.0
  0
LINE
  5
3D1
  8
0
 10
242.0
 20
74.500000000000014
 30
0.0
 11
242.0
 21
105.0
 31
0.0
  0
ARC
  5
3D2
  8
0
 10
244.0
 20
105.0
 30
0.0
 40
2.0
 50
90.0
 51
180.0
  0
LINE
  5
3D3
  8
0
 10
244.0
 20
107.0
 30
0.0
 11
244.0
 21
107.0
 31
0.0
  0
ARC
  5
3D4
  8
0
 10
244.0
 20
105.0
 30
0.0
 40
2.0
 50
0.000000000000007
 51
90.0
  0
LINE
  5
3D5
  8
0
 10
246.0
 20
105.0
 30
0.0
 11
246.0
 21
74.5
 31
0.0
  0
LINE
  5
3D6
  8
0
 10
242.0
 20
74.499999999999986
 30
0.0
 11
242.0
 21
43.999999999999979
 31
0.0
  0
ARC
  5
3D7
  8
0
 10
244.0
 20
43.999999999999979
 30
0.0
 40
2.0
 50
180.0
 51
270.0
  0
LINE
  5
3D8
  8
0
 10
244.0
 20
41.999999999999979
 30
0.0
 11
244.0
 21
41.999999999999979
 31
0.0
  0
ARC
  5
3D9
  8
0
 10
244.0
 20
43.999999999999979
 30
0.0
 40
2.0
 50
270.0
 51
0.000000000000007
  0
LINE
  5
3DA
  8
0
 10
246.0
 20
43.999999999999979
 30
0.0
 11
246.0
 21
74.5
 31
0.0
  0
CIRCLE
  5
3DC
  8
0
 10
3.0
 20
81.5
 30
0.0000000000000004
 40
1.5
  0
CIRCLE
  5
3DD
  8
0
 10
3.0
 20
67.5
 30
0.0000000000000004
 40
1.5
  0
CIRCLE
  5
3E4
  8
0
 10
11.67931584955134
 20
120.7979312580115
 30
0.0000000000000004
 40
1.5
  0
CIRCLE
  5
3E5
  8
0
 10
17.575756244362118
 20
133.4956472207524
 30
0.0000000000000004
 40
1.5
  0
CIRCLE
  5
3EA
  8
0
 10
121.0
 20
144.0
 30
0.0
 40
1.5
  0
CIRCLE
  5
3EB
  8
0
 10
135.0
 20
144.0
 30
0.0
 40
1.5
  0
CIRCLE
  5
3EC
  8
0
 10
244.32068415044861
 20
120.7979312580115
 30
0.0000000000000004
 40
1.5
  0
CIRCLE
  5
3ED
  8
0
 10
238.42424375563789
 20
133.4956472207524
 30
0.0000000000000004
 40
1.5
  0
CIRCLE
  5
3EE
  8
0
 10
11.67931584955134
 20
28.20206874198843
 30
0.0000000000000004
 40
1.5
  0
CIRCLE
  5
3EF
  8
0
 10
17.575756244362118
 20
15.504352779247601
 30
0.0000000000000004
 40
1.5
  0
CIRCLE
  5
3F0
  8
0
 10
121.0
 20
5.0
 30
0.0
 40
1.5
  0
CIRCLE
  5
3F1
  8
0
 10
135.0
 20
5.0
 30
0.0
 40
1.5
  0
CIRCLE
  5
3F2
  8
0
 10
244.32068415044861
 20
28.20206874198843
 30
0.0000000000000004
 40
1.5
  0
CIRCLE
  5
3F3
  8
0
 10
238.42424375563789
 20
15.504352779247601
 30
0.0000000000000004
 40
1.5
  0
LINE
  5
3F7
  8
0
 10
14.86936647655884
 20
111.0473632234235
 30
0.0000000000000001
 11
27.083421580095461
 21
137.34977486052949
 31
-0.0000000000000001
  0
LINE
  5
3F8
  8
0
 10
11.24144763006146
 20
112.7320604790838
 30
0.0000000000000001
 11
23.45550273359807
 21
139.03447211618979
 31
-0.0000000000000001
  0
LINE
  5
3F9
  8
0
 10
26.111810784676891
 20
140.00608291160839
 30
0.0
 11
26.111810784676852
 21
140.00608291160839
 31
0.0
  0
LINE
  5
3FA
  8
0
 10
12.213058425480011
 20
110.075752428005
 30
0.0
 11
12.213058425480041
 21
110.075752428005
 31
0.0
  0
ARC
  5
3FB
  8
0
 10
25.26946215684676
 20
138.1921234883597
 30
0.0000000000000023
 40
2.0
 50
65.091250944839445
 51
155.0912509448394
  0
ARC
  5
3FC
  8
0
 10
25.269462156846771
 20
138.1921234883597
 30
0.0000000000000025
 40
2.0
 50
335.09125094483937
 51
65.091250944839473
  0
ARC
  5
3FD
  8
0
 10
13.05540705331015
 20
111.88971185125369
 30
-0.0000000000000063
 40
2.0
 50
155.0912509448394
 51
245.09125094483949
  0
ARC
  5
3FE
  8
0
 10
13.05540705331015
 20
111.88971185125369
 30
-0.0000000000000047
 40
2.0
 50
245.09125094483949
 51
335.09125094483937
  0
LINE
  5
3FF
  8
0
 10
11.24144763006146
 20
36.267939520916222
 30
0.0000000000000001
 11
23.45550273359807
 21
9.9655278838101822
 31
-0.0000000000000001
  0
LINE
  5
400
  8
0
 10
14.86936647655884
 20
37.952636776576441
 30
0.0000000000000001
 11
27.083421580095461
 21
11.65022513947042
 31
-0.0000000000000001
  0
LINE
  5
401
  8
0
 10
12.213058425480011
 20
38.924247571994997
 30
0.0
 11
12.213058425480041
 21
38.924247571995011
 31
0.0
  0
ARC
  5
402
  8
0
 10
13.05540705331015
 20
37.110288148746321
 30
-0.0000000000000047
 40
2.0
 50
24.908749055160769
 51
114.9087490551602
  0
ARC
  5
403
  8
0
 10
13.05540705331015
 20
37.110288148746321
 30
-0.0000000000000063
 40
2.0
 50
114.9087490551602
 51
204.9087490551608
  0
LINE
  5
404
  8
0
 10
26.111810784676891
 20
8.9939170883915835
 30
0.0
 11
26.111810784676852
 21
8.9939170883915835
 31
0.0
  0
ARC
  5
405
  8
0
 10
25.269462156846771
 20
10.8078765116403
 30
0.0000000000000025
 40
2.0
 50
294.90874905516017
 51
24.908749055160769
  0
ARC
  5
406
  8
0
 10
25.26946215684676
 20
10.80787651164027
 30
0.0000000000000023
 40
2.0
 50
204.9087490551608
 51
294.90874905516017
  0
LINE
  5
409
  8
0
 10
96.75
 20
26.5
 30
0.0
 11
96.75
 21
24.5
 31
0.0
  0
LINE
  5
40B
  8
0
 10
84.25
 20
26.5
 30
0.0
 11
84.25
 21
24.5
 31
0.0
  0
LINE
  5
40C
  8
0
 10
84.25
 20
26.5
 30
0.0
 11
96.75
 21
26.5
 31
0.0
  0
LINE
  5
40E
  8
0
 10
96.75
 20
24.5
 30
0.0
 11
109.0
 21
24.5
 31
0.0
  0
LINE
  5
40F
  8
0
 10
84.25
 20
122.5
 30
0.0
 11
96.75
 21
122.5
 31
0.0
  0
LINE
  5
410
  8
0
 10
96.75
 20
122.5
 30
0.0
 11
96.75
 21
124.5
 31
0.0
  0
LINE
  5
411
  8
0
 10
84.25
 20
122.5
 30
0.0
 11
84.25
 21
124.5
 31
0.0
  0
LINE
  5
412
  8
0
 10
171.75
 20
26.5
 30
0.0
 11
159.25
 21
26.5
 31
0.0
  0
CIRCLE
  5
413
  8
0
 10
253.0
 20
81.5
 30
0.0000000000000004
 40
1.5
  0
CIRCLE
  5
414
  8
0
 10
253.0
 20
67.5
 30
0.0000000000000004
 40
1.5
  0
LINE
  5
415
  8
0
 10
159.25
 20
26.5
 30
0.0
 11
159.25
 21
24.5
 31
0.0
  0
LINE
  5
416
  8
0
 10
171.75
 20
26.5
 30
0.0
 11
171.75
 21
24.5
 31
0.0
  0
LINE
  5
417
  8
0
 10
171.75
 20
122.5
 30
0.0
 11
159.25
 21
122.5
 31
0.0
  0
LINE
  5
418
  8
0
 10
159.25
 20
122.5
 30
0.0
 11
159.25
 21
124.5
 31
0.0
  0
LINE
  5
419
  8
0
 10
171.75
 20
122.5
 30
0.0
 11
171.75
 21
124.5
 31
0.0
  0
LINE
  5
41A
  8
0
 10
171.75
 20
24.5
 30
0.0
 11
220.0
 21
24.5
 31
0.0
  0
LINE
  5
41B
  8
0
 10
171.75
 20
124.5
 30
0.0
 11
220.0
 21
124.5
 31
0.0
  0
LINE
  5
41C
  8
0
 10
96.75
 20
124.5
 30
0.0
 11
109.0
 21
124.5
 31
0.0
  0
LINE
  5
41D
  8
0
 10
244.75855236993851
 20
112.7320604790838
 30
0.0000000000000001
 11
232.54449726640189
 21
139.03447211618979
 31
-0.0000000000000001
  0
LINE
  5
41E
  8
0
 10
241.13063352344111
 20
111.0473632234235
 30
0.0000000000000001
 11
228.91657841990451
 21
137.34977486052949
 31
-0.0000000000000001
  0
LINE
  5
41F
  8
0
 10
243.78694157452
 20
110.075752428005
 30
0.0
 11
243.78694157452
 21
110.075752428005
 31
0.0
  0
ARC
  5
420
  8
0
 10
242.9445929466898
 20
111.88971185125369
 30
-0.0000000000000047
 40
2.0
 50
204.90874905516031
 51
294.90874905516068
  0
ARC
  5
421
  8
0
 10
242.9445929466898
 20
111.88971185125369
 30
-0.0000000000000063
 40
2.0
 50
294.90874905516068
 51
24.908749055160911
  0
LINE
  5
422
  8
0
 10
229.88818921532311
 20
140.00608291160839
 30
0.0
 11
229.88818921532319
 21
140.00608291160839
 31
0.0
  0
ARC
  5
423
  8
0
 10
230.7305378431532
 20
138.1921234883597
 30
0.0000000000000025
 40
2.0
 50
114.9087490551607
 51
204.90874905516031
  0
ARC
  5
424
  8
0
 10
230.7305378431532
 20
138.1921234883597
 30
0.0000000000000023
 40
2.0
 50
24.908749055160911
 51
114.9087490551607
  0
LINE
  5
425
  8
0
 10
244.75855236993851
 20
36.267939520916222
 30
0.0000000000000001
 11
232.54449726640189
 21
9.9655278838101822
 31
-0.0000000000000001
  0
LINE
  5
426
  8
0
 10
241.13063352344111
 20
37.952636776576441
 30
0.0000000000000001
 11
228.91657841990451
 21
11.65022513947042
 31
-0.0000000000000001
  0
LINE
  5
427
  8
0
 10
243.78694157452
 20
38.924247571994997
 30
0.0
 11
243.78694157452
 21
38.924247571995011
 31
0.0
  0
ARC
  5
428
  8
0
 10
242.9445929466898
 20
37.110288148746321
 30
-0.0000000000000047
 40
2.0
 50
65.091250944839302
 51
155.09125094483889
  0
ARC
  5
429
  8
0
 10
242.9445929466898
 20
37.110288148746321
 30
-0.0000000000000063
 40
2.0
 50
335.09125094483892
 51
65.091250944839302
  0
LINE
  5
42A
  8
0
 10
229.88818921532311
 20
8.9939170883915835
 30
0.0
 11
229.88818921532319
 21
8.9939170883915835
 31
0.0
  0
ARC
  5
42B
  8
0
 10
230.7305378431532
 20
10.8078765116403
 30
0.0000000000000025
 40
2.0
 50
155.09125094483889
 51
245.09125094483929
  0
ARC
  5
42C
  8
0
 10
230.7305378431532
 20
10.80787651164027
 30
0.0000000000000023
 40
2.0
 50
245.09125094483929
 51
335.09125094483892
  0
LINE
  5
438
  8
0
  6
ACAD_ISO04W100
 10
128.0
 20
159.0
 30
0.0
 11
128.0
 21
-10.0
 31
0.0
  0
LINE
  5
439
  8
0
 10
60.25
 20
99.750000000000014
 30
0.0
 11
60.25
 21
93.250000000000014
 31
0.0
  0
LINE
  5
43B
  8
0
 10
80.25
 20
99.750000000000014
 30
0.0
 11
80.25
 21
93.250000000000014
 31
0.0
  0
LINE
  5
43D
  8
0
 10
67.25
 20
103.5
 30
0.0
 11
73.25
 21
103.5
 31
0.0
  0
LINE
  5
43E
  8
0
 10
67.25
 20
89.500000000000014
 30
0.0
 11
73.25
 21
89.500000000000014
 31
0.0
  0
LINE
  5
441
  8
0
 10
67.25
 20
103.5
 30
0.0
 11
67.25
 21
99.750000000000014
 31
0.0
  0
LINE
  5
442
  8
0
 10
73.25
 20
103.5
 30
0.0
 11
73.25
 21
99.750000000000014
 31
0.0
  0
LINE
  5
443
  8
0
 10
60.25
 20
99.750000000000014
 30
0.0
 11
67.25
 21
99.750000000000014
 31
0.0
  0
LINE
  5
444
  8
0
 10
60.25
 20
93.250000000000014
 30
0.0
 11
67.25
 21
93.250000000000014
 31
0.0
  0
LINE
  5
445
  8
0
 10
188.75
 20
105.25
 30
0.0
 11
182.75
 21
105.25
 31
0.0
  0
LINE
  5
446
  8
0
 10
188.75
 20
87.75
 30
0.0
 11
182.75
 21
87.75
 31
0.0
  0
LINE
  5
447
  8
0
 10
195.75
 20
99.750000000000014
 30
0.0
 11
195.75
 21
93.250000000000014
 31
0.0
  0
LINE
  5
448
  8
0
 10
175.75
 20
99.750000000000014
 30
0.0
 11
175.75
 21
93.250000000000014
 31
0.0
  0
LINE
  5
449
  8
0
 10
195.75
 20
93.250000000000014
 30
0.0
 11
188.75
 21
93.250000000000014
 31
0.0
  0
LINE
  5
44A
  8
0
 10
195.75
 20
99.750000000000014
 30
0.0
 11
188.75
 21
99.750000000000014
 31
0.0
  0
LINE
  5
44B
  8
0
 10
182.75
 20
105.25
 30
0.0
 11
182.75
 21
99.750000000000014
 31
0.0
  0
LINE
  5
44C
  8
0
 10
188.75
 20
105.25
 30
0.0
 11
188.75
 21
99.750000000000014
 31
0.0
  0
LINE
  5
452
  8
0
 10
73.25
 20
93.250000000000014
 30
0.0
 11
73.25
 21
89.500000000000014
 31
0.0
  0
LINE
  5
453
  8
0
 10
67.25
 20
93.250000000000014
 30
0.0
 11
67.25
 21
89.500000000000014
 31
0.0
  0
LINE
  5
454
  8
0
 10
73.25
 20
99.750000000000014
 30
0.0
 11
80.25
 21
99.750000000000014
 31
0.0
  0
LINE
  5
455
  8
0
 10
73.25
 20
93.250000000000014
 30
0.0
 11
80.25
 21
93.250000000000014
 31
0.0
  0
LINE
  5
456
  8
0
 10
188.75
 20
93.250000000000014
 30
0.0
 11
188.75
 21
87.75
 31
0.0
  0
LINE
  5
457
  8
0
 10
182.75
 20
93.250000000000014
 30
0.0
 11
182.75
 21
87.75
 31
0.0
  0
LINE
  5
458
  8
0
 10
182.75
 20
99.750000000000014
 30
0.0
 11
175.75
 21
99.750000000000014
 31
0.0
  0
LINE
  5
459
  8
0
 10
182.75
 20
93.250000000000014
 30
0.0
 11
175.75
 21
93.250000000000014
 31
0.0
  0
LINE
  5
45A
  8
0
 10
67.25
 20
45.499999999999993
 30
0.0
 11
73.25
 21
45.499999999999993
 31
0.0
  0
LINE
  5
45B
  8
0
 10
67.25
 20
59.5
 30
0.0
 11
73.25
 21
59.5
 31
0.0
  0
LINE
  5
45C
  8
0
 10
60.25
 20
49.25
 30
0.0
 11
60.25
 21
55.75
 31
0.0
  0
LINE
  5
45D
  8
0
 10
80.25
 20
49.25
 30
0.0
 11
80.25
 21
55.75
 31
0.0
  0
LINE
  5
45E
  8
0
 10
60.25
 20
55.75
 30
0.0
 11
67.25
 21
55.75
 31
0.0
  0
LINE
  5
45F
  8
0
 10
73.25
 20
55.75
 30
0.0
 11
80.25
 21
55.75
 31
0.0
  0
LINE
  5
460
  8
0
 10
60.25
 20
49.25
 30
0.0
 11
67.25
 21
49.25
 31
0.0
  0
LINE
  5
461
  8
0
 10
73.25
 20
49.25
 30
0.0
 11
80.25
 21
49.25
 31
0.0
  0
LINE
  5
462
  8
0
 10
73.25
 20
45.499999999999993
 30
0.0
 11
73.25
 21
49.25
 31
0.0
  0
LINE
  5
463
  8
0
 10
73.25
 20
55.75
 30
0.0
 11
73.25
 21
59.5
 31
0.0
  0
LINE
  5
464
  8
0
 10
67.25
 20
45.499999999999993
 30
0.0
 11
67.25
 21
49.25
 31
0.0
  0
LINE
  5
465
  8
0
 10
67.25
 20
55.75
 30
0.0
 11
67.25
 21
59.5
 31
0.0
  0
LINE
  5
466
  8
0
 10
188.75
 20
43.75
 30
0.0
 11
182.75
 21
43.75
 31
0.0
  0
LINE
  5
467
  8
0
 10
188.75
 20
61.25
 30
0.0
 11
182.75
 21
61.25
 31
0.0
  0
LINE
  5
468
  8
0
 10
195.75
 20
49.25
 30
0.0
 11
195.75
 21
55.75
 31
0.0
  0
LINE
  5
469
  8
0
 10
175.75
 20
49.25
 30
0.0
 11
175.75
 21
55.75
 31
0.0
  0
LINE
  5
46A
  8
0
 10
195.75
 20
55.75
 30
0.0
 11
188.75
 21
55.75
 31
0.0
  0
LINE
  5
46B
  8
0
 10
182.75
 20
55.75
 30
0.0
 11
175.75
 21
55.75
 31
0.0
  0
LINE
  5
46C
  8
0
 10
195.75
 20
49.25
 30
0.0
 11
188.75
 21
49.25
 31
0.0
  0
LINE
  5
46D
  8
0
 10
182.75
 20
49.25
 30
0.0
 11
175.75
 21
49.25
 31
0.0
  0
LINE
  5
46E
  8
0
 10
182.75
 20
43.75
 30
0.0
 11
182.75
 21
49.25
 31
0.0
  0
LINE
  5
46F
  8
0
 10
182.75
 20
55.75
 30
0.0
 11
182.75
 21
61.25
 31
0.0
  0
LINE
  5
470
  8
0
 10
188.75
 20
43.75
 30
0.0
 11
188.75
 21
49.25
 31
0.0
  0
LINE
  5
471
  8
0
 10
188.75
 20
55.75
 30
0.0
 11
188.75
 21
61.25
 31
0.0
  0
CIRCLE
  5
48B
  8
0
 10
29.0
 20
124.5
 30
0.0
 40
1.5
  0
CIRCLE
  5
48E
  8
0
 10
227.0
 20
124.5
 30
0.0
 40
1.5
  0
CIRCLE
  5
48F
  8
0
 10
29.0
 20
24.5
 30
0.0
 40
1.5
  0
ARC
  5
490
  8
0
 10
128.0
 20
19.5
 30
0.0
 40
1.5
 50
224.42023926910321
 51
315.57976073089702
  0
CIRCLE
  5
491
  8
0
 10
227.0
 20
24.5
 30
0.0
 40
1.5
  0
CIRCLE
  5
493
  8
0
 10
227.0
 20
74.5
 30
0.0
 40
1.5
  0
CIRCLE
  5
494
  8
0
 10
183.0
 20
74.5
 30
0.0
 40
1.5
  0
LINE
  5
496
  8
0
 10
121.0
 20
119.5
 30
0.0
 11
135.0
 21
119.5
 31
0.0
  0
LINE
  5
497
  8
0
 10
135.0
 20
119.5
 30
0.0
 11
135.0
 21
124.5
 31
0.0
  0
LINE
  5
498
  8
0
 10
121.0
 20
119.5
 30
0.0
 11
121.0
 21
124.5
 31
0.0
  0
LINE
  5
49A
  8
0
 10
121.0
 20
29.5
 30
0.0
 11
135.0
 21
29.5
 31
0.0
  0
LINE
  5
49B
  8
0
 10
135.0
 20
29.5
 30
0.0
 11
135.0
 21
24.5
 31
0.0
  0
LINE
  5
49C
  8
0
 10
121.0
 20
29.5
 30
0.0
 11
121.0
 21
24.5
 31
0.0
  0
CIRCLE
  5
49D
  8
0
 10
29.0
 20
74.5
 30
0.0
 40
1.5
  0
CIRCLE
  5
49E
  8
0
 10
73.0
 20
74.5
 30
0.0
 40
1.5
  0
LINE
  5
4B2
  8
0
 10
121.0
 20
24.5
 30
0.0
 11
126.92866177300181
 21
18.450126482202549
 31
0.0
  0
LINE
  5
4B3
  8
0
 10
135.0
 20
24.5
 30
0.0
 11
129.07133822699819
 21
18.450126482202549
 31
0.0
  0
ARC
  5
4B4
  8
0
 10
128.0
 20
129.5
 30
0.0
 40
1.5
 50
44.420239269102652
 51
135.57976073089719
  0
LINE
  5
4B5
  8
0
 10
121.0
 20
124.5
 30
0.0
 11
126.92866177300181
 21
130.54987351779741
 31
0.0
  0
LINE
  5
4B6
  8
0
 10
135.0
 20
124.5
 30
0.0
 11
129.07133822699819
 21
130.54987351779741
 31
0.0
  0
LINE
  5
546
  8
0
 10
84.25
 20
49.0
 30
0.0
 11
96.75
 21
49.0
 31
0.0
  0
LINE
  5
547
  8
0
 10
84.25
 20
45.600000000000001
 30
0.0
 11
96.75
 21
45.600000000000001
 31
0.0
  0
LINE
  5
548
  8
0
 10
84.25
 20
49.0
 30
0.0
 11
84.25
 21
45.600000000000001
 31
0.0
  0
LINE
  5
549
  8
0
 10
96.75
 20
49.0
 30
0.0
 11
96.75
 21
45.600000000000001
 31
0.0
  0
LINE
  5
54A
  8
0
 10
171.75
 20
49.0
 30
0.0
 11
159.25
 21
49.0
 31
0.0
  0
LINE
  5
54B
  8
0
 10
171.75
 20
45.600000000000001
 30
0.0
 11
159.25
 21
45.600000000000001
 31
0.0
  0
LINE
  5
54C
  8
0
 10
171.75
 20
49.0
 30
0.0
 11
171.75
 21
45.600000000000001
 31
0.0
  0
LINE
  5
54D
  8
0
 10
159.25
 20
49.0
 30
0.0
 11
159.25
 21
45.600000000000001
 31
0.0
  0
LINE
  5
54E
  8
0
 10
84.25
 20
100.0
 30
0.0
 11
96.75
 21
100.0
 31
0.0
  0
LINE
  5
54F
  8
0
 10
84.25
 20
103.40000000000001
 30
0.0
 11
96.75
 21
103.40000000000001
 31
0.0
  0
LINE
  5
550
  8
0
 10
84.25
 20
100.0
 30
0.0
 11
84.25
 21
103.40000000000001
 31
0.0
  0
LINE
  5
551
  8
0
 10
96.75
 20
100.0
 30
0.0
 11
96.75
 21
103.40000000000001
 31
0.0
  0
LINE
  5
552
  8
0
 10
171.75
 20
100.0
 30
0.0
 11
159.25
 21
100.0
 31
0.0
  0
LINE
  5
553
  8
0
 10
171.75
 20
103.40000000000001
 30
0.0
 11
159.25
 21
103.40000000000001
 31
0.0
  0
LINE
  5
554
  8
0
 10
171.75
 20
100.0
 30
0.0
 11
171.75
 21
103.40000000000001
 31
0.0
  0
LINE
  5
555
  8
0
 10
159.25
 20
100.0
 30
0.0
 11
159.25
 21
103.40000000000001
 31
0.0
  0
LINE
  5
5DE
  8
0
 10
81.5
 20
0.0
 30
0.0
 11
85.0
 21
0.0
 31
0.0
  0
LINE
  5
5DF
  8
0
 10
86.0
 20
1.0
 30
0.0
 11
86.0
 21
14.199999999999999
 31
0.0
  0
LINE
  5
5E0
  8
0
 10
85.0
 20
15.199999999999999
 30
0.0
 11
81.5
 21
15.199999999999999
 31
0.0
  0
LINE
  5
5E1
  8
0
 10
54.0
 20
12.0
 30
0.0
 11
54.0
 21
3.1999999999999988
 31
0.0
  0
LINE
  5
5E2
  8
0
  6
ACAD_ISO04W100
 10
51.053657854079113
 20
7.5999999999999988
 30
0.0
 11
88.914631814498975
 21
7.5999999999999988
 31
0.0
  0
LINE
  5
5E3
  8
0
  6
ACAD_ISO04W100
 10
55.0
 20
13.0
 30
0.0
 11
81.5
 21
13.0
 31
0.0
  0
LINE
  5
5E4
  8
0
  6
ACAD_ISO04W100
 10
55.0
 20
2.1999999999999988
 30
0.0
 11
81.5
 21
2.1999999999999988
 31
0.0
  0
LINE
  5
5E5
  8
0
 10
81.5
 20
0.0
 30
0.0
 11
81.5
 21
2.1999999999999988
 31
0.0
  0
LINE
  5
5E6
  8
0
 10
81.5
 20
13.0
 30
0.0
 11
81.5
 21
15.199999999999999
 31
0.0
  0
ARC
  5
5E7
  8
0
 10
85.0
 20
14.199999999999999
 30
0.0
 40
1.0
 50
0.0
 51
90.0
  0
ARC
  5
5E8
  8
0
 10
85.0
 20
1.0
 30
0.0
 40
1.0
 50
270.0
 51
0.0
  0
ARC
  5
5E9
  8
0
 10
55.0
 20
12.0
 30
0.0
 40
1.0
 50
90.0
 51
180.0
  0
ARC
  5
5EA
  8
0
 10
55.0
 20
3.1999999999999988
 30
0.0
 40
1.0
 50
180.0
 51
270.0
  0
LINE
  5
5EB
  8
0
  6
ACAD_ISO04W100
 10
58.049999999999997
 20
9.2599999999999998
 30
0.0
 11
59.950000000000003
 21
9.2599999999999998
 31
0.0
  0
LINE
  5
5EC
  8
0
  6
ACAD_ISO04W100
 10
58.049999999999997
 20
5.9399999999999986
 30
0.0
 11
59.950000000000003
 21
5.9399999999999986
 31
0.0
  0
LINE
  5
5ED
  8
0
 10
78.799999999999983
 20
7.5399999999999991
 30
0.0
 11
78.799999999999983
 21
7.660000000000001
 31
0.0
  0
LINE
  5
5EE
  8
0
 10
70.599999999999994
 20
7.5399999999999991
 30
0.0
 11
70.599999999999994
 21
7.6599999999999993
 31
0.0
  0
LINE
  5
5EF
  8
0
 10
56.450000000000003
 20
7.6600000000000001
 30
0.0
 11
56.450000000000003
 21
7.5399999999999991
 31
0.0
  0
LINE
  5
5F0
  8
0
 10
61.550000000000011
 20
7.6600000000000001
 30
0.0
 11
61.550000000000011
 21
7.5399999999999991
 31
0.0
  0
ARC
  5
5F1
  8
0
 10
77.199999999999974
 20
7.660000000000001
 30
0.0
 40
1.6000000000000001
 50
0.0
 51
90.0
  0
ARC
  5
5F2
  8
0
 10
77.199999999999974
 20
7.5399999999999991
 30
0.0
 40
1.6000000000000001
 50
270.0
 51
0.0
  0
ARC
  5
5F3
  8
0
 10
58.049999999999997
 20
7.6600000000000001
 30
0.0
 40
1.6000000000000001
 50
90.0
 51
180.0
  0
ARC
  5
5F4
  8
0
 10
58.049999999999997
 20
7.5399999999999991
 30
0.0
 40
1.6000000000000001
 50
180.0
 51
270.0
  0
LINE
  5
5F5
  8
0
  6
ACAD_ISO04W100
 10
72.199999999999974
 20
9.259999999999998
 30
0.0
 11
77.199999999999974
 21
9.2599999999999998
 31
0.0
  0
LINE
  5
5F6
  8
0
  6
ACAD_ISO04W100
 10
72.199999999999974
 20
5.9399999999999977
 30
0.0
 11
77.199999999999974
 21
5.9399999999999986
 31
0.0
  0
ARC
  5
5F7
  8
0
 10
59.950000000000003
 20
7.6600000000000001
 30
0.0
 40
1.6000000000000001
 50
0.0
 51
90.0
  0
ARC
  5
5F8
  8
0
 10
59.950000000000003
 20
7.5399999999999991
 30
0.0
 40
1.6000000000000001
 50
270.0
 51
0.0
  0
ARC
  5
5F9
  8
0
 10
72.199999999999974
 20
7.6599999999999993
 30
0.0
 40
1.6000000000000001
 50
90.0
 51
180.0
  0
ARC
  5
5FA
  8
0
 10
72.199999999999974
 20
7.5399999999999991
 30
0.0
 40
1.6000000000000001
 50
180.0
 51
270.0
  0
LINE
  5
5FC
  8
0
 10
174.5
 20
0.0
 30
0.0
 11
171.0
 21
0.0
 31
0.0
  0
ARC
  5
5FD
  8
0
 10
171.0
 20
1.0
 30
0.0
 40
1.0
 50
180.0
 51
270.0
  0
LINE
  5
5FE
  8
0
 10
170.0
 20
1.0
 30
0.0
 11
170.0
 21
14.199999999999999
 31
0.0
  0
ARC
  5
5FF
  8
0
 10
171.0
 20
14.199999999999999
 30
0.0
 40
1.0
 50
90.0
 51
180.0
  0
LINE
  5
600
  8
0
 10
174.5
 20
0.0
 30
0.0
 11
174.5
 21
2.1999999999999988
 31
0.0
  0
LINE
  5
601
  8
0
 10
174.5
 20
13.0
 30
0.0
 11
174.5
 21
15.199999999999999
 31
0.0
  0
LINE
  5
602
  8
0
 10
171.0
 20
15.199999999999999
 30
0.0
 11
174.5
 21
15.199999999999999
 31
0.0
  0
LINE
  5
603
  8
0
 10
202.0
 20
12.0
 30
0.0
 11
202.0
 21
3.1999999999999988
 31
0.0
  0
LINE
  5
604
  8
0
  6
ACAD_ISO04W100
 10
204.94634214592091
 20
7.5999999999999988
 30
0.0
 11
167.08536818550101
 21
7.5999999999999988
 31
0.0
  0
LINE
  5
605
  8
0
  6
ACAD_ISO04W100
 10
197.94999999999999
 20
5.9399999999999986
 30
0.0
 11
196.05000000000001
 21
5.9399999999999986
 31
0.0
  0
LINE
  5
606
  8
0
  6
ACAD_ISO04W100
 10
183.80000000000001
 20
5.9399999999999977
 30
0.0
 11
178.80000000000001
 21
5.9399999999999986
 31
0.0
  0
ARC
  5
607
  8
0
 10
183.80000000000001
 20
7.5399999999999991
 30
0.0
 40
1.6000000000000001
 50
270.0
 51
0.000000000000007
  0
ARC
  5
608
  8
0
 10
197.94999999999999
 20
7.5399999999999991
 30
0.0
 40
1.6000000000000001
 50
270.0
 51
0.000000000000007
  0
LINE
  5
609
  8
0
  6
ACAD_ISO04W100
 10
197.94999999999999
 20
9.2599999999999998
 30
0.0
 11
196.05000000000001
 21
9.2599999999999998
 31
0.0
  0
LINE
  5
60A
  8
0
  6
ACAD_ISO04W100
 10
183.80000000000001
 20
9.259999999999998
 30
0.0
 11
178.80000000000001
 21
9.2599999999999998
 31
0.0
  0
ARC
  5
60B
  8
0
 10
197.94999999999999
 20
7.6600000000000001
 30
0.0
 40
1.6000000000000001
 50
0.000000000000007
 51
90.0
  0
LINE
  5
60C
  8
0
  6
ACAD_ISO04W100
 10
201.0
 20
2.1999999999999988
 30
0.0
 11
174.5
 21
2.1999999999999988
 31
0.0
  0
ARC
  5
60D
  8
0
 10
201.0
 20
3.1999999999999988
 30
0.0
 40
1.0
 50
270.0
 51
0.000000000000007
  0
LINE
  5
60E
  8
0
  6
ACAD_ISO04W100
 10
201.0
 20
13.0
 30
0.0
 11
174.5
 21
13.0
 31
0.0
  0
ARC
  5
60F
  8
0
 10
201.0
 20
12.0
 30
0.0
 40
1.0
 50
0.000000000000007
 51
90.0
  0
LINE
  5
610
  8
0
 10
177.19999999999999
 20
7.5399999999999991
 30
0.0
 11
177.19999999999999
 21
7.660000000000001
 31
0.0
  0
ARC
  5
611
  8
0
 10
178.80000000000001
 20
7.5399999999999991
 30
0.0
 40
1.6000000000000001
 50
180.0
 51
270.0
  0
ARC
  5
612
  8
0
 10
178.80000000000001
 20
7.660000000000001
 30
0.0
 40
1.6000000000000001
 50
90.0
 51
180.0
  0
LINE
  5
613
  8
0
 10
185.40000000000001
 20
7.5399999999999991
 30
0.0
 11
185.40000000000001
 21
7.6599999999999993
 31
0.0
  0
ARC
  5
614
  8
0
 10
183.80000000000001
 20
7.6599999999999993
 30
0.0
 40
1.6000000000000001
 50
0.000000000000007
 51
90.0
  0
LINE
  5
615
  8
0
 10
199.55000000000001
 20
7.6600000000000001
 30
0.0
 11
199.55000000000001
 21
7.5399999999999991
 31
0.0
  0
LINE
  5
616
  8
0
 10
194.44999999999999
 20
7.6600000000000001
 30
0.0
 11
194.44999999999999
 21
7.5399999999999991
 31
0.0
  0
ARC
  5
617
  8
0
 10
196.05000000000001
 20
7.5399999999999991
 30
0.0
 40
1.6000000000000001
 50
180.0
 51
270.0
  0
ARC
  5
618
  8
0
 10
196.05000000000001
 20
7.6600000000000001
 30
0.0
 40
1.6000000000000001
 50
90.0
 51
180.0
  0
LINE
  5
619
  8
0
 10
81.5
 20
149.0
 30
0.0
 11
85.0
 21
149.0
 31
0.0
  0
ARC
  5
61A
  8
0
 10
85.0
 20
148.0
 30
0.0
 40
1.0
 50
0.0
 51
90.000000000000028
  0
LINE
  5
61B
  8
0
 10
86.0
 20
148.0
 30
0.0
 11
86.0
 21
134.80000000000001
 31
0.0
  0
ARC
  5
61C
  8
0
 10
85.0
 20
134.80000000000001
 30
0.0
 40
1.0
 50
270.0
 51
0.0
  0
LINE
  5
61D
  8
0
 10
81.5
 20
149.0
 30
0.0
 11
81.5
 21
146.80000000000001
 31
0.0
  0
LINE
  5
61E
  8
0
 10
81.5
 20
136.0
 30
0.0
 11
81.5
 21
133.80000000000001
 31
0.0
  0
LINE
  5
61F
  8
0
 10
85.0
 20
133.80000000000001
 30
0.0
 11
81.5
 21
133.80000000000001
 31
0.0
  0
LINE
  5
620
  8
0
 10
54.0
 20
137.0
 30
0.0
 11
54.0
 21
145.80000000000001
 31
0.0
  0
LINE
  5
621
  8
0
  6
ACAD_ISO04W100
 10
51.053657854079113
 20
141.40000000000001
 30
0.0
 11
88.914631814498975
 21
141.40000000000001
 31
0.0
  0
LINE
  5
622
  8
0
  6
ACAD_ISO04W100
 10
58.049999999999997
 20
143.06
 30
0.0
 11
59.950000000000003
 21
143.06
 31
0.0
  0
LINE
  5
623
  8
0
  6
ACAD_ISO04W100
 10
72.199999999999974
 20
143.06
 30
0.0
 11
77.199999999999974
 21
143.06
 31
0.0
  0
ARC
  5
624
  8
0
 10
72.199999999999974
 20
141.46000000000001
 30
0.0
 40
1.6000000000000001
 50
90.000000000000028
 51
180.0
  0
ARC
  5
625
  8
0
 10
58.049999999999997
 20
141.46000000000001
 30
0.0
 40
1.6000000000000001
 50
90.000000000000028
 51
180.0
  0
LINE
  5
626
  8
0
  6
ACAD_ISO04W100
 10
58.049999999999997
 20
139.74000000000001
 30
0.0
 11
59.950000000000003
 21
139.74000000000001
 31
0.0
  0
LINE
  5
627
  8
0
  6
ACAD_ISO04W100
 10
72.199999999999974
 20
139.74000000000001
 30
0.0
 11
77.199999999999974
 21
139.74000000000001
 31
0.0
  0
ARC
  5
628
  8
0
 10
58.049999999999997
 20
141.34
 30
0.0
 40
1.6000000000000001
 50
180.0
 51
270.0
  0
LINE
  5
629
  8
0
  6
ACAD_ISO04W100
 10
55.0
 20
146.80000000000001
 30
0.0
 11
81.5
 21
146.80000000000001
 31
0.0
  0
ARC
  5
62A
  8
0
 10
55.0
 20
145.80000000000001
 30
0.0
 40
1.0
 50
90.000000000000028
 51
180.0
  0
LINE
  5
62B
  8
0
  6
ACAD_ISO04W100
 10
55.0
 20
136.0
 30
0.0
 11
81.5
 21
136.0
 31
0.0
  0
ARC
  5
62C
  8
0
 10
55.0
 20
137.0
 30
0.0
 40
1.0
 50
180.0
 51
270.0
  0
LINE
  5
62D
  8
0
 10
78.799999999999983
 20
141.46000000000001
 30
0.0
 11
78.799999999999983
 21
141.34
 31
0.0
  0
ARC
  5
62E
  8
0
 10
77.199999999999974
 20
141.46000000000001
 30
0.0
 40
1.6000000000000001
 50
0.0
 51
90.000000000000028
  0
ARC
  5
62F
  8
0
 10
77.199999999999974
 20
141.34
 30
0.0
 40
1.6000000000000001
 50
270.0
 51
0.0
  0
LINE
  5
630
  8
0
 10
70.599999999999994
 20
141.46000000000001
 30
0.0
 11
70.599999999999994
 21
141.34
 31
0.0
  0
ARC
  5
631
  8
0
 10
72.199999999999974
 20
141.34
 30
0.0
 40
1.6000000000000001
 50
180.0
 51
270.0
  0
LINE
  5
632
  8
0
 10
56.450000000000003
 20
141.34
 30
0.0
 11
56.450000000000003
 21
141.46000000000001
 31
0.0
  0
LINE
  5
633
  8
0
 10
61.550000000000011
 20
141.34
 30
0.0
 11
61.550000000000011
 21
141.46000000000001
 31
0.0
  0
ARC
  5
634
  8
0
 10
59.950000000000003
 20
141.46000000000001
 30
0.0
 40
1.6000000000000001
 50
0.0
 51
90.000000000000028
  0
ARC
  5
635
  8
0
 10
59.950000000000003
 20
141.34
 30
0.0
 40
1.6000000000000001
 50
270.0
 51
0.0
  0
LINE
  5
636
  8
0
 10
174.5
 20
149.0
 30
0.0
 11
171.0
 21
149.0
 31
0.0
  0
ARC
  5
637
  8
0
 10
171.0
 20
148.0
 30
0.0
 40
1.0
 50
90.000000000000028
 51
180.0
  0
LINE
  5
638
  8
0
 10
170.0
 20
148.0
 30
0.0
 11
170.0
 21
134.80000000000001
 31
0.0
  0
ARC
  5
639
  8
0
 10
171.0
 20
134.80000000000001
 30
0.0
 40
1.0
 50
180.0
 51
270.0
  0
LINE
  5
63A
  8
0
 10
174.5
 20
149.0
 30
0.0
 11
174.5
 21
146.80000000000001
 31
0.0
  0
LINE
  5
63B
  8
0
 10
174.5
 20
136.0
 30
0.0
 11
174.5
 21
133.80000000000001
 31
0.0
  0
LINE
  5
63C
  8
0
 10
171.0
 20
133.80000000000001
 30
0.0
 11
174.5
 21
133.80000000000001
 31
0.0
  0
LINE
  5
63D
  8
0
 10
202.0
 20
137.0
 30
0.0
 11
202.0
 21
145.80000000000001
 31
0.0
  0
LINE
  5
63E
  8
0
  6
ACAD_ISO04W100
 10
204.94634214592091
 20
141.40000000000001
 30
0.0
 11
167.08536818550101
 21
141.40000000000001
 31
0.0
  0
LINE
  5
63F
  8
0
  6
ACAD_ISO04W100
 10
197.94999999999999
 20
143.06
 30
0.0
 11
196.05000000000001
 21
143.06
 31
0.0
  0
LINE
  5
640
  8
0
  6
ACAD_ISO04W100
 10
183.80000000000001
 20
143.06
 30
0.0
 11
178.80000000000001
 21
143.06
 31
0.0
  0
ARC
  5
641
  8
0
 10
183.80000000000001
 20
141.46000000000001
 30
0.0
 40
1.6000000000000001
 50
0.0
 51
90.000000000000028
  0
ARC
  5
642
  8
0
 10
197.94999999999999
 20
141.46000000000001
 30
0.0
 40
1.6000000000000001
 50
0.0
 51
90.000000000000028
  0
LINE
  5
643
  8
0
  6
ACAD_ISO04W100
 10
197.94999999999999
 20
139.74000000000001
 30
0.0
 11
196.05000000000001
 21
139.74000000000001
 31
0.0
  0
LINE
  5
644
  8
0
  6
ACAD_ISO04W100
 10
183.80000000000001
 20
139.74000000000001
 30
0.0
 11
178.80000000000001
 21
139.74000000000001
 31
0.0
  0
ARC
  5
645
  8
0
 10
197.94999999999999
 20
141.34
 30
0.0
 40
1.6000000000000001
 50
270.0
 51
0.0
  0
LINE
  5
646
  8
0
  6
ACAD_ISO04W100
 10
201.0
 20
146.80000000000001
 30
0.0
 11
174.5
 21
146.80000000000001
 31
0.0
  0
ARC
  5
647
  8
0
 10
201.0
 20
145.80000000000001
 30
0.0
 40
1.0
 50
0.0
 51
90.000000000000028
  0
LINE
  5
648
  8
0
  6
ACAD_ISO04W100
 10
201.0
 20
136.0
 30
0.0
 11
174.5
 21
136.0
 31
0.0
  0
ARC
  5
649
  8
0
 10
201.0
 20
137.0
 30
0.0
 40
1.0
 50
270.0
 51
0.0
  0
LINE
  5
64A
  8
0
 10
177.19999999999999
 20
141.46000000000001
 30
0.0
 11
177.19999999999999
 21
141.34
 31
0.0
  0
ARC
  5
64B
  8
0
 10
178.80000000000001
 20
141.46000000000001
 30
0.0
 40
1.6000000000000001
 50
90.000000000000028
 51
180.0
  0
ARC
  5
64C
  8
0
 10
178.80000000000001
 20
141.34
 30
0.0
 40
1.6000000000000001
 50
180.0
 51
270.0
  0
LINE
  5
64D
  8
0
 10
185.40000000000001
 20
141.46000000000001
 30
0.0
 11
185.40000000000001
 21
141.34
 31
0.0
  0
ARC
  5
64E
  8
0
 10
183.80000000000001
 20
141.34
 30
0.0
 40
1.6000000000000001
 50
270.0
 51
0.0
  0
LINE
  5
64F
  8
0
 10
199.55000000000001
 20
141.34
 30
0.0
 11
199.55000000000001
 21
141.46000000000001
 31
0.0
  0
LINE
  5
650
  8
0
 10
194.44999999999999
 20
141.34
 30
0.0
 11
194.44999999999999
 21
141.46000000000001
 31
0.0
  0
ARC
  5
651
  8
0
 10
196.05000000000001
 20
141.46000000000001
 30
0.0
 40
1.6000000000000001
 50
90.000000000000028
 51
180.0
  0
ARC
  5
652
  8
0
 10
196.05000000000001
 20
141.34
 30
0.0
 40
1.6000000000000001
 50
180.0
 51
270.0
  0
DIMENSION
  5
653
  8
DIM
  2
*D12
 10
86.0
 20
157.68100398735459
 30
0.0
 11
70.0
 21
159.58328911695901
 31
0.0
 70
     0
 13
53.999999999999993
 23
146.80000000000001
 33
0.0
 14
86.0
 24
146.80000000000001
 34
0.0
  0
DIMENSION
  5
66B
  8
DIM
  2
*D13
 10
81.5
 20
152.74189546107479
 30
0.0
 11
67.75
 21
154.8692829099152
 31
0.0
 70
     0
 13
53.999999999999993
 23
146.80000000000001
 33
0.0
 14
81.5
 24
146.80000000000001
 34
0.0
  0
DIMENSION
  5
683
  8
DIM
  2
*D14
 10
48.431383099205959
 20
146.80000000000001
 30
0.0
 11
46.30399565036555
 21
141.40000000000001
 31
0.0
 70
     0
 13
54.0
 23
136.0
 33
0.0
 14
53.999999999999993
 24
146.80000000000001
 34
0.0
 50
90.0
  0
DIMENSION
  5
69B
  8
DIM
  2
*D15
 10
94.195222258278363
 20
149.0
 30
0.0
 11
92.067834809437954
 21
141.40000000000001
 31
0.0
 70
     0
 13
86.0
 23
133.80000000000001
 33
0.0
 14
86.0
 24
149.0
 34
0.0
 50
90.0
  0
DIMENSION
  5
6B3
  8
DIM
  2
*D16
 10
67.469139530519669
 20
139.74000000000001
 30
0.0
 11
65.341752081679275
 21
130.8817121418827
 31
0.0
 70
     0
 13
72.199999999999974
 23
143.06
 33
0.0
 14
72.199999999999974
 24
139.74000000000001
 34
0.0
 50
90.0
  0
DIMENSION
  5
6CF
  8
DIM
  2
*D17
 10
56.450000000000003
 20
119.9059704664684
 30
0.0
 11
65.352626193724419
 21
122.0333579153087
 31
0.0
 70
     0
 13
54.0
 23
136.0
 33
0.0
 14
56.450000000000003
 24
136.0
 34
0.0
  0
DIMENSION
  5
718
  8
DIM
  2
*D20
 10
78.799999999999983
 20
119.9059704664684
 30
0.0
 11
74.699999999999974
 21
122.0333579153087
 31
0.0
 70
     0
 13
70.599999999999994
 23
141.34
 33
0.0
 14
78.799999999999983
 24
141.34
 34
0.0
1001
ACAD
1000
DSTYLE
1002
{
1070
   287
1070
     4
1070
   279
1070
     1
1002
}
  0
DIMENSION
  5
730
  8
DIM
  2
*D21
 10
86.0
 20
119.9059704664684
 30
0.0
 11
82.400000000000006
 21
122.0333579153087
 31
0.0
 70
     0
 13
78.799999999999983
 23
141.34
 33
0.0
 14
86.0
 24
141.40000000000001
 34
0.0
1001
ACAD
1000
DSTYLE
1002
{
1070
   287
1070
     4
1070
   279
1070
     1
1002
}
  0
DIMENSION
  5
748
  8
DIM
  2
*D22
 10
61.550000000000011
 20
114.1530341858532
 30
0.0
 11
69.209447476125504
 21
116.2804216346936
 31
0.0
 70
     0
 13
56.450000000000003
 23
136.0
 33
0.0
 14
61.550000000000011
 24
136.0
 34
0.0
  0
POLYLINE
  5
764
  8
RAW
  6
ACAD_ISO02W100
 66
     1
 10
0.0
 20
0.0
 30
0.0
 70
     1
  0
VERTEX
  5
8E8
  8
RAW
  6
ACAD_ISO02W100
 10
0.0
 20
0.0
 30
0.0
  0
VERTEX
  5
8E9
  8
RAW
  6
ACAD_ISO02W100
 10
256.0
 20
0.0
 30
0.0
  0
VERTEX
  5
8EA
  8
RAW
  6
ACAD_ISO02W100
 10
256.0
 20
149.0
 30
0.0
  0
VERTEX
  5
8EB
  8
RAW
  6
ACAD_ISO02W100
 10
0.0
 20
149.0
 30
0.0
  0
SEQEND
  5
8EC
  8
RAW
  6
ACAD_ISO02W100
  0
ENDSEC
  0
EOF
