  0
SECTION
  2
HEADER
  9
$ACADVER
  1
AC1009
  9
$INSBASE
 10
0.0
 20
0.0
 30
0.0
  9
$EXTMIN
 10
1.000000E+20
 20
1.000000E+20
 30
1.000000E+20
  9
$EXTMAX
 10
-1.000000E+20
 20
-1.000000E+20
 30
-1.000000E+20
  9
$LIMMIN
 10
0.0
 20
0.0
  9
$LIMMAX
 10
0.0
 20
0.0
  9
$ORTHOMODE
 70
     0
  9
$REGENMODE
 70
     1
  9
$FILLMODE
 70
     1
  9
$QTEXTMODE
 70
     0
  9
$MIRRTEXT
 70
     1
  9
$DRAGMODE
 70
     2
  9
$LTSCALE
 40
1.0
  9
$OSMODE
 70
     0
  9
$ATTMODE
 70
     1
  9
$TEXTSIZE
 40
0.2
  9
$TRACEWID
 40
0.05
  9
$TEXTSTYLE
  7
STANDARD
  9
$CLAYER
  8
0
  9
$CELTYPE
  6
BYLAYER
  9
$CECOLOR
 62
   256
  9
$DIMSCALE
 40
1.0
  9
$DIMASZ
 40
2.5
  9
$DIMEXO
 40
0.625
  9
$DIMDLI
 40
0.38
  9
$DIMRND
 40
0.0
  9
$DIMDLE
 40
0.0
  9
$DIMEXE
 40
1.25
  9
$DIMTP
 40
0.0
  9
$DIMTM
 40
0.0
  9
$DIMTXT
 40
2.5
  9
$DIMCEN
 40
0.09
  9
$DIMTSZ
 40
0.0
  9
$DIMTOL
 70
     0
  9
$DIMLIM
 70
     0
  9
$DIMTIH
 70
     0
  9
$DIMTOH
 70
     0
  9
$DIMSE1
 70
     0
  9
$DIMSE2
 70
     0
  9
$DIMTAD
 70
     1
  9
$DIMZIN
 70
     0
  9
$DIMBLK
  1

  9
$DIMASO
 70
     1
  9
$DIMSHO
 70
     1
  9
$DIMPOST
  1

  9
$DIMAPOST
  1

  9
$DIMALT
 70
     0
  9
$DIMALTD
 70
     2
  9
$DIMALTF
 40
25.4
  9
$DIMLFAC
 40
1.0
  9
$DIMTOFL
 70
     0
  9
$DIMTVP
 40
0.0
  9
$DIMTIX
 70
     0
  9
$DIMSOXD
 70
     0
  9
$DIMSAH
 70
     0
  9
$DIMBLK1
  1

  9
$DIMBLK2
  1

  9
$DIMSTYLE
  2
STANDARD
  9
$DIMCLRD
 70
     0
  9
$DIMCLRE
 70
     0
  9
$DIMCLRT
 70
     0
  9
$DIMTFAC
 40
1.0
  9
$DIMGAP
 40
0.833333
  9
$LUNITS
 70
     2
  9
$LUPREC
 70
     4
  9
$AXISMODE
 70
     0
  9
$AXISUNIT
 10
0.0
 20
0.0
  9
$SKETCHINC
 40
0.1
  9
$FILLETRAD
 40
0.0
  9
$AUNITS
 70
     0
  9
$AUPREC
 70
     0
  9
$MENU
  1
acad
  9
$ELEVATION
 40
0.0
  9
$PELEVATION
 40
0.0
  9
$THICKNESS
 40
0.0
  9
$LIMCHECK
 70
     0
  9
$BLIPMODE
 70
     1
  9
$CHAMFERA
 40
0.0
  9
$CHAMFERB
 40
0.0
  9
$SKPOLY
 70
     0
  9
$TDCREATE
 40
0.000000000
  9
$TDUPDATE
 40
0.000000000
  9
$TDINDWG
 40
0.0000000000
  9
$TDUSRTIMER
 40
0.0000000000
  9
$USRTIMER
 70
     1
  9
$ANGBASE
 50
0.0
  9
$ANGDIR
 70
     0
  9
$PDMODE
 70
     0
  9
$PDSIZE
 40
0.0
  9
$PLINEWID
 40
0.0
  9
$COORDS
 70
     0
  9
$SPLFRAME
 70
     0
  9
$SPLINETYPE
 70
     6
  9
$SPLINESEGS
 70
     8
  9
$ATTDIA
 70
     0
  9
$ATTREQ
 70
     1
  9
$HANDLING
 70
     1
  9
$HANDSEED
  5
14A
  9
$SURFTAB1
 70
     6
  9
$SURFTAB2
 70
     6
  9
$SURFTYPE
 70
     6
  9
$SURFU
 70
     6
  9
$SURFV
 70
     6
  9
$UCSNAME
  2

  9
$UCSORG
 10
0.0
 20
0.0
 30
0.0
  9
$UCSXDIR
 10
1.0
 20
0.0
 30
0.0
  9
$UCSYDIR
 10
0.0
 20
1.0
 30
0.0
  9
$PUCSNAME
  2

  9
$PUCSORG
 10
0.0
 20
0.0
 30
0.0
  9
$PUCSXDIR
 10
1.0
 20
0.0
 30
0.0
  9
$PUCSYDIR
 10
0.0
 20
1.0
 30
0.0
  9
$USERI1
 70
     0
  9
$USERI2
 70
     0
  9
$USERI3
 70
     0
  9
$USERI4
 70
     0
  9
$USERI5
 70
     0
  9
$USERR1
 40
0.0
  9
$USERR2
 40
0.0
  9
$USERR3
 40
0.0
  9
$USERR4
 40
0.0
  9
$USERR5
 40
0.0
  9
$WORLDVIEW
 70
     1
  9
$SHADEDGE
 70
     3
  9
$SHADEDIF
 70
    70
  9
$TILEMODE
 70
     1
  9
$MAXACTVP
 70
    16
  9
$PINSBASE
 10
0.0
 20
0.0
 30
0.0
  9
$PLIMCHECK
 70
     0
  9
$PEXTMIN
 10
1.000000E+20
 20
1.000000E+20
 30
1.000000E+20
  9
$PEXTMAX
 10
-1.000000E+20
 20
-1.000000E+20
 30
-1.000000E+20
  9
$PLIMMIN
 10
0.0
 20
0.0
  9
$PLIMMAX
 10
12.0
 20
9.0
  9
$UNITMODE
 70
     0
  9
$VISRETAIN
 70
     0
  9
$PLINEGEN
 70
     1
  9
$PSLTSCALE
 70
     0
  9
$TREEDEPTH
 70
  3020
  9
$DWGCODEPAGE
  3
dos850
  0
ENDSEC
  0
SECTION
  2
TABLES
  0
TABLE
  2
VPORT
 70
     1
  0
VPORT
  2
*ACTIVE
 70
     0
 10
0.0
 20
0.0
 11
1.0
 21
1.0
 12
6.591288
 22
4.579184
 13
0.0
 23
0.0
 14
1.0
 24
1.0
 15
0.0
 25
0.0
 16
0.0
 26
0.0
 36
1.0
 17
0.0
 27
0.0
 37
0.0
 40
9.158369
 41
0.688564
 42
50.0
 43
0.0
 44
0.0
 50
0.0
 51
0.0
 71
     0
 72
   100
 73
     1
 74
     1
 75
     0
 76
     0
 77
     0
 78
     0
  0
ENDTAB
  0
TABLE
  2
LTYPE
 70
     1
  0
LTYPE
  2
CONTINUOUS
 70
    64
  3
Solid line
 72
    65
 73
     0
 40
0.0
  0
ENDTAB
  0
TABLE
  2
LAYER
 70
     1
  0
LAYER
  2
0
 70
     0
 62
     7
  6
CONTINUOUS
  0
ENDTAB
  0
TABLE
  2
STYLE
 70
     1
  0
STYLE
  2
STANDARD
 70
     0
 40
0.0
 41
1.0
 50
0.0
 71
     0
 42
0.0
  3
txt
  4

  0
ENDTAB
  0
TABLE
  2
VIEW
 70
     0
  0
ENDTAB
  0
TABLE
  2
UCS
 70
     0
  0
ENDTAB
  0
TABLE
  2
APPID
 70
     1
  0
APPID
  2
ACAD
 70
     0
  0
ENDTAB
  0
TABLE
  2
DIMSTYLE
 70
     1
  0
DIMSTYLE
  2
STANDARD
 70
     0
  3

  4

  5

  6

  7

 40
1.0
 41
0.18
 42
0.0625
 43
0.38
 44
0.18
 45
0.0
 46
0.0
 47
0.0
 48
0.0
 71
     0
 72
     0
 73
     1
 74
     1
 75
     0
 76
     0
 77
     0
 78
     0
140
0.18
141
0.09
142
0.0
143
25.4
144
1.0
145
0.0
146
1.0
147
0.09
170
     0
171
     2
172
     0
173
     0
174
     0
175
     0
176
     0
177
     0
178
     0
  0
ENDTAB
  0
ENDSEC
  0
SECTION
  2
BLOCKS
  0
ENDSEC
  0
SECTION
  2
ENTITIES
  0
LINE
  8
0
  5
1D
 10
-104.085302
 20
-74.5
 30
0.0
 11
-94.0
 21
-74.5
 31
0.0
  0
LINE
  8
0
  5
1E
 10
-94.0
 20
74.5
 30
0.0
 11
-94.0
 21
52.0
 31
0.0
  0
ARC
  8
0
  5
1F
 10
0.0
 20
0.0
 30
0.0
 40
128.0
 50
144.406463
 51
215.593537
210
0.0
220
0.0
230
1.0
  0
LINE
  8
0
  5
20
 10
-92.0
 20
50.0
 30
0.0
 11
-43.75
 21
50.0
 31
0.0
  0
LINE
  8
0
  5
21
 10
-92.0
 20
-50.0
 30
0.0
 11
-43.75
 21
-50.0
 31
0.0
  0
LINE
  8
0
  5
22
 10
-94.0
 20
-52.0
 30
0.0
 11
-94.0
 21
-74.5
 31
0.0
  0
LINE
  8
0
  5
23
 10
-94.0
 20
74.5
 30
0.0
 11
-104.085302
 21
74.5
 31
0.0
  0
ARC
  8
0
  5
24
 10
0.0
 20
0.0
 30
0.0
 40
128.0
 50
324.406463
 51
35.593537
210
0.0
220
0.0
230
1.0
  0
ARC
  8
0
  5
25
 10
-92.0
 20
-52.0
 30
0.0
 40
2.0
 50
90.0
 51
180.0
210
0.0
220
0.0
230
1.0
  0
LINE
  8
0
  5
26
 10
104.085302
 20
-74.5
 30
0.0
 11
94.0
 21
-74.5
 31
0.0
  0
LINE
  8
0
  5
27
 10
94.0
 20
74.5
 30
0.0
 11
104.085302
 21
74.5
 31
0.0
  0
LINE
  8
0
  5
28
 10
94.0
 20
74.5
 30
0.0
 11
94.0
 21
52.0
 31
0.0
  0
LINE
  8
0
  5
29
 10
94.0
 20
-52.0
 30
0.0
 11
94.0
 21
-74.5
 31
0.0
  0
ARC
  8
0
  5
2A
 10
0.0
 20
0.0
 30
0.0
 40
128.0
 50
324.406463
 51
35.593537
210
0.0
220
0.0
230
1.0
  0
ARC
  8
0
  5
2B
 10
92.0
 20
52.0
 30
0.0
 40
2.0
 50
270.0
 51
0.0
210
0.0
220
0.0
230
1.0
  0
ARC
  8
0
  5
2C
 10
92.0
 20
-52.0
 30
0.0
 40
2.0
 50
360.0
 51
90.0
210
0.0
220
0.0
230
1.0
  0
ARC
  8
0
  5
2D
 10
92.0
 20
52.0
 30
0.0
 40
2.0
 50
270.0
 51
0.0
210
0.0
220
0.0
230
1.0
  0
ARC
  8
0
  5
2E
 10
92.0
 20
-52.0
 30
0.0
 40
2.0
 50
360.0
 51
90.0
210
0.0
220
0.0
230
1.0
  0
LINE
  8
0
  5
2F
 10
-17.0
 20
74.5
 30
0.0
 11
-17.0
 21
52.0
 31
0.0
  0
LINE
  8
0
  5
30
 10
-17.0
 20
-52.0
 30
0.0
 11
-17.0
 21
-74.5
 31
0.0
  0
LINE
  8
0
  5
31
 10
17.0
 20
-52.0
 30
0.0
 11
17.0
 21
-74.5
 31
0.0
  0
LINE
  8
0
  5
32
 10
17.0
 20
74.5
 30
0.0
 11
17.0
 21
52.0
 31
0.0
  0
LINE
  8
0
  5
33
 10
-17.0
 20
74.5
 30
0.0
 11
17.0
 21
74.5
 31
0.0
  0
LINE
  8
0
  5
34
 10
-17.0
 20
-74.5
 30
0.0
 11
17.0
 21
-74.5
 31
0.0
  0
LINE
  8
0
  5
35
 10
19.0
 20
-50.0
 30
0.0
 11
31.25
 21
-50.0
 31
0.0
  0
LINE
  8
0
  5
36
 10
19.0
 20
50.0
 30
0.0
 11
31.25
 21
50.0
 31
0.0
  0
ARC
  8
0
  5
37
 10
19.0
 20
52.0
 30
0.0
 40
2.0
 50
180.0
 51
270.0
210
0.0
220
0.0
230
1.0
  0
ARC
  8
0
  5
38
 10
19.0
 20
-52.0
 30
0.0
 40
2.0
 50
90.0
 51
180.0
210
0.0
220
0.0
230
1.0
  0
ARC
  8
0
  5
39
 10
-19.0
 20
-52.0
 30
0.0
 40
2.0
 50
0.0
 51
90.0
210
0.0
220
0.0
230
1.0
  0
ARC
  8
0
  5
3A
 10
-19.0
 20
52.0
 30
0.0
 40
2.0
 50
270.0
 51
360.0
210
0.0
220
0.0
230
1.0
  0
LINE
  8
0
  5
3B
 10
-114.0
 20
0.0
 30
0.0
 11
-114.0
 21
30.5
 31
0.0
  0
LINE
  8
0
  5
3C
 10
-118.0
 20
30.5
 30
0.0
 11
-118.0
 21
0.0
 31
0.0
  0
ARC
  8
0
  5
3D
 10
-116.0
 20
30.5
 30
0.0
 40
2.0
 50
90.0
 51
180.0
210
0.0
220
0.0
230
1.0
  0
ARC
  8
0
  5
3E
 10
-116.0
 20
30.5
 30
0.0
 40
2.0
 50
0.0
 51
90.0
210
0.0
220
0.0
230
1.0
  0
LINE
  8
0
  5
3F
 10
-114.0
 20
0.0
 30
0.0
 11
-114.0
 21
-30.5
 31
0.0
  0
ARC
  8
0
  5
40
 10
-116.0
 20
-30.5
 30
0.0
 40
2.0
 50
270.0
 51
360.0
210
0.0
220
0.0
230
1.0
  0
ARC
  8
0
  5
41
 10
-116.0
 20
-30.5
 30
0.0
 40
2.0
 50
180.0
 51
270.0
210
0.0
220
0.0
230
1.0
  0
LINE
  8
0
  5
42
 10
-118.0
 20
-30.5
 30
0.0
 11
-118.0
 21
0.0
 31
0.0
  0
LINE
  8
0
  5
43
 10
114.0
 20
0.0
 30
0.0
 11
114.0
 21
30.5
 31
0.0
  0
ARC
  8
0
  5
44
 10
116.0
 20
30.5
 30
0.0
 40
2.0
 50
90.0
 51
180.0
210
0.0
220
0.0
230
1.0
  0
ARC
  8
0
  5
45
 10
116.0
 20
30.5
 30
0.0
 40
2.0
 50
360.0
 51
90.0
210
0.0
220
0.0
230
1.0
  0
LINE
  8
0
  5
46
 10
118.0
 20
30.5
 30
0.0
 11
118.0
 21
0.0
 31
0.0
  0
LINE
  8
0
  5
47
 10
114.0
 20
0.0
 30
0.0
 11
114.0
 21
-30.5
 31
0.0
  0
ARC
  8
0
  5
48
 10
116.0
 20
-30.5
 30
0.0
 40
2.0
 50
180.0
 51
270.0
210
0.0
220
0.0
230
1.0
  0
ARC
  8
0
  5
49
 10
116.0
 20
-30.5
 30
0.0
 40
2.0
 50
270.0
 51
0.0
210
0.0
220
0.0
230
1.0
  0
LINE
  8
0
  5
4A
 10
118.0
 20
-30.5
 30
0.0
 11
118.0
 21
0.0
 31
0.0
  0
CIRCLE
  8
0
  5
4B
 10
-125.0
 20
7.0
 30
0.0
 40
1.5
210
0.0
220
0.0
230
1.0
  0
CIRCLE
  8
0
  5
4C
 10
-125.0
 20
-7.0
 30
0.0
 40
1.5
210
0.0
220
0.0
230
1.0
  0
CIRCLE
  8
0
  5
4D
 10
-116.320684
 20
46.297931
 30
0.0
 40
1.5
210
0.0
220
0.0
230
1.0
  0
CIRCLE
  8
0
  5
4E
 10
-110.424244
 20
58.995647
 30
0.0
 40
1.5
210
0.0
220
0.0
230
1.0
  0
CIRCLE
  8
0
  5
4F
 10
-7.0
 20
69.5
 30
0.0
 40
1.5
210
0.0
220
0.0
230
1.0
  0
CIRCLE
  8
0
  5
50
 10
7.0
 20
69.5
 30
0.0
 40
1.5
210
0.0
220
0.0
230
1.0
  0
CIRCLE
  8
0
  5
51
 10
116.320684
 20
46.297931
 30
0.0
 40
1.5
210
0.0
220
0.0
230
1.0
  0
CIRCLE
  8
0
  5
52
 10
110.424244
 20
58.995647
 30
0.0
 40
1.5
210
0.0
220
0.0
230
1.0
  0
CIRCLE
  8
0
  5
53
 10
-116.320684
 20
-46.297931
 30
0.0
 40
1.5
210
0.0
220
0.0
230
1.0
  0
CIRCLE
  8
0
  5
54
 10
-110.424244
 20
-58.995647
 30
0.0
 40
1.5
210
0.0
220
0.0
230
1.0
  0
CIRCLE
  8
0
  5
55
 10
-7.0
 20
-69.5
 30
0.0
 40
1.5
210
0.0
220
0.0
230
1.0
  0
CIRCLE
  8
0
  5
56
 10
7.0
 20
-69.5
 30
0.0
 40
1.5
210
0.0
220
0.0
230
1.0
  0
CIRCLE
  8
0
  5
57
 10
116.320684
 20
-46.297931
 30
0.0
 40
1.5
210
0.0
220
0.0
230
1.0
  0
CIRCLE
  8
0
  5
58
 10
110.424244
 20
-58.995647
 30
0.0
 40
1.5
210
0.0
220
0.0
230
1.0
  0
LINE
  8
0
  5
59
 10
-116.758552
 20
38.23206
 30
0.0
 11
-104.544497
 21
64.534472
 31
0.0
  0
ARC
  8
0
  5
5A
 10
-102.730538
 20
63.692123
 30
0.0
 40
2.0
 50
65.091251
 51
155.091251
210
0.0
220
0.0
230
1.0
  0
ARC
  8
0
  5
5B
 10
-102.730538
 20
63.692123
 30
0.0
 40
2.0
 50
335.091251
 51
65.091251
210
0.0
220
0.0
230
1.0
  0
ARC
  8
0
  5
5C
 10
-114.944593
 20
37.389712
 30
0.0
 40
2.0
 50
155.091251
 51
245.091251
210
0.0
220
0.0
230
1.0
  0
ARC
  8
0
  5
5D
 10
-114.944593
 20
37.389712
 30
0.0
 40
2.0
 50
245.091251
 51
335.091251
210
0.0
220
0.0
230
1.0
  0
LINE
  8
0
  5
5E
 10
-116.758552
 20
-38.23206
 30
0.0
 11
-104.544497
 21
-64.534472
 31
0.0
  0
LINE
  8
0
  5
5F
 10
-113.130634
 20
-36.547363
 30
0.0
 11
-100.916578
 21
-62.849775
 31
0.0
  0
ARC
  8
0
  5
60
 10
-114.944593
 20
-37.389712
 30
0.0
 40
2.0
 50
24.908749
 51
114.908749
210
0.0
220
0.0
230
1.0
  0
ARC
  8
0
  5
61
 10
-114.944593
 20
-37.389712
 30
0.0
 40
2.0
 50
114.908749
 51
204.908749
210
0.0
220
0.0
230
1.0
  0
ARC
  8
0
  5
62
 10
-102.730538
 20
-63.692123
 30
0.0
 40
2.0
 50
294.908749
 51
24.908749
210
0.0
220
0.0
230
1.0
  0
ARC
  8
0
  5
63
 10
-102.730538
 20
-63.692123
 30
0.0
 40
2.0
 50
204.908749
 51
294.908749
210
0.0
220
0.0
230
1.0
  0
LINE
  8
0
  5
64
 10
-31.25
 20
-48.0
 30
0.0
 11
-31.25
 21
-50.0
 31
0.0
  0
LINE
  8
0
  5
65
 10
-43.75
 20
-48.0
 30
0.0
 11
-43.75
 21
-50.0
 31
0.0
  0
LINE
  8
0
  5
66
 10
-43.75
 20
-48.0
 30
0.0
 11
-31.25
 21
-48.0
 31
0.0
  0
LINE
  8
0
  5
67
 10
-31.25
 20
-50.0
 30
0.0
 11
-19.0
 21
-50.0
 31
0.0
  0
LINE
  8
0
  5
68
 10
-43.75
 20
48.0
 30
0.0
 11
-31.25
 21
48.0
 31
0.0
  0
LINE
  8
0
  5
69
 10
-31.25
 20
48.0
 30
0.0
 11
-31.25
 21
50.0
 31
0.0
  0
LINE
  8
0
  5
6A
 10
-43.75
 20
48.0
 30
0.0
 11
-43.75
 21
50.0
 31
0.0
  0
LINE
  8
0
  5
6B
 10
43.75
 20
-48.0
 30
0.0
 11
31.25
 21
-48.0
 31
0.0
  0
CIRCLE
  8
0
  5
6C
 10
125.0
 20
7.0
 30
0.0
 40
1.5
210
0.0
220
0.0
230
1.0
  0
CIRCLE
  8
0
  5
6D
 10
125.0
 20
-7.0
 30
0.0
 40
1.5
210
0.0
220
0.0
230
1.0
  0
LINE
  8
0
  5
6E
 10
31.25
 20
-48.0
 30
0.0
 11
31.25
 21
-50.0
 31
0.0
  0
LINE
  8
0
  5
6F
 10
43.75
 20
-48.0
 30
0.0
 11
43.75
 21
-50.0
 31
0.0
  0
LINE
  8
0
  5
70
 10
43.75
 20
48.0
 30
0.0
 11
31.25
 21
48.0
 31
0.0
  0
LINE
  8
0
  5
71
 10
31.25
 20
48.0
 30
0.0
 11
31.25
 21
50.0
 31
0.0
  0
LINE
  8
0
  5
72
 10
43.75
 20
48.0
 30
0.0
 11
43.75
 21
50.0
 31
0.0
  0
LINE
  8
0
  5
73
 10
43.75
 20
-50.0
 30
0.0
 11
92.0
 21
-50.0
 31
0.0
  0
LINE
  8
0
  5
74
 10
43.75
 20
50.0
 30
0.0
 11
92.0
 21
50.0
 31
0.0
  0
LINE
  8
0
  5
75
 10
-31.25
 20
50.0
 30
0.0
 11
-19.0
 21
50.0
 31
0.0
  0
LINE
  8
0
  5
76
 10
116.758552
 20
38.23206
 30
0.0
 11
104.544497
 21
64.534472
 31
0.0
  0
LINE
  8
0
  5
77
 10
113.130634
 20
36.547363
 30
0.0
 11
100.916578
 21
62.849775
 31
0.0
  0
ARC
  8
0
  5
78
 10
114.944593
 20
37.389712
 30
0.0
 40
2.0
 50
204.908749
 51
294.908749
210
0.0
220
0.0
230
1.0
  0
ARC
  8
0
  5
79
 10
114.944593
 20
37.389712
 30
0.0
 40
2.0
 50
294.908749
 51
24.908749
210
0.0
220
0.0
230
1.0
  0
ARC
  8
0
  5
7A
 10
102.730538
 20
63.692123
 30
0.0
 40
2.0
 50
114.908749
 51
204.908749
210
0.0
220
0.0
230
1.0
  0
ARC
  8
0
  5
7B
 10
102.730538
 20
63.692123
 30
0.0
 40
2.0
 50
24.908749
 51
114.908749
210
0.0
220
0.0
230
1.0
  0
LINE
  8
0
  5
7C
 10
116.758552
 20
-38.23206
 30
0.0
 11
104.544497
 21
-64.534472
 31
0.0
  0
LINE
  8
0
  5
7D
 10
113.130634
 20
-36.547363
 30
0.0
 11
100.916578
 21
-62.849775
 31
0.0
  0
ARC
  8
0
  5
7E
 10
114.944593
 20
-37.389712
 30
0.0
 40
2.0
 50
65.091251
 51
155.091251
210
0.0
220
0.0
230
1.0
  0
ARC
  8
0
  5
7F
 10
114.944593
 20
-37.389712
 30
0.0
 40
2.0
 50
335.091251
 51
65.091251
210
0.0
220
0.0
230
1.0
  0
ARC
  8
0
  5
80
 10
102.730538
 20
-63.692123
 30
0.0
 40
2.0
 50
155.091251
 51
245.091251
210
0.0
220
0.0
230
1.0
  0
ARC
  8
0
  5
81
 10
102.730538
 20
-63.692123
 30
0.0
 40
2.0
 50
245.091251
 51
335.091251
210
0.0
220
0.0
230
1.0
  0
LINE
  8
0
  5
82
 10
-67.75
 20
25.25
 30
0.0
 11
-67.75
 21
18.75
 31
0.0
  0
LINE
  8
0
  5
83
 10
-47.75
 20
25.25
 30
0.0
 11
-47.75
 21
18.75
 31
0.0
  0
LINE
  8
0
  5
84
 10
-60.75
 20
29.0
 30
0.0
 11
-54.75
 21
29.0
 31
0.0
  0
LINE
  8
0
  5
85
 10
-60.75
 20
15.0
 30
0.0
 11
-54.75
 21
15.0
 31
0.0
  0
LINE
  8
0
  5
86
 10
-60.75
 20
29.0
 30
0.0
 11
-60.75
 21
25.25
 31
0.0
  0
LINE
  8
0
  5
87
 10
-54.75
 20
29.0
 30
0.0
 11
-54.75
 21
25.25
 31
0.0
  0
LINE
  8
0
  5
88
 10
-67.75
 20
25.25
 30
0.0
 11
-60.75
 21
25.25
 31
0.0
  0
LINE
  8
0
  5
89
 10
-67.75
 20
18.75
 30
0.0
 11
-60.75
 21
18.75
 31
0.0
  0
LINE
  8
0
  5
8A
 10
60.75
 20
30.75
 30
0.0
 11
54.75
 21
30.75
 31
0.0
  0
LINE
  8
0
  5
8B
 10
60.75
 20
13.25
 30
0.0
 11
54.75
 21
13.25
 31
0.0
  0
LINE
  8
0
  5
8C
 10
67.75
 20
25.25
 30
0.0
 11
67.75
 21
18.75
 31
0.0
  0
LINE
  8
0
  5
8D
 10
47.75
 20
25.25
 30
0.0
 11
47.75
 21
18.75
 31
0.0
  0
LINE
  8
0
  5
8E
 10
67.75
 20
18.75
 30
0.0
 11
60.75
 21
18.75
 31
0.0
  0
LINE
  8
0
  5
8F
 10
67.75
 20
25.25
 30
0.0
 11
60.75
 21
25.25
 31
0.0
  0
LINE
  8
0
  5
90
 10
54.75
 20
30.75
 30
0.0
 11
54.75
 21
25.25
 31
0.0
  0
LINE
  8
0
  5
91
 10
60.75
 20
30.75
 30
0.0
 11
60.75
 21
25.25
 31
0.0
  0
LINE
  8
0
  5
92
 10
-54.75
 20
18.75
 30
0.0
 11
-54.75
 21
15.0
 31
0.0
  0
LINE
  8
0
  5
93
 10
-60.75
 20
18.75
 30
0.0
 11
-60.75
 21
15.0
 31
0.0
  0
LINE
  8
0
  5
94
 10
-54.75
 20
25.25
 30
0.0
 11
-47.75
 21
25.25
 31
0.0
  0
LINE
  8
0
  5
95
 10
-54.75
 20
18.75
 30
0.0
 11
-47.75
 21
18.75
 31
0.0
  0
LINE
  8
0
  5
96
 10
60.75
 20
18.75
 30
0.0
 11
60.75
 21
13.25
 31
0.0
  0
LINE
  8
0
  5
97
 10
54.75
 20
18.75
 30
0.0
 11
54.75
 21
13.25
 31
0.0
  0
LINE
  8
0
  5
98
 10
54.75
 20
25.25
 30
0.0
 11
47.75
 21
25.25
 31
0.0
  0
LINE
  8
0
  5
99
 10
54.75
 20
18.75
 30
0.0
 11
47.75
 21
18.75
 31
0.0
  0
LINE
  8
0
  5
9A
 10
-60.75
 20
-29.0
 30
0.0
 11
-54.75
 21
-29.0
 31
0.0
  0
LINE
  8
0
  5
9B
 10
-60.75
 20
-15.0
 30
0.0
 11
-54.75
 21
-15.0
 31
0.0
  0
LINE
  8
0
  5
9C
 10
-67.75
 20
-25.25
 30
0.0
 11
-67.75
 21
-18.75
 31
0.0
  0
LINE
  8
0
  5
9D
 10
-47.75
 20
-25.25
 30
0.0
 11
-47.75
 21
-18.75
 31
0.0
  0
LINE
  8
0
  5
9E
 10
-67.75
 20
-18.75
 30
0.0
 11
-60.75
 21
-18.75
 31
0.0
  0
LINE
  8
0
  5
9F
 10
-54.75
 20
-18.75
 30
0.0
 11
-47.75
 21
-18.75
 31
0.0
  0
LINE
  8
0
  5
A0
 10
-67.75
 20
-25.25
 30
0.0
 11
-60.75
 21
-25.25
 31
0.0
  0
LINE
  8
0
  5
A1
 10
-54.75
 20
-25.25
 30
0.0
 11
-47.75
 21
-25.25
 31
0.0
  0
LINE
  8
0
  5
A2
 10
-54.75
 20
-29.0
 30
0.0
 11
-54.75
 21
-25.25
 31
0.0
  0
LINE
  8
0
  5
A3
 10
-54.75
 20
-18.75
 30
0.0
 11
-54.75
 21
-15.0
 31
0.0
  0
LINE
  8
0
  5
A4
 10
-60.75
 20
-29.0
 30
0.0
 11
-60.75
 21
-25.25
 31
0.0
  0
LINE
  8
0
  5
A5
 10
-60.75
 20
-18.75
 30
0.0
 11
-60.75
 21
-15.0
 31
0.0
  0
LINE
  8
0
  5
A6
 10
60.75
 20
-30.75
 30
0.0
 11
54.75
 21
-30.75
 31
0.0
  0
LINE
  8
0
  5
A7
 10
60.75
 20
-13.25
 30
0.0
 11
54.75
 21
-13.25
 31
0.0
  0
LINE
  8
0
  5
A8
 10
67.75
 20
-25.25
 30
0.0
 11
67.75
 21
-18.75
 31
0.0
  0
LINE
  8
0
  5
A9
 10
47.75
 20
-25.25
 30
0.0
 11
47.75
 21
-18.75
 31
0.0
  0
LINE
  8
0
  5
AA
 10
67.75
 20
-18.75
 30
0.0
 11
60.75
 21
-18.75
 31
0.0
  0
LINE
  8
0
  5
AB
 10
54.75
 20
-18.75
 30
0.0
 11
47.75
 21
-18.75
 31
0.0
  0
LINE
  8
0
  5
AC
 10
67.75
 20
-25.25
 30
0.0
 11
60.75
 21
-25.25
 31
0.0
  0
LINE
  8
0
  5
AD
 10
54.75
 20
-25.25
 30
0.0
 11
47.75
 21
-25.25
 31
0.0
  0
LINE
  8
0
  5
AE
 10
54.75
 20
-30.75
 30
0.0
 11
54.75
 21
-25.25
 31
0.0
  0
LINE
  8
0
  5
AF
 10
54.75
 20
-18.75
 30
0.0
 11
54.75
 21
-13.25
 31
0.0
  0
LINE
  8
0
  5
B0
 10
60.75
 20
-30.75
 30
0.0
 11
60.75
 21
-25.25
 31
0.0
  0
LINE
  8
0
  5
B1
 10
60.75
 20
-18.75
 30
0.0
 11
60.75
 21
-13.25
 31
0.0
  0
CIRCLE
  8
0
  5
B2
 10
99.0
 20
50.0
 30
0.0
 40
1.5
210
0.0
220
0.0
230
1.0
  0
CIRCLE
  8
0
  5
B3
 10
-99.0
 20
-50.0
 30
0.0
 40
1.5
210
0.0
220
0.0
230
1.0
  0
ARC
  8
0
  5
B4
 10
0.0
 20
-55.0
 30
0.0
 40
1.5
 50
224.420239
 51
315.579761
210
0.0
220
0.0
230
1.0
  0
CIRCLE
  8
0
  5
B5
 10
99.0
 20
-50.0
 30
0.0
 40
1.5
210
0.0
220
0.0
230
1.0
  0
CIRCLE
  8
0
  5
B6
 10
99.0
 20
0.0
 30
0.0
 40
1.5
210
0.0
220
0.0
230
1.0
  0
CIRCLE
  8
0
  5
B7
 10
55.0
 20
0.0
 30
0.0
 40
1.5
210
0.0
220
0.0
230
1.0
  0
LINE
  8
0
  5
B8
 10
-7.0
 20
45.0
 30
0.0
 11
7.0
 21
45.0
 31
0.0
  0
LINE
  8
0
  5
B9
 10
7.0
 20
45.0
 30
0.0
 11
7.0
 21
50.0
 31
0.0
  0
LINE
  8
0
  5
BA
 10
-7.0
 20
45.0
 30
0.0
 11
-7.0
 21
50.0
 31
0.0
  0
LINE
  8
0
  5
BB
 10
-7.0
 20
-45.0
 30
0.0
 11
7.0
 21
-45.0
 31
0.0
  0
LINE
  8
0
  5
BC
 10
7.0
 20
-45.0
 30
0.0
 11
7.0
 21
-50.0
 31
0.0
  0
LINE
  8
0
  5
BD
 10
-7.0
 20
-45.0
 30
0.0
 11
-7.0
 21
-50.0
 31
0.0
  0
CIRCLE
  8
0
  5
BE
 10
-99.0
 20
0.0
 30
0.0
 40
1.5
210
0.0
220
0.0
230
1.0
  0
CIRCLE
  8
0
  5
BF
 10
-55.0
 20
0.0
 30
0.0
 40
1.5
210
0.0
220
0.0
230
1.0
  0
LINE
  8
0
  5
C0
 10
-7.0
 20
-50.0
 30
0.0
 11
-1.071338
 21
-56.049874
 31
0.0
  0
LINE
  8
0
  5
C1
 10
7.0
 20
-50.0
 30
0.0
 11
1.071338
 21
-56.049874
 31
0.0
  0
ARC
  8
0
  5
C2
 10
0.0
 20
55.0
 30
0.0
 40
1.5
 50
44.420239
 51
135.579761
210
0.0
220
0.0
230
1.0
  0
LINE
  8
0
  5
C3
 10
-7.0
 20
50.0
 30
0.0
 11
-1.071338
 21
56.049874
 31
0.0
  0
LINE
  8
0
  5
C4
 10
7.0
 20
50.0
 30
0.0
 11
1.071338
 21
56.049874
 31
0.0
  0
LINE
  8
0
  5
C5
 10
-43.75
 20
-25.5
 30
0.0
 11
-31.25
 21
-25.5
 31
0.0
  0
LINE
  8
0
  5
C6
 10
-43.75
 20
-28.9
 30
0.0
 11
-31.25
 21
-28.9
 31
0.0
  0
LINE
  8
0
  5
C7
 10
-43.75
 20
-25.5
 30
0.0
 11
-43.75
 21
-28.9
 31
0.0
  0
LINE
  8
0
  5
C8
 10
-31.25
 20
-25.5
 30
0.0
 11
-31.25
 21
-28.9
 31
0.0
  0
LINE
  8
0
  5
C9
 10
43.75
 20
-25.5
 30
0.0
 11
31.25
 21
-25.5
 31
0.0
  0
LINE
  8
0
  5
CA
 10
43.75
 20
-28.9
 30
0.0
 11
31.25
 21
-28.9
 31
0.0
  0
LINE
  8
0
  5
CB
 10
43.75
 20
-25.5
 30
0.0
 11
43.75
 21
-28.9
 31
0.0
  0
LINE
  8
0
  5
CC
 10
31.25
 20
-25.5
 30
0.0
 11
31.25
 21
-28.9
 31
0.0
  0
LINE
  8
0
  5
CD
 10
-43.75
 20
25.5
 30
0.0
 11
-31.25
 21
25.5
 31
0.0
  0
LINE
  8
0
  5
CE
 10
-43.75
 20
28.9
 30
0.0
 11
-31.25
 21
28.9
 31
0.0
  0
LINE
  8
0
  5
CF
 10
-43.75
 20
25.5
 30
0.0
 11
-43.75
 21
28.9
 31
0.0
  0
LINE
  8
0
  5
D0
 10
-31.25
 20
25.5
 30
0.0
 11
-31.25
 21
28.9
 31
0.0
  0
LINE
  8
0
  5
D1
 10
43.75
 20
25.5
 30
0.0
 11
31.25
 21
25.5
 31
0.0
  0
LINE
  8
0
  5
D2
 10
43.75
 20
28.9
 30
0.0
 11
31.25
 21
28.9
 31
0.0
  0
LINE
  8
0
  5
D3
 10
43.75
 20
25.5
 30
0.0
 11
43.75
 21
28.9
 31
0.0
  0
LINE
  8
0
  5
D4
 10
31.25
 20
25.5
 30
0.0
 11
31.25
 21
28.9
 31
0.0
  0
LINE
  8
0
  5
D5
 10
-46.5
 20
-74.5
 30
0.0
 11
-43.0
 21
-74.5
 31
0.0
  0
LINE
  8
0
  5
D6
 10
-42.0
 20
-73.5
 30
0.0
 11
-42.0
 21
-60.3
 31
0.0
  0
LINE
  8
0
  5
D7
 10
-43.0
 20
-59.3
 30
0.0
 11
-46.5
 21
-59.3
 31
0.0
  0
LINE
  8
0
  5
D8
 10
-74.0
 20
-62.5
 30
0.0
 11
-74.0
 21
-71.3
 31
0.0
  0
LINE
  8
0
  5
D9
 10
-73.0
 20
-61.5
 30
0.0
 11
-46.5
 21
-61.5
 31
0.0
  0
LINE
  8
0
  5
DA
 10
-73.0
 20
-72.3
 30
0.0
 11
-46.5
 21
-72.3
 31
0.0
  0
LINE
  8
0
  5
DB
 10
-46.5
 20
-74.5
 30
0.0
 11
-46.5
 21
-72.3
 31
0.0
  0
LINE
  8
0
  5
DC
 10
-46.5
 20
-61.5
 30
0.0
 11
-46.5
 21
-59.3
 31
0.0
  0
ARC
  8
0
  5
DD
 10
-43.0
 20
-60.3
 30
0.0
 40
1.0
 50
0.0
 51
90.0
210
0.0
220
0.0
230
1.0
  0
ARC
  8
0
  5
DE
 10
-43.0
 20
-73.5
 30
0.0
 40
1.0
 50
270.0
 51
0.0
210
0.0
220
0.0
230
1.0
  0
ARC
  8
0
  5
DF
 10
-73.0
 20
-62.5
 30
0.0
 40
1.0
 50
90.0
 51
180.0
210
0.0
220
0.0
230
1.0
  0
ARC
  8
0
  5
E0
 10
-73.0
 20
-71.3
 30
0.0
 40
1.0
 50
180.0
 51
270.0
210
0.0
220
0.0
230
1.0
  0
LINE
  8
0
  5
E1
 10
-69.95
 20
-65.24
 30
0.0
 11
-68.05
 21
-65.24
 31
0.0
  0
LINE
  8
0
  5
E2
 10
-69.95
 20
-68.56
 30
0.0
 11
-68.05
 21
-68.56
 31
0.0
  0
LINE
  8
0
  5
E3
 10
-49.2
 20
-66.96
 30
0.0
 11
-49.2
 21
-66.84
 31
0.0
  0
LINE
  8
0
  5
E4
 10
-57.4
 20
-66.96
 30
0.0
 11
-57.4
 21
-66.84
 31
0.0
  0
LINE
  8
0
  5
E5
 10
-71.55
 20
-66.84
 30
0.0
 11
-71.55
 21
-66.96
 31
0.0
  0
LINE
  8
0
  5
E6
 10
-66.45
 20
-66.84
 30
0.0
 11
-66.45
 21
-66.96
 31
0.0
  0
ARC
  8
0
  5
E7
 10
-50.8
 20
-66.84
 30
0.0
 40
1.6
 50
0.0
 51
90.0
210
0.0
220
0.0
230
1.0
  0
ARC
  8
0
  5
E8
 10
-50.8
 20
-66.96
 30
0.0
 40
1.6
 50
270.0
 51
0.0
210
0.0
220
0.0
230
1.0
  0
ARC
  8
0
  5
E9
 10
-69.95
 20
-66.84
 30
0.0
 40
1.6
 50
90.0
 51
180.0
210
0.0
220
0.0
230
1.0
  0
ARC
  8
0
  5
EA
 10
-69.95
 20
-66.96
 30
0.0
 40
1.6
 50
180.0
 51
270.0
210
0.0
220
0.0
230
1.0
  0
LINE
  8
0
  5
EB
 10
-55.8
 20
-65.24
 30
0.0
 11
-50.8
 21
-65.24
 31
0.0
  0
LINE
  8
0
  5
EC
 10
-55.8
 20
-68.56
 30
0.0
 11
-50.8
 21
-68.56
 31
0.0
  0
ARC
  8
0
  5
ED
 10
-68.05
 20
-66.84
 30
0.0
 40
1.6
 50
0.0
 51
90.0
210
0.0
220
0.0
230
1.0
  0
ARC
  8
0
  5
EE
 10
-68.05
 20
-66.96
 30
0.0
 40
1.6
 50
270.0
 51
360.0
210
0.0
220
0.0
230
1.0
  0
ARC
  8
0
  5
EF
 10
-55.8
 20
-66.84
 30
0.0
 40
1.6
 50
90.0
 51
180.0
210
0.0
220
0.0
230
1.0
  0
ARC
  8
0
  5
F0
 10
-55.8
 20
-66.96
 30
0.0
 40
1.6
 50
180.0
 51
270.0
210
0.0
220
0.0
230
1.0
  0
LINE
  8
0
  5
F1
 10
46.5
 20
-74.5
 30
0.0
 11
43.0
 21
-74.5
 31
0.0
  0
ARC
  8
0
  5
F2
 10
43.0
 20
-73.5
 30
0.0
 40
1.0
 50
180.0
 51
270.0
210
0.0
220
0.0
230
1.0
  0
LINE
  8
0
  5
F3
 10
42.0
 20
-73.5
 30
0.0
 11
42.0
 21
-60.3
 31
0.0
  0
ARC
  8
0
  5
F4
 10
43.0
 20
-60.3
 30
0.0
 40
1.0
 50
90.0
 51
180.0
210
0.0
220
0.0
230
1.0
  0
LINE
  8
0
  5
F5
 10
46.5
 20
-74.5
 30
0.0
 11
46.5
 21
-72.3
 31
0.0
  0
LINE
  8
0
  5
F6
 10
46.5
 20
-61.5
 30
0.0
 11
46.5
 21
-59.3
 31
0.0
  0
LINE
  8
0
  5
F7
 10
43.0
 20
-59.3
 30
0.0
 11
46.5
 21
-59.3
 31
0.0
  0
LINE
  8
0
  5
F8
 10
74.0
 20
-62.5
 30
0.0
 11
74.0
 21
-71.3
 31
0.0
  0
LINE
  8
0
  5
F9
 10
69.95
 20
-68.56
 30
0.0
 11
68.05
 21
-68.56
 31
0.0
  0
LINE
  8
0
  5
FA
 10
55.8
 20
-68.56
 30
0.0
 11
50.8
 21
-68.56
 31
0.0
  0
ARC
  8
0
  5
FB
 10
55.8
 20
-66.96
 30
0.0
 40
1.6
 50
270.0
 51
0.0
210
0.0
220
0.0
230
1.0
  0
ARC
  8
0
  5
FC
 10
69.95
 20
-66.96
 30
0.0
 40
1.6
 50
270.0
 51
0.0
210
0.0
220
0.0
230
1.0
  0
LINE
  8
0
  5
FD
 10
69.95
 20
-65.24
 30
0.0
 11
68.05
 21
-65.24
 31
0.0
  0
LINE
  8
0
  5
FE
 10
55.8
 20
-65.24
 30
0.0
 11
50.8
 21
-65.24
 31
0.0
  0
ARC
  8
0
  5
FF
 10
69.95
 20
-66.84
 30
0.0
 40
1.6
 50
0.0
 51
90.0
210
0.0
220
0.0
230
1.0
  0
LINE
  8
0
  5
100
 10
73.0
 20
-72.3
 30
0.0
 11
46.5
 21
-72.3
 31
0.0
  0
ARC
  8
0
  5
101
 10
73.0
 20
-71.3
 30
0.0
 40
1.0
 50
270.0
 51
0.0
210
0.0
220
0.0
230
1.0
  0
LINE
  8
0
  5
102
 10
73.0
 20
-61.5
 30
0.0
 11
46.5
 21
-61.5
 31
0.0
  0
ARC
  8
0
  5
103
 10
73.0
 20
-62.5
 30
0.0
 40
1.0
 50
0.0
 51
90.0
210
0.0
220
0.0
230
1.0
  0
LINE
  8
0
  5
104
 10
49.2
 20
-66.96
 30
0.0
 11
49.2
 21
-66.84
 31
0.0
  0
ARC
  8
0
  5
105
 10
50.8
 20
-66.96
 30
0.0
 40
1.6
 50
180.0
 51
270.0
210
0.0
220
0.0
230
1.0
  0
ARC
  8
0
  5
106
 10
50.8
 20
-66.84
 30
0.0
 40
1.6
 50
90.0
 51
180.0
210
0.0
220
0.0
230
1.0
  0
LINE
  8
0
  5
107
 10
57.4
 20
-66.96
 30
0.0
 11
57.4
 21
-66.84
 31
0.0
  0
ARC
  8
0
  5
108
 10
55.8
 20
-66.84
 30
0.0
 40
1.6
 50
0.0
 51
90.0
210
0.0
220
0.0
230
1.0
  0
LINE
  8
0
  5
109
 10
71.55
 20
-66.84
 30
0.0
 11
71.55
 21
-66.96
 31
0.0
  0
LINE
  8
0
  5
10A
 10
66.45
 20
-66.84
 30
0.0
 11
66.45
 21
-66.96
 31
0.0
  0
ARC
  8
0
  5
10B
 10
68.05
 20
-66.96
 30
0.0
 40
1.6
 50
180.0
 51
270.0
210
0.0
220
0.0
230
1.0
  0
ARC
  8
0
  5
10C
 10
68.05
 20
-66.84
 30
0.0
 40
1.6
 50
90.0
 51
180.0
210
0.0
220
0.0
230
1.0
  0
LINE
  8
0
  5
10D
 10
-46.5
 20
74.5
 30
0.0
 11
-43.0
 21
74.5
 31
0.0
  0
ARC
  8
0
  5
10E
 10
-43.0
 20
73.5
 30
0.0
 40
1.0
 50
0.0
 51
90.0
210
0.0
220
0.0
230
1.0
  0
LINE
  8
0
  5
10F
 10
-42.0
 20
73.5
 30
0.0
 11
-42.0
 21
60.3
 31
0.0
  0
ARC
  8
0
  5
110
 10
-43.0
 20
60.3
 30
0.0
 40
1.0
 50
270.0
 51
360.0
210
0.0
220
0.0
230
1.0
  0
LINE
  8
0
  5
111
 10
-46.5
 20
74.5
 30
0.0
 11
-46.5
 21
72.3
 31
0.0
  0
LINE
  8
0
  5
112
 10
-46.5
 20
61.5
 30
0.0
 11
-46.5
 21
59.3
 31
0.0
  0
LINE
  8
0
  5
113
 10
-43.0
 20
59.3
 30
0.0
 11
-46.5
 21
59.3
 31
0.0
  0
LINE
  8
0
  5
114
 10
-74.0
 20
62.5
 30
0.0
 11
-74.0
 21
71.3
 31
0.0
  0
LINE
  8
0
  5
115
 10
-69.95
 20
68.56
 30
0.0
 11
-68.05
 21
68.56
 31
0.0
  0
LINE
  8
0
  5
116
 10
-55.8
 20
68.56
 30
0.0
 11
-50.8
 21
68.56
 31
0.0
  0
ARC
  8
0
  5
117
 10
-55.8
 20
66.96
 30
0.0
 40
1.6
 50
90.0
 51
180.0
210
0.0
220
0.0
230
1.0
  0
ARC
  8
0
  5
118
 10
-69.95
 20
66.96
 30
0.0
 40
1.6
 50
90.0
 51
180.0
210
0.0
220
0.0
230
1.0
  0
LINE
  8
0
  5
119
 10
-69.95
 20
65.24
 30
0.0
 11
-68.05
 21
65.24
 31
0.0
  0
LINE
  8
0
  5
11A
 10
-55.8
 20
65.24
 30
0.0
 11
-50.8
 21
65.24
 31
0.0
  0
ARC
  8
0
  5
11B
 10
-69.95
 20
66.84
 30
0.0
 40
1.6
 50
180.0
 51
270.0
210
0.0
220
0.0
230
1.0
  0
LINE
  8
0
  5
11C
 10
-73.0
 20
72.3
 30
0.0
 11
-46.5
 21
72.3
 31
0.0
  0
ARC
  8
0
  5
11D
 10
-73.0
 20
71.3
 30
0.0
 40
1.0
 50
90.0
 51
180.0
210
0.0
220
0.0
230
1.0
  0
LINE
  8
0
  5
11E
 10
-73.0
 20
61.5
 30
0.0
 11
-46.5
 21
61.5
 31
0.0
  0
ARC
  8
0
  5
11F
 10
-73.0
 20
62.5
 30
0.0
 40
1.0
 50
180.0
 51
270.0
210
0.0
220
0.0
230
1.0
  0
LINE
  8
0
  5
120
 10
-49.2
 20
66.96
 30
0.0
 11
-49.2
 21
66.84
 31
0.0
  0
ARC
  8
0
  5
121
 10
-50.8
 20
66.96
 30
0.0
 40
1.6
 50
360.0
 51
90.0
210
0.0
220
0.0
230
1.0
  0
ARC
  8
0
  5
122
 10
-50.8
 20
66.84
 30
0.0
 40
1.6
 50
270.0
 51
0.0
210
0.0
220
0.0
230
1.0
  0
LINE
  8
0
  5
123
 10
-57.4
 20
66.96
 30
0.0
 11
-57.4
 21
66.84
 31
0.0
  0
ARC
  8
0
  5
124
 10
-55.8
 20
66.84
 30
0.0
 40
1.6
 50
180.0
 51
270.0
210
0.0
220
0.0
230
1.0
  0
LINE
  8
0
  5
125
 10
-71.55
 20
66.84
 30
0.0
 11
-71.55
 21
66.96
 31
0.0
  0
LINE
  8
0
  5
126
 10
-66.45
 20
66.84
 30
0.0
 11
-66.45
 21
66.96
 31
0.0
  0
ARC
  8
0
  5
127
 10
-68.05
 20
66.96
 30
0.0
 40
1.6
 50
0.0
 51
90.0
210
0.0
220
0.0
230
1.0
  0
ARC
  8
0
  5
128
 10
-68.05
 20
66.84
 30
0.0
 40
1.6
 50
270.0
 51
360.0
210
0.0
220
0.0
230
1.0
  0
LINE
  8
0
  5
129
 10
46.5
 20
74.5
 30
0.0
 11
43.0
 21
74.5
 31
0.0
  0
ARC
  8
0
  5
12A
 10
43.0
 20
73.5
 30
0.0
 40
1.0
 50
90.0
 51
180.0
210
0.0
220
0.0
230
1.0
  0
LINE
  8
0
  5
12B
 10
42.0
 20
73.5
 30
0.0
 11
42.0
 21
60.3
 31
0.0
  0
ARC
  8
0
  5
12C
 10
43.0
 20
60.3
 30
0.0
 40
1.0
 50
180.0
 51
270.0
210
0.0
220
0.0
230
1.0
  0
LINE
  8
0
  5
12D
 10
46.5
 20
74.5
 30
0.0
 11
46.5
 21
72.3
 31
0.0
  0
LINE
  8
0
  5
12E
 10
46.5
 20
61.5
 30
0.0
 11
46.5
 21
59.3
 31
0.0
  0
LINE
  8
0
  5
12F
 10
43.0
 20
59.3
 30
0.0
 11
46.5
 21
59.3
 31
0.0
  0
LINE
  8
0
  5
130
 10
74.0
 20
62.5
 30
0.0
 11
74.0
 21
71.3
 31
0.0
  0
LINE
  8
0
  5
131
 10
69.95
 20
68.56
 30
0.0
 11
68.05
 21
68.56
 31
0.0
  0
LINE
  8
0
  5
132
 10
55.8
 20
68.56
 30
0.0
 11
50.8
 21
68.56
 31
0.0
  0
ARC
  8
0
  5
133
 10
55.8
 20
66.96
 30
0.0
 40
1.6
 50
0.0
 51
90.0
210
0.0
220
0.0
230
1.0
  0
ARC
  8
0
  5
134
 10
69.95
 20
66.96
 30
0.0
 40
1.6
 50
360.0
 51
90.0
210
0.0
220
0.0
230
1.0
  0
LINE
  8
0
  5
135
 10
69.95
 20
65.24
 30
0.0
 11
68.05
 21
65.24
 31
0.0
  0
LINE
  8
0
  5
136
 10
55.8
 20
65.24
 30
0.0
 11
50.8
 21
65.24
 31
0.0
  0
ARC
  8
0
  5
137
 10
69.95
 20
66.84
 30
0.0
 40
1.6
 50
270.0
 51
0.0
210
0.0
220
0.0
230
1.0
  0
LINE
  8
0
  5
138
 10
73.0
 20
72.3
 30
0.0
 11
46.5
 21
72.3
 31
0.0
  0
ARC
  8
0
  5
139
 10
73.0
 20
71.3
 30
0.0
 40
1.0
 50
0.0
 51
90.0
210
0.0
220
0.0
230
1.0
  0
LINE
  8
0
  5
13A
 10
73.0
 20
61.5
 30
0.0
 11
46.5
 21
61.5
 31
0.0
  0
ARC
  8
0
  5
13B
 10
73.0
 20
62.5
 30
0.0
 40
1.0
 50
270.0
 51
360.0
210
0.0
220
0.0
230
1.0
  0
LINE
  8
0
  5
13C
 10
49.2
 20
66.96
 30
0.0
 11
49.2
 21
66.84
 31
0.0
  0
ARC
  8
0
  5
13D
 10
50.8
 20
66.96
 30
0.0
 40
1.6
 50
90.0
 51
180.0
210
0.0
220
0.0
230
1.0
  0
ARC
  8
0
  5
13E
 10
50.8
 20
66.84
 30
0.0
 40
1.6
 50
180.0
 51
270.0
210
0.0
220
0.0
230
1.0
  0
LINE
  8
0
  5
13F
 10
57.4
 20
66.96
 30
0.0
 11
57.4
 21
66.84
 31
0.0
  0
ARC
  8
0
  5
140
 10
55.8
 20
66.84
 30
0.0
 40
1.6
 50
270.0
 51
0.0
210
0.0
220
0.0
230
1.0
  0
LINE
  8
0
  5
141
 10
71.55
 20
66.84
 30
0.0
 11
71.55
 21
66.96
 31
0.0
  0
LINE
  8
0
  5
142
 10
66.45
 20
66.84
 30
0.0
 11
66.45
 21
66.96
 31
0.0
  0
ARC
  8
0
  5
143
 10
68.05
 20
66.96
 30
0.0
 40
1.6
 50
90.0
 51
180.0
210
0.0
220
0.0
230
1.0
  0
ARC
  8
0
  5
144
 10
68.05
 20
66.84
 30
0.0
 40
1.6
 50
180.0
 51
270.0
210
0.0
220
0.0
230
1.0
  0
LINE
  8
0
  5
145
 10
-113.130634
 20
36.547363
 30
0.0
 11
-100.916578
 21
62.849775
 31
0.0
  0
CIRCLE
  8
0
  5
146
 10
-99.0
 20
50.0
 30
0.0
 40
1.5
210
0.0
220
0.0
230
1.0
  0
ARC
  8
0
  5
147
 10
-92.0
 20
52.0
 30
0.0
 40
2.0
 50
180.0
 51
270.0
210
0.0
220
0.0
230
1.0
  0
ENDSEC
  0
EOF
