G75*
%MOIN*%
%OFA0B0*%
%FSLAX25Y25*%
%IPPOS*%
%LPD*%
%AMOC8*
5,1,8,0,0,1.08239X$1,22.5*
%
%ADD10C,0.01600*%
%ADD11C,0.07800*%
%ADD12C,0.05600*%
%ADD13C,0.07450*%
%ADD14C,0.00500*%
%ADD15R,0.06900X0.06900*%
%ADD16C,0.06900*%
D10*
X0093524Y0001800D02*
X0093524Y0211249D01*
X0288406Y0211249D01*
X0288406Y0001800D01*
X0093524Y0001800D01*
D11*
X0137524Y0011603D03*
X0147524Y0011603D03*
X0157524Y0011603D03*
X0167524Y0011603D03*
X0177524Y0011603D03*
X0187524Y0011603D03*
X0197524Y0011603D03*
X0207524Y0011603D03*
X0227524Y0011603D03*
X0237524Y0011603D03*
X0247524Y0011603D03*
X0257524Y0011603D03*
X0267524Y0011603D03*
X0277524Y0011603D03*
X0275886Y0032312D03*
X0265886Y0032312D03*
X0255886Y0032312D03*
X0245886Y0032312D03*
X0245886Y0043335D03*
X0255886Y0043335D03*
X0265886Y0043335D03*
X0275886Y0043335D03*
X0216555Y0075619D03*
X0216555Y0085619D03*
X0216555Y0095619D03*
X0216555Y0105619D03*
X0236043Y0126485D03*
X0236043Y0136485D03*
X0236043Y0146485D03*
X0237524Y0201603D03*
X0247524Y0201603D03*
X0257524Y0201603D03*
X0267524Y0201603D03*
X0277524Y0201603D03*
X0227524Y0201603D03*
X0217524Y0201603D03*
X0207524Y0201603D03*
X0192524Y0201603D03*
X0182524Y0201603D03*
X0172524Y0201603D03*
X0162524Y0201603D03*
X0152524Y0201603D03*
X0142524Y0201603D03*
X0132524Y0201603D03*
X0122524Y0201603D03*
X0112524Y0201603D03*
X0102524Y0201603D03*
X0146476Y0105619D03*
X0146476Y0095619D03*
X0146476Y0085619D03*
X0146476Y0075619D03*
D12*
X0148445Y0144436D02*
X0148445Y0149636D01*
X0158445Y0149636D02*
X0158445Y0144436D01*
X0168445Y0144436D02*
X0168445Y0149636D01*
X0178445Y0149636D02*
X0178445Y0144436D01*
X0188445Y0144436D02*
X0188445Y0149636D01*
X0198445Y0149636D02*
X0198445Y0144436D01*
X0208445Y0144436D02*
X0208445Y0149636D01*
X0208445Y0174436D02*
X0208445Y0179636D01*
X0198445Y0179636D02*
X0198445Y0174436D01*
X0188445Y0174436D02*
X0188445Y0179636D01*
X0178445Y0179636D02*
X0178445Y0174436D01*
X0168445Y0174436D02*
X0168445Y0179636D01*
X0158445Y0179636D02*
X0158445Y0174436D01*
X0148445Y0174436D02*
X0148445Y0179636D01*
X0138445Y0179636D02*
X0138445Y0174436D01*
X0138445Y0149636D02*
X0138445Y0144436D01*
D13*
X0116458Y0126997D02*
X0109408Y0126997D01*
X0109408Y0107312D02*
X0116458Y0107312D01*
X0116458Y0082312D02*
X0109408Y0082312D01*
X0109408Y0062627D02*
X0116458Y0062627D01*
X0262125Y0062824D02*
X0269175Y0062824D01*
X0269175Y0082509D02*
X0262125Y0082509D01*
X0262125Y0106918D02*
X0269175Y0106918D01*
X0269175Y0126603D02*
X0262125Y0126603D01*
X0261731Y0153965D02*
X0268781Y0153965D01*
X0268781Y0173650D02*
X0261731Y0173650D01*
D14*
X0237007Y0113774D02*
X0237333Y0113566D01*
X0237603Y0113290D01*
X0237806Y0112961D01*
X0237931Y0112596D01*
X0237970Y0112211D01*
X0237937Y0111830D01*
X0237819Y0111465D01*
X0237622Y0111136D01*
X0237358Y0110859D01*
X0237038Y0110648D01*
X0236680Y0110513D01*
X0236300Y0110461D01*
X0235900Y0110496D01*
X0235517Y0110620D01*
X0235172Y0110825D01*
X0234880Y0111102D01*
X0234658Y0111437D01*
X0234516Y0111813D01*
X0234461Y0112211D01*
X0234512Y0112604D01*
X0234649Y0112976D01*
X0234865Y0113308D01*
X0235150Y0113584D01*
X0235489Y0113789D01*
X0235866Y0113913D01*
X0236260Y0113951D01*
X0236644Y0113905D01*
X0237007Y0113774D01*
X0237016Y0113768D02*
X0235455Y0113768D01*
X0234840Y0113270D02*
X0237616Y0113270D01*
X0237871Y0112771D02*
X0234573Y0112771D01*
X0234469Y0112273D02*
X0237964Y0112273D01*
X0237918Y0111774D02*
X0234530Y0111774D01*
X0234765Y0111276D02*
X0237705Y0111276D01*
X0237234Y0110777D02*
X0235252Y0110777D01*
X0235866Y0102893D02*
X0236260Y0102931D01*
X0236644Y0102885D01*
X0237007Y0102754D01*
X0237333Y0102546D01*
X0237603Y0102270D01*
X0237806Y0101941D01*
X0237931Y0101576D01*
X0237970Y0101191D01*
X0237937Y0100810D01*
X0237819Y0100445D01*
X0237622Y0100116D01*
X0237358Y0099839D01*
X0237038Y0099628D01*
X0236680Y0099493D01*
X0236300Y0099441D01*
X0235900Y0099476D01*
X0235517Y0099600D01*
X0235172Y0099805D01*
X0234880Y0100082D01*
X0234658Y0100417D01*
X0234516Y0100793D01*
X0234461Y0101191D01*
X0234512Y0101584D01*
X0234649Y0101956D01*
X0234865Y0102288D01*
X0235150Y0102564D01*
X0235489Y0102769D01*
X0235866Y0102893D01*
X0235586Y0102801D02*
X0236876Y0102801D01*
X0237572Y0102302D02*
X0234880Y0102302D01*
X0234593Y0101804D02*
X0237853Y0101804D01*
X0237959Y0101305D02*
X0234475Y0101305D01*
X0234514Y0100807D02*
X0237936Y0100807D01*
X0237737Y0100308D02*
X0234730Y0100308D01*
X0235166Y0099810D02*
X0237313Y0099810D01*
X0236180Y0081915D02*
X0236580Y0081880D01*
X0236963Y0081756D01*
X0237309Y0081551D01*
X0237600Y0081274D01*
X0237822Y0080939D01*
X0237965Y0080563D01*
X0238020Y0080165D01*
X0237969Y0079772D01*
X0237831Y0079400D01*
X0237615Y0079068D01*
X0237330Y0078792D01*
X0236991Y0078587D01*
X0236615Y0078463D01*
X0236220Y0078425D01*
X0235837Y0078471D01*
X0235473Y0078602D01*
X0235148Y0078810D01*
X0234877Y0079086D01*
X0234674Y0079415D01*
X0234550Y0079780D01*
X0234510Y0080165D01*
X0234544Y0080546D01*
X0234662Y0080911D01*
X0234858Y0081240D01*
X0235122Y0081517D01*
X0235442Y0081728D01*
X0235800Y0081863D01*
X0236180Y0081915D01*
X0235805Y0081863D02*
X0236630Y0081863D01*
X0237504Y0081365D02*
X0234978Y0081365D01*
X0234648Y0080866D02*
X0237850Y0080866D01*
X0237992Y0080368D02*
X0234528Y0080368D01*
X0234541Y0079869D02*
X0237981Y0079869D01*
X0237813Y0079371D02*
X0234701Y0079371D01*
X0235087Y0078872D02*
X0237413Y0078872D01*
X0236580Y0070859D02*
X0236180Y0070894D01*
X0235800Y0070843D01*
X0235442Y0070708D01*
X0235122Y0070497D01*
X0234858Y0070219D01*
X0234662Y0069890D01*
X0234544Y0069526D01*
X0234510Y0069144D01*
X0234550Y0068760D01*
X0234674Y0068395D01*
X0234877Y0068066D01*
X0235148Y0067790D01*
X0235473Y0067582D01*
X0235837Y0067451D01*
X0236220Y0067405D01*
X0236615Y0067442D01*
X0236991Y0067567D01*
X0237330Y0067772D01*
X0237615Y0068048D01*
X0237831Y0068380D01*
X0237969Y0068751D01*
X0238020Y0069144D01*
X0237965Y0069543D01*
X0237822Y0069919D01*
X0237600Y0070254D01*
X0237309Y0070531D01*
X0236963Y0070736D01*
X0236580Y0070859D01*
X0237449Y0070398D02*
X0235028Y0070398D01*
X0234667Y0069899D02*
X0237830Y0069899D01*
X0237984Y0069401D02*
X0234533Y0069401D01*
X0234535Y0068902D02*
X0237988Y0068902D01*
X0237840Y0068404D02*
X0234671Y0068404D01*
X0235035Y0067905D02*
X0237468Y0067905D01*
X0236240Y0067407D02*
X0236204Y0067407D01*
X0122807Y0042964D02*
X0122862Y0042566D01*
X0122811Y0042173D01*
X0122674Y0041801D01*
X0122457Y0041469D01*
X0122173Y0041194D01*
X0121833Y0040989D01*
X0121457Y0040864D01*
X0121063Y0040826D01*
X0120679Y0040873D01*
X0120316Y0041004D01*
X0119990Y0041212D01*
X0119719Y0041487D01*
X0119517Y0041816D01*
X0119392Y0042182D01*
X0119352Y0042566D01*
X0119386Y0042948D01*
X0119504Y0043312D01*
X0119700Y0043641D01*
X0119965Y0043918D01*
X0120284Y0044130D01*
X0120643Y0044264D01*
X0121022Y0044316D01*
X0121423Y0044281D01*
X0121806Y0044158D01*
X0122151Y0043953D01*
X0122443Y0043675D01*
X0122665Y0043340D01*
X0122807Y0042964D01*
X0122801Y0042980D02*
X0119397Y0042980D01*
X0119361Y0042481D02*
X0122851Y0042481D01*
X0122741Y0041983D02*
X0119460Y0041983D01*
X0119723Y0041484D02*
X0122467Y0041484D01*
X0121824Y0040986D02*
X0120366Y0040986D01*
X0119603Y0043478D02*
X0122574Y0043478D01*
X0122111Y0043977D02*
X0120053Y0043977D01*
X0108994Y0042911D02*
X0109033Y0042526D01*
X0109000Y0042145D01*
X0108882Y0041780D01*
X0108685Y0041451D01*
X0108421Y0041174D01*
X0108101Y0040963D01*
X0107743Y0040828D01*
X0107363Y0040776D01*
X0106963Y0040811D01*
X0106580Y0040935D01*
X0106234Y0041140D01*
X0105943Y0041417D01*
X0105721Y0041752D01*
X0105579Y0042128D01*
X0105524Y0042526D01*
X0105575Y0042919D01*
X0105712Y0043291D01*
X0105928Y0043623D01*
X0106213Y0043899D01*
X0106552Y0044104D01*
X0106929Y0044228D01*
X0107323Y0044266D01*
X0107707Y0044220D01*
X0108070Y0044089D01*
X0108396Y0043881D01*
X0108666Y0043605D01*
X0108869Y0043276D01*
X0108994Y0042911D01*
X0108970Y0042980D02*
X0105597Y0042980D01*
X0105530Y0042481D02*
X0109029Y0042481D01*
X0108947Y0041983D02*
X0105634Y0041983D01*
X0105899Y0041484D02*
X0108705Y0041484D01*
X0108136Y0040986D02*
X0106495Y0040986D01*
X0105834Y0043478D02*
X0108745Y0043478D01*
X0108246Y0043977D02*
X0106342Y0043977D01*
X0107323Y0033246D02*
X0107707Y0033200D01*
X0108070Y0033069D01*
X0108396Y0032861D01*
X0108666Y0032585D01*
X0108869Y0032256D01*
X0108994Y0031891D01*
X0109033Y0031506D01*
X0109000Y0031125D01*
X0108882Y0030760D01*
X0108685Y0030431D01*
X0108421Y0030154D01*
X0108101Y0029943D01*
X0107743Y0029808D01*
X0107363Y0029756D01*
X0106963Y0029791D01*
X0106580Y0029915D01*
X0106234Y0030120D01*
X0105943Y0030397D01*
X0105721Y0030732D01*
X0105579Y0031108D01*
X0105524Y0031506D01*
X0105575Y0031899D01*
X0105712Y0032271D01*
X0105928Y0032603D01*
X0106213Y0032879D01*
X0106552Y0033084D01*
X0106929Y0033208D01*
X0107323Y0033246D01*
X0108163Y0033009D02*
X0106429Y0033009D01*
X0105868Y0032511D02*
X0108712Y0032511D01*
X0108952Y0032012D02*
X0105616Y0032012D01*
X0105525Y0031514D02*
X0109033Y0031514D01*
X0108964Y0031015D02*
X0105614Y0031015D01*
X0105864Y0030517D02*
X0108736Y0030517D01*
X0108215Y0030018D02*
X0106406Y0030018D01*
X0119356Y0031514D02*
X0122858Y0031514D01*
X0122862Y0031546D02*
X0122811Y0031153D01*
X0122674Y0030781D01*
X0122457Y0030449D01*
X0122173Y0030174D01*
X0121833Y0029969D01*
X0121457Y0029844D01*
X0121063Y0029806D01*
X0120679Y0029853D01*
X0120316Y0029983D01*
X0119990Y0030192D01*
X0119719Y0030467D01*
X0119517Y0030796D01*
X0119392Y0031162D01*
X0119352Y0031546D01*
X0119386Y0031928D01*
X0119504Y0032292D01*
X0119700Y0032621D01*
X0119965Y0032898D01*
X0120284Y0033109D01*
X0120643Y0033244D01*
X0121022Y0033296D01*
X0121423Y0033261D01*
X0121806Y0033138D01*
X0122151Y0032932D01*
X0122443Y0032655D01*
X0122665Y0032320D01*
X0122807Y0031944D01*
X0122862Y0031546D01*
X0122781Y0032012D02*
X0119414Y0032012D01*
X0119635Y0032511D02*
X0122539Y0032511D01*
X0122022Y0033009D02*
X0120133Y0033009D01*
X0119442Y0031015D02*
X0122760Y0031015D01*
X0122502Y0030517D02*
X0119689Y0030517D01*
X0120261Y0030018D02*
X0121916Y0030018D01*
D15*
X0231122Y0163139D03*
D16*
X0231122Y0173139D03*
M02*
