G75*
%MOIN*%
%OFA0B0*%
%FSLAX25Y25*%
%IPPOS*%
%LPD*%
%AMOC8*
5,1,8,0,0,1.08239X$1,22.5*
%
%ADD10C,0.01600*%
%ADD11C,0.07400*%
%ADD12C,0.05200*%
%ADD13C,0.07050*%
%ADD14C,0.08000*%
%ADD15R,0.06500X0.06500*%
%ADD16C,0.06500*%
D10*
X0093524Y0001800D02*
X0093524Y0211249D01*
X0288406Y0211249D01*
X0288406Y0001800D01*
X0093524Y0001800D01*
X0107303Y0042536D02*
X0107303Y0044123D01*
X0102185Y0049241D01*
X0102185Y0071564D01*
X0112933Y0082312D01*
X0124232Y0070501D02*
X0116358Y0062627D01*
X0112933Y0062627D01*
X0112933Y0050686D01*
X0121083Y0042536D01*
X0124232Y0070501D02*
X0124232Y0096013D01*
X0112933Y0107312D01*
X0128878Y0123257D01*
X0140374Y0123257D01*
X0154154Y0137036D01*
X0184862Y0137036D01*
X0188445Y0140619D01*
X0188445Y0147036D01*
X0210059Y0157115D02*
X0215571Y0151603D01*
X0215571Y0139398D01*
X0209665Y0133493D01*
X0155335Y0133493D01*
X0141949Y0120107D01*
X0132894Y0120107D01*
X0131319Y0116957D01*
X0131319Y0091564D01*
X0146476Y0075619D01*
X0177524Y0044572D01*
X0177524Y0036587D01*
X0177524Y0011603D01*
X0177524Y0020107D01*
X0189728Y0032312D01*
X0245886Y0032312D01*
X0255886Y0032312D01*
X0265886Y0032312D01*
X0275886Y0032312D01*
X0216555Y0075619D02*
X0177524Y0036587D01*
X0246937Y0101221D02*
X0265650Y0082509D01*
X0246937Y0101221D02*
X0265650Y0119934D01*
X0265650Y0126603D01*
X0280138Y0121406D02*
X0265650Y0106918D01*
X0246937Y0101221D02*
X0236240Y0101221D01*
X0232882Y0101221D01*
X0213602Y0120501D01*
X0213602Y0128769D01*
X0222657Y0137824D01*
X0222657Y0153965D01*
X0212815Y0163808D01*
X0191555Y0163808D01*
X0188445Y0166918D01*
X0188445Y0177036D01*
X0165965Y0187036D02*
X0158445Y0179517D01*
X0158445Y0177036D01*
X0154941Y0185855D02*
X0136437Y0185855D01*
X0127776Y0177194D01*
X0127776Y0157706D01*
X0138445Y0147036D01*
X0148445Y0147036D02*
X0138051Y0136643D01*
X0138012Y0136643D01*
X0122657Y0151997D01*
X0122657Y0178769D01*
X0134862Y0190973D01*
X0151004Y0190973D01*
X0152524Y0192493D01*
X0152524Y0201603D01*
X0162524Y0201603D02*
X0162524Y0193438D01*
X0154941Y0185855D01*
X0165965Y0187036D02*
X0275807Y0187036D01*
X0280138Y0182706D01*
X0280138Y0121406D01*
X0258563Y0147272D02*
X0236043Y0146485D01*
X0230925Y0151603D01*
X0230925Y0162942D01*
X0231122Y0163139D01*
X0210059Y0157115D02*
X0146280Y0157115D01*
X0138445Y0164950D01*
X0138445Y0177036D01*
X0158445Y0147036D02*
X0138406Y0126997D01*
X0112933Y0126997D01*
X0258563Y0147272D02*
X0265256Y0153965D01*
D11*
X0236043Y0146485D03*
X0236043Y0136485D03*
X0236043Y0126485D03*
X0216555Y0105619D03*
X0216555Y0095619D03*
X0216555Y0085619D03*
X0216555Y0075619D03*
X0245886Y0043335D03*
X0255886Y0043335D03*
X0265886Y0043335D03*
X0275886Y0043335D03*
X0275886Y0032312D03*
X0265886Y0032312D03*
X0255886Y0032312D03*
X0245886Y0032312D03*
X0247524Y0011603D03*
X0237524Y0011603D03*
X0227524Y0011603D03*
X0207524Y0011603D03*
X0197524Y0011603D03*
X0187524Y0011603D03*
X0177524Y0011603D03*
X0167524Y0011603D03*
X0157524Y0011603D03*
X0147524Y0011603D03*
X0137524Y0011603D03*
X0146476Y0075619D03*
X0146476Y0085619D03*
X0146476Y0095619D03*
X0146476Y0105619D03*
X0257524Y0011603D03*
X0267524Y0011603D03*
X0277524Y0011603D03*
X0277524Y0201603D03*
X0267524Y0201603D03*
X0257524Y0201603D03*
X0247524Y0201603D03*
X0237524Y0201603D03*
X0227524Y0201603D03*
X0217524Y0201603D03*
X0207524Y0201603D03*
X0192524Y0201603D03*
X0182524Y0201603D03*
X0172524Y0201603D03*
X0162524Y0201603D03*
X0152524Y0201603D03*
X0142524Y0201603D03*
X0132524Y0201603D03*
X0122524Y0201603D03*
X0112524Y0201603D03*
X0102524Y0201603D03*
D12*
X0138445Y0179636D02*
X0138445Y0174436D01*
X0148445Y0174436D02*
X0148445Y0179636D01*
X0158445Y0179636D02*
X0158445Y0174436D01*
X0168445Y0174436D02*
X0168445Y0179636D01*
X0178445Y0179636D02*
X0178445Y0174436D01*
X0188445Y0174436D02*
X0188445Y0179636D01*
X0198445Y0179636D02*
X0198445Y0174436D01*
X0208445Y0174436D02*
X0208445Y0179636D01*
X0208445Y0149636D02*
X0208445Y0144436D01*
X0198445Y0144436D02*
X0198445Y0149636D01*
X0188445Y0149636D02*
X0188445Y0144436D01*
X0178445Y0144436D02*
X0178445Y0149636D01*
X0168445Y0149636D02*
X0168445Y0144436D01*
X0158445Y0144436D02*
X0158445Y0149636D01*
X0148445Y0149636D02*
X0148445Y0144436D01*
X0138445Y0144436D02*
X0138445Y0149636D01*
D13*
X0116458Y0126997D02*
X0109408Y0126997D01*
X0109408Y0107312D02*
X0116458Y0107312D01*
X0116458Y0082312D02*
X0109408Y0082312D01*
X0109408Y0062627D02*
X0116458Y0062627D01*
X0262125Y0062824D02*
X0269175Y0062824D01*
X0269175Y0082509D02*
X0262125Y0082509D01*
X0262125Y0106918D02*
X0269175Y0106918D01*
X0269175Y0126603D02*
X0262125Y0126603D01*
X0261731Y0153965D02*
X0268781Y0153965D01*
X0268781Y0173650D02*
X0261731Y0173650D01*
D14*
X0236240Y0112221D03*
X0236240Y0101221D03*
X0236240Y0080135D03*
X0236240Y0069135D03*
X0121083Y0042536D03*
X0121083Y0031536D03*
X0107303Y0031536D03*
X0107303Y0042536D03*
D15*
X0231122Y0163139D03*
D16*
X0231122Y0173139D03*
M02*
