G75*
%MOIN*%
%OFA0B0*%
%FSLAX25Y25*%
%IPPOS*%
%LPD*%
%AMOC8*
5,1,8,0,0,1.08239X$1,22.5*
%
%ADD10C,0.01600*%
%ADD11C,0.00200*%
%ADD12C,0.00400*%
%ADD13C,0.00300*%
%ADD14C,0.00600*%
%ADD15C,0.00500*%
%ADD16C,0.01000*%
%ADD17C,0.00800*%
%ADD18C,0.00100*%
%ADD19C,0.00591*%
D10*
X0093524Y0001800D02*
X0093524Y0211249D01*
X0288406Y0211249D01*
X0288406Y0001800D01*
X0093524Y0001800D01*
X0136437Y0045698D02*
X0226988Y0045698D01*
X0226988Y0136249D01*
X0136437Y0136249D01*
X0136437Y0045698D01*
D11*
X0122555Y0022175D02*
X0122555Y0019617D01*
X0123834Y0019617D01*
X0124260Y0020043D01*
X0124260Y0020896D01*
X0123834Y0021322D01*
X0122555Y0021322D01*
X0125092Y0021322D02*
X0125092Y0020043D01*
X0125519Y0019617D01*
X0126798Y0019617D01*
X0126798Y0019190D02*
X0126798Y0021322D01*
X0126798Y0019190D02*
X0126371Y0018764D01*
X0125945Y0018764D01*
X0126153Y0018467D02*
X0126153Y0018041D01*
X0126153Y0017188D02*
X0126153Y0015483D01*
X0125727Y0015483D02*
X0126579Y0015483D01*
X0127418Y0015483D02*
X0128697Y0015483D01*
X0129124Y0015909D01*
X0128697Y0016335D01*
X0127845Y0016335D01*
X0127418Y0016762D01*
X0127845Y0017188D01*
X0129124Y0017188D01*
X0126153Y0017188D02*
X0125727Y0017188D01*
X0124888Y0017188D02*
X0124035Y0017188D01*
X0124461Y0017614D02*
X0124461Y0015909D01*
X0124888Y0015483D01*
X0123203Y0015483D02*
X0121924Y0015483D01*
X0121497Y0015909D01*
X0121924Y0016335D01*
X0123203Y0016335D01*
X0123203Y0016762D02*
X0123203Y0015483D01*
X0123203Y0016762D02*
X0122776Y0017188D01*
X0121924Y0017188D01*
X0120232Y0018041D02*
X0120232Y0015483D01*
X0119806Y0015483D02*
X0120658Y0015483D01*
X0118973Y0016762D02*
X0118973Y0017614D01*
X0118547Y0018041D01*
X0117268Y0018041D01*
X0117268Y0015483D01*
X0117268Y0016335D02*
X0118547Y0016335D01*
X0118973Y0016762D01*
X0119806Y0018041D02*
X0120232Y0018041D01*
X0119185Y0019617D02*
X0117906Y0019617D01*
X0117480Y0020043D01*
X0117480Y0020896D01*
X0117906Y0021322D01*
X0119185Y0021322D01*
X0119185Y0022175D02*
X0119185Y0019617D01*
X0116647Y0020469D02*
X0114942Y0020469D01*
X0114942Y0020043D02*
X0114942Y0020896D01*
X0115368Y0021322D01*
X0116221Y0021322D01*
X0116647Y0020896D01*
X0116647Y0020469D01*
X0116221Y0019617D02*
X0115368Y0019617D01*
X0114942Y0020043D01*
X0114110Y0019617D02*
X0114110Y0020896D01*
X0113683Y0021322D01*
X0112404Y0021322D01*
X0112404Y0019617D01*
X0111572Y0019617D02*
X0110293Y0019617D01*
X0109867Y0020043D01*
X0109867Y0020896D01*
X0110293Y0021322D01*
X0111572Y0021322D01*
X0111572Y0019190D01*
X0111146Y0018764D01*
X0110719Y0018764D01*
X0110927Y0018467D02*
X0110927Y0018041D01*
X0110927Y0017188D02*
X0110501Y0017188D01*
X0110927Y0017188D02*
X0110927Y0015483D01*
X0110501Y0015483D02*
X0111354Y0015483D01*
X0112193Y0015483D02*
X0113472Y0015483D01*
X0113898Y0015909D01*
X0113472Y0016335D01*
X0112619Y0016335D01*
X0112193Y0016762D01*
X0112619Y0017188D01*
X0113898Y0017188D01*
X0111777Y0013907D02*
X0111350Y0013481D01*
X0111350Y0011349D01*
X0112616Y0011775D02*
X0113042Y0011349D01*
X0113895Y0011349D01*
X0114321Y0011775D01*
X0114321Y0012628D01*
X0113895Y0013054D01*
X0113042Y0013054D01*
X0112616Y0012628D01*
X0112616Y0011775D01*
X0111777Y0012628D02*
X0110924Y0012628D01*
X0111350Y0008920D02*
X0112629Y0008920D01*
X0113462Y0008494D02*
X0113462Y0007641D01*
X0113888Y0007215D01*
X0114741Y0007215D01*
X0115167Y0007641D01*
X0115167Y0008494D01*
X0114741Y0008920D01*
X0113888Y0008920D01*
X0113462Y0008494D01*
X0112629Y0007641D02*
X0112203Y0008068D01*
X0111350Y0008068D01*
X0110924Y0008494D01*
X0111350Y0008920D01*
X0110924Y0007215D02*
X0112203Y0007215D01*
X0112629Y0007641D01*
X0110082Y0007641D02*
X0110082Y0007215D01*
X0109655Y0007215D01*
X0109655Y0007641D01*
X0110082Y0007641D01*
X0108823Y0007641D02*
X0108397Y0008068D01*
X0107544Y0008068D01*
X0107118Y0008494D01*
X0107544Y0008920D01*
X0108823Y0008920D01*
X0108823Y0007641D02*
X0108397Y0007215D01*
X0107118Y0007215D01*
X0106279Y0007215D02*
X0105426Y0007215D01*
X0105852Y0007215D02*
X0105852Y0008920D01*
X0105426Y0008920D01*
X0104587Y0008920D02*
X0103734Y0008920D01*
X0104161Y0009347D02*
X0104161Y0007641D01*
X0104587Y0007215D01*
X0102902Y0007215D02*
X0101623Y0007215D01*
X0101197Y0007641D01*
X0101623Y0008068D01*
X0102902Y0008068D01*
X0102902Y0008494D02*
X0102902Y0007215D01*
X0102902Y0008494D02*
X0102476Y0008920D01*
X0101623Y0008920D01*
X0099931Y0009773D02*
X0099931Y0007215D01*
X0099505Y0007215D02*
X0100358Y0007215D01*
X0098673Y0007641D02*
X0098246Y0007215D01*
X0096967Y0007215D01*
X0096967Y0006362D02*
X0096967Y0008920D01*
X0098246Y0008920D01*
X0098673Y0008494D01*
X0098673Y0007641D01*
X0099505Y0009773D02*
X0099931Y0009773D01*
X0105852Y0009773D02*
X0105852Y0010199D01*
X0105856Y0015483D02*
X0105003Y0015483D01*
X0105429Y0015483D02*
X0105429Y0017188D01*
X0105003Y0017188D01*
X0104171Y0016762D02*
X0104171Y0015483D01*
X0103318Y0015483D02*
X0103318Y0016762D01*
X0103744Y0017188D01*
X0104171Y0016762D01*
X0103318Y0016762D02*
X0102892Y0017188D01*
X0102465Y0017188D01*
X0102465Y0015483D01*
X0101626Y0015483D02*
X0100774Y0015483D01*
X0101200Y0015483D02*
X0101200Y0017188D01*
X0100774Y0017188D01*
X0099941Y0017614D02*
X0099941Y0015909D01*
X0099515Y0015483D01*
X0098236Y0015483D01*
X0098236Y0018041D01*
X0099515Y0018041D01*
X0099941Y0017614D01*
X0101200Y0018041D02*
X0101200Y0018467D01*
X0100562Y0019617D02*
X0101841Y0019617D01*
X0102268Y0020043D01*
X0102268Y0021748D01*
X0101841Y0022175D01*
X0100562Y0022175D01*
X0100562Y0019617D01*
X0103100Y0020043D02*
X0103100Y0020896D01*
X0103526Y0021322D01*
X0104379Y0021322D01*
X0104805Y0020896D01*
X0104805Y0020469D01*
X0103100Y0020469D01*
X0103100Y0020043D02*
X0103526Y0019617D01*
X0104379Y0019617D01*
X0105637Y0019617D02*
X0106916Y0019617D01*
X0107343Y0020043D01*
X0106916Y0020469D01*
X0106064Y0020469D01*
X0105637Y0020896D01*
X0106064Y0021322D01*
X0107343Y0021322D01*
X0108175Y0021322D02*
X0108601Y0021322D01*
X0108601Y0019617D01*
X0108175Y0019617D02*
X0109028Y0019617D01*
X0108601Y0022175D02*
X0108601Y0022601D01*
X0107121Y0017614D02*
X0107121Y0015909D01*
X0107547Y0015483D01*
X0108386Y0015483D02*
X0108386Y0017188D01*
X0107547Y0017188D02*
X0106695Y0017188D01*
X0105429Y0018041D02*
X0105429Y0018467D01*
X0108386Y0016335D02*
X0109239Y0017188D01*
X0109665Y0017188D01*
X0115153Y0013054D02*
X0115153Y0011349D01*
X0115153Y0012202D02*
X0116006Y0013054D01*
X0116432Y0013054D01*
X0116426Y0009773D02*
X0116426Y0007215D01*
X0116852Y0007215D02*
X0115999Y0007215D01*
X0117691Y0007641D02*
X0117691Y0008920D01*
X0117691Y0007641D02*
X0118117Y0007215D01*
X0119396Y0007215D01*
X0119396Y0008920D01*
X0120229Y0008920D02*
X0121081Y0008920D01*
X0120655Y0009347D02*
X0120655Y0007641D01*
X0121081Y0007215D01*
X0121920Y0007215D02*
X0122773Y0007215D01*
X0122347Y0007215D02*
X0122347Y0008920D01*
X0121920Y0008920D01*
X0122347Y0009773D02*
X0122347Y0010199D01*
X0124038Y0008920D02*
X0123612Y0008494D01*
X0123612Y0007641D01*
X0124038Y0007215D01*
X0124891Y0007215D01*
X0125317Y0007641D01*
X0125317Y0008494D01*
X0124891Y0008920D01*
X0124038Y0008920D01*
X0126150Y0008920D02*
X0126150Y0007215D01*
X0127855Y0007215D02*
X0127855Y0008494D01*
X0127429Y0008920D01*
X0126150Y0008920D01*
X0128687Y0008494D02*
X0129114Y0008920D01*
X0130393Y0008920D01*
X0129966Y0008068D02*
X0129114Y0008068D01*
X0128687Y0008494D01*
X0128687Y0007215D02*
X0129966Y0007215D01*
X0130393Y0007641D01*
X0129966Y0008068D01*
X0116426Y0009773D02*
X0115999Y0009773D01*
X0152480Y0072176D02*
X0154316Y0072176D01*
X0155235Y0073094D01*
X0154316Y0074012D01*
X0152480Y0074012D01*
X0152939Y0074894D02*
X0152480Y0075354D01*
X0152480Y0076272D01*
X0152939Y0076731D01*
X0152939Y0077613D02*
X0154775Y0077613D01*
X0155235Y0078072D01*
X0155235Y0078991D01*
X0154775Y0079450D01*
X0152939Y0079450D02*
X0152480Y0078991D01*
X0152480Y0078072D01*
X0152939Y0077613D01*
X0154775Y0076731D02*
X0155235Y0076272D01*
X0155235Y0075354D01*
X0154775Y0074894D01*
X0152939Y0074894D01*
X0153004Y0082412D02*
X0153463Y0082871D01*
X0153463Y0083789D01*
X0153923Y0084249D01*
X0154382Y0084249D01*
X0154841Y0083789D01*
X0154841Y0082871D01*
X0154382Y0082412D01*
X0153004Y0082412D02*
X0152545Y0082412D01*
X0152086Y0082871D01*
X0152086Y0083789D01*
X0152545Y0084249D01*
X0152545Y0085131D02*
X0152086Y0085590D01*
X0152086Y0086508D01*
X0152545Y0086967D01*
X0152086Y0087850D02*
X0154841Y0087850D01*
X0154841Y0089686D01*
X0154382Y0091861D02*
X0154841Y0092320D01*
X0154841Y0093238D01*
X0154382Y0093697D01*
X0153923Y0093697D01*
X0153463Y0093238D01*
X0153463Y0092320D01*
X0153004Y0091861D01*
X0152545Y0091861D01*
X0152086Y0092320D01*
X0152086Y0093238D01*
X0152545Y0093697D01*
X0152086Y0094579D02*
X0154841Y0094579D01*
X0154841Y0095957D01*
X0154382Y0096416D01*
X0152545Y0096416D01*
X0152086Y0095957D01*
X0152086Y0094579D01*
X0153004Y0097298D02*
X0152086Y0098217D01*
X0153004Y0099135D01*
X0154841Y0099135D01*
X0153463Y0099135D02*
X0153463Y0097298D01*
X0153004Y0097298D02*
X0154841Y0097298D01*
X0154382Y0102097D02*
X0154841Y0102556D01*
X0154841Y0103474D01*
X0154382Y0103934D01*
X0153463Y0103934D01*
X0153463Y0103015D01*
X0152545Y0102097D02*
X0154382Y0102097D01*
X0152545Y0102097D02*
X0152086Y0102556D01*
X0152086Y0103474D01*
X0152545Y0103934D01*
X0152086Y0104816D02*
X0154841Y0106652D01*
X0152086Y0106652D01*
X0152086Y0107535D02*
X0152086Y0108912D01*
X0152545Y0109371D01*
X0154382Y0109371D01*
X0154841Y0108912D01*
X0154841Y0107535D01*
X0152086Y0107535D01*
X0152086Y0104816D02*
X0154841Y0104816D01*
X0154382Y0086967D02*
X0154841Y0086508D01*
X0154841Y0085590D01*
X0154382Y0085131D01*
X0152545Y0085131D01*
X0208385Y0084577D02*
X0208385Y0083658D01*
X0208844Y0083199D01*
X0210681Y0083199D01*
X0211140Y0083658D01*
X0211140Y0084577D01*
X0210681Y0085036D01*
X0210681Y0085918D02*
X0211140Y0086377D01*
X0211140Y0087296D01*
X0210681Y0087755D01*
X0210222Y0087755D01*
X0209763Y0087296D01*
X0209763Y0086377D01*
X0209303Y0085918D01*
X0208844Y0085918D01*
X0208385Y0086377D01*
X0208385Y0087296D01*
X0208844Y0087755D01*
X0208844Y0085036D02*
X0208385Y0084577D01*
X0208844Y0079450D02*
X0210681Y0077613D01*
X0211140Y0078072D01*
X0211140Y0078991D01*
X0210681Y0079450D01*
X0208844Y0079450D01*
X0208385Y0078991D01*
X0208385Y0078072D01*
X0208844Y0077613D01*
X0210681Y0077613D01*
X0210681Y0076731D02*
X0208844Y0076731D01*
X0208385Y0076272D01*
X0208385Y0074894D01*
X0211140Y0074894D01*
X0211140Y0076272D01*
X0210681Y0076731D01*
X0210681Y0074012D02*
X0211140Y0073553D01*
X0211140Y0072635D01*
X0210681Y0072176D01*
X0209763Y0072635D02*
X0209763Y0073553D01*
X0210222Y0074012D01*
X0210681Y0074012D01*
X0209763Y0072635D02*
X0209303Y0072176D01*
X0208844Y0072176D01*
X0208385Y0072635D01*
X0208385Y0073553D01*
X0208844Y0074012D01*
X0208385Y0093042D02*
X0208385Y0094419D01*
X0208844Y0094878D01*
X0210681Y0094878D01*
X0211140Y0094419D01*
X0211140Y0093042D01*
X0208385Y0093042D01*
X0208385Y0095761D02*
X0208385Y0097138D01*
X0208844Y0097597D01*
X0209763Y0097597D01*
X0210222Y0097138D01*
X0210222Y0095761D01*
X0210222Y0096679D02*
X0211140Y0097597D01*
X0211140Y0095761D02*
X0208385Y0095761D01*
X0208385Y0102491D02*
X0208385Y0103409D01*
X0208385Y0102950D02*
X0211140Y0102950D01*
X0211140Y0102491D02*
X0211140Y0103409D01*
X0211140Y0104303D02*
X0208385Y0104303D01*
X0211140Y0106140D01*
X0208385Y0106140D01*
X0208385Y0107022D02*
X0208385Y0108859D01*
X0208385Y0107940D02*
X0211140Y0107940D01*
D12*
X0184662Y0107583D02*
X0184662Y0110185D01*
X0183795Y0111053D01*
X0180325Y0111053D01*
X0179458Y0110185D01*
X0179458Y0107583D01*
X0184662Y0107583D01*
X0183795Y0105896D02*
X0180325Y0105896D01*
X0183795Y0102427D01*
X0184662Y0103294D01*
X0184662Y0105029D01*
X0183795Y0105896D01*
X0183795Y0102427D02*
X0180325Y0102427D01*
X0179458Y0103294D01*
X0179458Y0105029D01*
X0180325Y0105896D01*
X0180325Y0100740D02*
X0183795Y0097270D01*
X0184662Y0098138D01*
X0184662Y0099872D01*
X0183795Y0100740D01*
X0180325Y0100740D01*
X0179458Y0099872D01*
X0179458Y0098138D01*
X0180325Y0097270D01*
X0183795Y0097270D01*
X0184662Y0095583D02*
X0184662Y0092114D01*
X0181193Y0095583D01*
X0180325Y0095583D01*
X0179458Y0094716D01*
X0179458Y0092981D01*
X0180325Y0092114D01*
X0182060Y0090427D02*
X0182060Y0086957D01*
X0179458Y0089560D01*
X0184662Y0089560D01*
X0183795Y0085271D02*
X0182060Y0085271D01*
X0182060Y0083536D01*
X0183795Y0085271D02*
X0184662Y0084403D01*
X0184662Y0082668D01*
X0183795Y0081801D01*
X0180325Y0081801D01*
X0179458Y0082668D01*
X0179458Y0084403D01*
X0180325Y0085271D01*
X0180325Y0080114D02*
X0181193Y0080114D01*
X0182060Y0079247D01*
X0182927Y0080114D01*
X0183795Y0080114D01*
X0184662Y0079247D01*
X0184662Y0077512D01*
X0183795Y0076645D01*
X0184662Y0074958D02*
X0184662Y0071488D01*
X0179458Y0071488D01*
X0180325Y0076645D02*
X0179458Y0077512D01*
X0179458Y0079247D01*
X0180325Y0080114D01*
X0182060Y0079247D02*
X0182060Y0078379D01*
X0228855Y0045009D02*
X0228855Y0042255D01*
X0229543Y0041567D01*
X0230920Y0041567D01*
X0231609Y0042255D01*
X0231609Y0043632D01*
X0230232Y0043632D01*
X0231609Y0045009D02*
X0230920Y0045698D01*
X0229543Y0045698D01*
X0228855Y0045009D01*
X0233024Y0045698D02*
X0233024Y0041567D01*
X0235778Y0041567D02*
X0235778Y0045698D01*
X0237192Y0045698D02*
X0239258Y0045698D01*
X0239947Y0045009D01*
X0239947Y0042255D01*
X0239258Y0041567D01*
X0237192Y0041567D01*
X0237192Y0045698D01*
X0233024Y0045698D02*
X0235778Y0041567D01*
X0235224Y0034674D02*
X0235224Y0031920D01*
X0236601Y0030543D01*
X0237978Y0031920D01*
X0237978Y0034674D01*
X0233809Y0034674D02*
X0231055Y0034674D01*
X0231055Y0032609D01*
X0232432Y0033297D01*
X0233121Y0033297D01*
X0233809Y0032609D01*
X0233809Y0031232D01*
X0233121Y0030543D01*
X0231744Y0030543D01*
X0231055Y0031232D01*
D13*
X0228233Y0138367D02*
X0226298Y0138367D01*
X0228233Y0138367D02*
X0229200Y0139335D01*
X0228233Y0140302D01*
X0226298Y0140302D01*
X0226298Y0141314D02*
X0226298Y0142765D01*
X0226782Y0143249D01*
X0227265Y0143249D01*
X0227749Y0142765D01*
X0227749Y0141314D01*
X0227749Y0142765D02*
X0228233Y0143249D01*
X0228717Y0143249D01*
X0229200Y0142765D01*
X0229200Y0141314D01*
X0226298Y0141314D01*
X0227265Y0144260D02*
X0226298Y0145228D01*
X0227265Y0146195D01*
X0229200Y0146195D01*
X0227749Y0146195D02*
X0227749Y0144260D01*
X0227265Y0144260D02*
X0229200Y0144260D01*
X0226298Y0147207D02*
X0226298Y0149142D01*
X0226298Y0148174D02*
X0229200Y0148174D01*
X0229200Y0150153D02*
X0227749Y0152088D01*
X0226298Y0150153D01*
X0225578Y0161843D02*
X0225578Y0163778D01*
X0225578Y0162811D02*
X0222675Y0162811D01*
X0223643Y0161843D01*
X0223159Y0164790D02*
X0222675Y0165274D01*
X0222675Y0166241D01*
X0223159Y0166725D01*
X0225094Y0164790D01*
X0225578Y0165274D01*
X0225578Y0166241D01*
X0225094Y0166725D01*
X0223159Y0166725D01*
X0223159Y0167736D02*
X0222675Y0168220D01*
X0222675Y0169188D01*
X0223159Y0169671D01*
X0225094Y0167736D01*
X0225578Y0168220D01*
X0225578Y0169188D01*
X0225094Y0169671D01*
X0223159Y0169671D01*
X0223643Y0170683D02*
X0225094Y0170683D01*
X0225578Y0171167D01*
X0225578Y0172618D01*
X0223643Y0172618D01*
X0224126Y0173629D02*
X0224126Y0174597D01*
X0222675Y0175564D02*
X0222675Y0173629D01*
X0225578Y0173629D01*
X0225094Y0167736D02*
X0223159Y0167736D01*
X0223159Y0164790D02*
X0225094Y0164790D01*
X0105972Y0164779D02*
X0104037Y0164779D01*
X0104037Y0165746D02*
X0104037Y0166230D01*
X0104037Y0165746D02*
X0105005Y0164779D01*
X0105005Y0167234D02*
X0105005Y0169169D01*
X0104521Y0169169D01*
X0104037Y0168685D01*
X0104037Y0167718D01*
X0104521Y0167234D01*
X0105488Y0167234D01*
X0105972Y0167718D01*
X0105972Y0168685D01*
X0104037Y0170180D02*
X0105972Y0171148D01*
X0104037Y0172115D01*
X0105488Y0173127D02*
X0105488Y0173611D01*
X0105972Y0173611D01*
X0105972Y0173127D01*
X0105488Y0173127D01*
X0101172Y0173120D02*
X0100688Y0172636D01*
X0099721Y0172636D01*
X0099237Y0173120D01*
X0099237Y0174087D01*
X0099721Y0174571D01*
X0100205Y0174571D01*
X0100205Y0172636D01*
X0101172Y0173120D02*
X0101172Y0174087D01*
X0101172Y0175582D02*
X0101172Y0176550D01*
X0101172Y0176066D02*
X0098270Y0176066D01*
X0098270Y0175582D01*
X0099721Y0177547D02*
X0099237Y0178031D01*
X0099237Y0179482D01*
X0098270Y0179482D02*
X0101172Y0179482D01*
X0101172Y0178031D01*
X0100688Y0177547D01*
X0099721Y0177547D01*
X0103070Y0178031D02*
X0103070Y0178998D01*
X0103553Y0179482D01*
X0105488Y0177547D01*
X0105972Y0178031D01*
X0105972Y0178998D01*
X0105488Y0179482D01*
X0103553Y0179482D01*
X0103070Y0178031D02*
X0103553Y0177547D01*
X0105488Y0177547D01*
X0101172Y0171639D02*
X0101172Y0170672D01*
X0101172Y0171155D02*
X0099237Y0171155D01*
X0099237Y0170672D01*
X0098270Y0171155D02*
X0097786Y0171155D01*
X0099721Y0169660D02*
X0101172Y0169660D01*
X0099721Y0169660D02*
X0099237Y0169176D01*
X0099237Y0168209D01*
X0099721Y0167725D01*
X0099237Y0166714D02*
X0099237Y0165262D01*
X0099721Y0164779D01*
X0100205Y0165262D01*
X0100205Y0166230D01*
X0100688Y0166714D01*
X0101172Y0166230D01*
X0101172Y0164779D01*
X0101172Y0167725D02*
X0098270Y0167725D01*
X0099237Y0160828D02*
X0099237Y0160344D01*
X0100205Y0159377D01*
X0101172Y0159377D02*
X0099237Y0159377D01*
X0099721Y0158365D02*
X0101172Y0158365D01*
X0101172Y0156914D01*
X0100688Y0156430D01*
X0100205Y0156914D01*
X0100205Y0158365D01*
X0099721Y0158365D02*
X0099237Y0157881D01*
X0099237Y0156914D01*
X0099237Y0155419D02*
X0099237Y0153967D01*
X0099721Y0153484D01*
X0100688Y0153484D01*
X0101172Y0153967D01*
X0101172Y0155419D01*
X0101172Y0152487D02*
X0100688Y0152003D01*
X0098753Y0152003D01*
X0099237Y0151519D02*
X0099237Y0152487D01*
X0099237Y0150515D02*
X0099237Y0150031D01*
X0100205Y0149064D01*
X0101172Y0149064D02*
X0099237Y0149064D01*
X0099721Y0148052D02*
X0101172Y0148052D01*
X0101172Y0146601D01*
X0100688Y0146117D01*
X0100205Y0146601D01*
X0100205Y0148052D01*
X0099721Y0148052D02*
X0099237Y0147568D01*
X0099237Y0146601D01*
X0099721Y0145106D02*
X0101172Y0145106D01*
X0101172Y0144138D02*
X0099721Y0144138D01*
X0099237Y0144622D01*
X0099721Y0145106D01*
X0099721Y0144138D02*
X0099237Y0143654D01*
X0099237Y0143171D01*
X0101172Y0143171D01*
X0100688Y0142159D02*
X0101172Y0141675D01*
X0101172Y0140708D01*
X0100688Y0140224D01*
X0099721Y0140708D02*
X0099721Y0141675D01*
X0100205Y0142159D01*
X0100688Y0142159D01*
X0099721Y0140708D02*
X0099237Y0140224D01*
X0098753Y0140224D01*
X0098270Y0140708D01*
X0098270Y0141675D01*
X0098753Y0142159D01*
D14*
X0096433Y0136796D02*
X0105835Y0136796D01*
X0131835Y0136796D01*
X0132634Y0136796D01*
X0132634Y0097497D01*
X0131835Y0097497D01*
X0105835Y0097497D01*
X0096433Y0097497D01*
X0096433Y0136796D01*
X0105835Y0136796D02*
X0105835Y0130497D01*
X0105835Y0123497D02*
X0105835Y0110796D01*
X0105835Y0103796D02*
X0105835Y0097497D01*
X0105835Y0092111D02*
X0096433Y0092111D01*
X0096433Y0052812D01*
X0105835Y0052812D01*
X0131835Y0052812D01*
X0131835Y0092111D01*
X0132634Y0092111D01*
X0132634Y0052812D01*
X0131835Y0052812D01*
X0124633Y0062612D02*
X0124635Y0062701D01*
X0124641Y0062790D01*
X0124651Y0062879D01*
X0124665Y0062967D01*
X0124682Y0063054D01*
X0124704Y0063140D01*
X0124730Y0063226D01*
X0124759Y0063310D01*
X0124792Y0063393D01*
X0124828Y0063474D01*
X0124869Y0063554D01*
X0124912Y0063631D01*
X0124959Y0063707D01*
X0125010Y0063780D01*
X0125063Y0063851D01*
X0125120Y0063920D01*
X0125180Y0063986D01*
X0125243Y0064050D01*
X0125308Y0064110D01*
X0125376Y0064168D01*
X0125447Y0064222D01*
X0125520Y0064273D01*
X0125595Y0064321D01*
X0125672Y0064366D01*
X0125751Y0064407D01*
X0125832Y0064444D01*
X0125914Y0064478D01*
X0125998Y0064509D01*
X0126083Y0064535D01*
X0126169Y0064558D01*
X0126256Y0064576D01*
X0126344Y0064591D01*
X0126433Y0064602D01*
X0126522Y0064609D01*
X0126611Y0064612D01*
X0126700Y0064611D01*
X0126789Y0064606D01*
X0126877Y0064597D01*
X0126966Y0064584D01*
X0127053Y0064567D01*
X0127140Y0064547D01*
X0127226Y0064522D01*
X0127310Y0064494D01*
X0127393Y0064462D01*
X0127475Y0064426D01*
X0127555Y0064387D01*
X0127633Y0064344D01*
X0127709Y0064298D01*
X0127783Y0064248D01*
X0127855Y0064195D01*
X0127924Y0064139D01*
X0127991Y0064080D01*
X0128055Y0064018D01*
X0128116Y0063954D01*
X0128175Y0063886D01*
X0128230Y0063816D01*
X0128282Y0063744D01*
X0128331Y0063669D01*
X0128376Y0063593D01*
X0128418Y0063514D01*
X0128456Y0063434D01*
X0128491Y0063352D01*
X0128522Y0063268D01*
X0128550Y0063183D01*
X0128573Y0063097D01*
X0128593Y0063010D01*
X0128609Y0062923D01*
X0128621Y0062834D01*
X0128629Y0062746D01*
X0128633Y0062657D01*
X0128633Y0062567D01*
X0128629Y0062478D01*
X0128621Y0062390D01*
X0128609Y0062301D01*
X0128593Y0062214D01*
X0128573Y0062127D01*
X0128550Y0062041D01*
X0128522Y0061956D01*
X0128491Y0061872D01*
X0128456Y0061790D01*
X0128418Y0061710D01*
X0128376Y0061631D01*
X0128331Y0061555D01*
X0128282Y0061480D01*
X0128230Y0061408D01*
X0128175Y0061338D01*
X0128116Y0061270D01*
X0128055Y0061206D01*
X0127991Y0061144D01*
X0127924Y0061085D01*
X0127855Y0061029D01*
X0127783Y0060976D01*
X0127709Y0060926D01*
X0127633Y0060880D01*
X0127555Y0060837D01*
X0127475Y0060798D01*
X0127393Y0060762D01*
X0127310Y0060730D01*
X0127226Y0060702D01*
X0127140Y0060677D01*
X0127053Y0060657D01*
X0126966Y0060640D01*
X0126877Y0060627D01*
X0126789Y0060618D01*
X0126700Y0060613D01*
X0126611Y0060612D01*
X0126522Y0060615D01*
X0126433Y0060622D01*
X0126344Y0060633D01*
X0126256Y0060648D01*
X0126169Y0060666D01*
X0126083Y0060689D01*
X0125998Y0060715D01*
X0125914Y0060746D01*
X0125832Y0060780D01*
X0125751Y0060817D01*
X0125672Y0060858D01*
X0125595Y0060903D01*
X0125520Y0060951D01*
X0125447Y0061002D01*
X0125376Y0061056D01*
X0125308Y0061114D01*
X0125243Y0061174D01*
X0125180Y0061238D01*
X0125120Y0061304D01*
X0125063Y0061373D01*
X0125010Y0061444D01*
X0124959Y0061517D01*
X0124912Y0061593D01*
X0124869Y0061670D01*
X0124828Y0061750D01*
X0124792Y0061831D01*
X0124759Y0061914D01*
X0124730Y0061998D01*
X0124704Y0062084D01*
X0124682Y0062170D01*
X0124665Y0062257D01*
X0124651Y0062345D01*
X0124641Y0062434D01*
X0124635Y0062523D01*
X0124633Y0062612D01*
X0105835Y0066111D02*
X0105835Y0078812D01*
X0105835Y0085812D02*
X0105835Y0092111D01*
X0131835Y0092111D01*
X0131835Y0097497D02*
X0131835Y0136796D01*
X0124633Y0126997D02*
X0124635Y0127086D01*
X0124641Y0127175D01*
X0124651Y0127264D01*
X0124665Y0127352D01*
X0124682Y0127439D01*
X0124704Y0127525D01*
X0124730Y0127611D01*
X0124759Y0127695D01*
X0124792Y0127778D01*
X0124828Y0127859D01*
X0124869Y0127939D01*
X0124912Y0128016D01*
X0124959Y0128092D01*
X0125010Y0128165D01*
X0125063Y0128236D01*
X0125120Y0128305D01*
X0125180Y0128371D01*
X0125243Y0128435D01*
X0125308Y0128495D01*
X0125376Y0128553D01*
X0125447Y0128607D01*
X0125520Y0128658D01*
X0125595Y0128706D01*
X0125672Y0128751D01*
X0125751Y0128792D01*
X0125832Y0128829D01*
X0125914Y0128863D01*
X0125998Y0128894D01*
X0126083Y0128920D01*
X0126169Y0128943D01*
X0126256Y0128961D01*
X0126344Y0128976D01*
X0126433Y0128987D01*
X0126522Y0128994D01*
X0126611Y0128997D01*
X0126700Y0128996D01*
X0126789Y0128991D01*
X0126877Y0128982D01*
X0126966Y0128969D01*
X0127053Y0128952D01*
X0127140Y0128932D01*
X0127226Y0128907D01*
X0127310Y0128879D01*
X0127393Y0128847D01*
X0127475Y0128811D01*
X0127555Y0128772D01*
X0127633Y0128729D01*
X0127709Y0128683D01*
X0127783Y0128633D01*
X0127855Y0128580D01*
X0127924Y0128524D01*
X0127991Y0128465D01*
X0128055Y0128403D01*
X0128116Y0128339D01*
X0128175Y0128271D01*
X0128230Y0128201D01*
X0128282Y0128129D01*
X0128331Y0128054D01*
X0128376Y0127978D01*
X0128418Y0127899D01*
X0128456Y0127819D01*
X0128491Y0127737D01*
X0128522Y0127653D01*
X0128550Y0127568D01*
X0128573Y0127482D01*
X0128593Y0127395D01*
X0128609Y0127308D01*
X0128621Y0127219D01*
X0128629Y0127131D01*
X0128633Y0127042D01*
X0128633Y0126952D01*
X0128629Y0126863D01*
X0128621Y0126775D01*
X0128609Y0126686D01*
X0128593Y0126599D01*
X0128573Y0126512D01*
X0128550Y0126426D01*
X0128522Y0126341D01*
X0128491Y0126257D01*
X0128456Y0126175D01*
X0128418Y0126095D01*
X0128376Y0126016D01*
X0128331Y0125940D01*
X0128282Y0125865D01*
X0128230Y0125793D01*
X0128175Y0125723D01*
X0128116Y0125655D01*
X0128055Y0125591D01*
X0127991Y0125529D01*
X0127924Y0125470D01*
X0127855Y0125414D01*
X0127783Y0125361D01*
X0127709Y0125311D01*
X0127633Y0125265D01*
X0127555Y0125222D01*
X0127475Y0125183D01*
X0127393Y0125147D01*
X0127310Y0125115D01*
X0127226Y0125087D01*
X0127140Y0125062D01*
X0127053Y0125042D01*
X0126966Y0125025D01*
X0126877Y0125012D01*
X0126789Y0125003D01*
X0126700Y0124998D01*
X0126611Y0124997D01*
X0126522Y0125000D01*
X0126433Y0125007D01*
X0126344Y0125018D01*
X0126256Y0125033D01*
X0126169Y0125051D01*
X0126083Y0125074D01*
X0125998Y0125100D01*
X0125914Y0125131D01*
X0125832Y0125165D01*
X0125751Y0125202D01*
X0125672Y0125243D01*
X0125595Y0125288D01*
X0125520Y0125336D01*
X0125447Y0125387D01*
X0125376Y0125441D01*
X0125308Y0125499D01*
X0125243Y0125559D01*
X0125180Y0125623D01*
X0125120Y0125689D01*
X0125063Y0125758D01*
X0125010Y0125829D01*
X0124959Y0125902D01*
X0124912Y0125978D01*
X0124869Y0126055D01*
X0124828Y0126135D01*
X0124792Y0126216D01*
X0124759Y0126299D01*
X0124730Y0126383D01*
X0124704Y0126469D01*
X0124682Y0126555D01*
X0124665Y0126642D01*
X0124651Y0126730D01*
X0124641Y0126819D01*
X0124635Y0126908D01*
X0124633Y0126997D01*
X0124633Y0107297D02*
X0124635Y0107386D01*
X0124641Y0107475D01*
X0124651Y0107564D01*
X0124665Y0107652D01*
X0124682Y0107739D01*
X0124704Y0107825D01*
X0124730Y0107911D01*
X0124759Y0107995D01*
X0124792Y0108078D01*
X0124828Y0108159D01*
X0124869Y0108239D01*
X0124912Y0108316D01*
X0124959Y0108392D01*
X0125010Y0108465D01*
X0125063Y0108536D01*
X0125120Y0108605D01*
X0125180Y0108671D01*
X0125243Y0108735D01*
X0125308Y0108795D01*
X0125376Y0108853D01*
X0125447Y0108907D01*
X0125520Y0108958D01*
X0125595Y0109006D01*
X0125672Y0109051D01*
X0125751Y0109092D01*
X0125832Y0109129D01*
X0125914Y0109163D01*
X0125998Y0109194D01*
X0126083Y0109220D01*
X0126169Y0109243D01*
X0126256Y0109261D01*
X0126344Y0109276D01*
X0126433Y0109287D01*
X0126522Y0109294D01*
X0126611Y0109297D01*
X0126700Y0109296D01*
X0126789Y0109291D01*
X0126877Y0109282D01*
X0126966Y0109269D01*
X0127053Y0109252D01*
X0127140Y0109232D01*
X0127226Y0109207D01*
X0127310Y0109179D01*
X0127393Y0109147D01*
X0127475Y0109111D01*
X0127555Y0109072D01*
X0127633Y0109029D01*
X0127709Y0108983D01*
X0127783Y0108933D01*
X0127855Y0108880D01*
X0127924Y0108824D01*
X0127991Y0108765D01*
X0128055Y0108703D01*
X0128116Y0108639D01*
X0128175Y0108571D01*
X0128230Y0108501D01*
X0128282Y0108429D01*
X0128331Y0108354D01*
X0128376Y0108278D01*
X0128418Y0108199D01*
X0128456Y0108119D01*
X0128491Y0108037D01*
X0128522Y0107953D01*
X0128550Y0107868D01*
X0128573Y0107782D01*
X0128593Y0107695D01*
X0128609Y0107608D01*
X0128621Y0107519D01*
X0128629Y0107431D01*
X0128633Y0107342D01*
X0128633Y0107252D01*
X0128629Y0107163D01*
X0128621Y0107075D01*
X0128609Y0106986D01*
X0128593Y0106899D01*
X0128573Y0106812D01*
X0128550Y0106726D01*
X0128522Y0106641D01*
X0128491Y0106557D01*
X0128456Y0106475D01*
X0128418Y0106395D01*
X0128376Y0106316D01*
X0128331Y0106240D01*
X0128282Y0106165D01*
X0128230Y0106093D01*
X0128175Y0106023D01*
X0128116Y0105955D01*
X0128055Y0105891D01*
X0127991Y0105829D01*
X0127924Y0105770D01*
X0127855Y0105714D01*
X0127783Y0105661D01*
X0127709Y0105611D01*
X0127633Y0105565D01*
X0127555Y0105522D01*
X0127475Y0105483D01*
X0127393Y0105447D01*
X0127310Y0105415D01*
X0127226Y0105387D01*
X0127140Y0105362D01*
X0127053Y0105342D01*
X0126966Y0105325D01*
X0126877Y0105312D01*
X0126789Y0105303D01*
X0126700Y0105298D01*
X0126611Y0105297D01*
X0126522Y0105300D01*
X0126433Y0105307D01*
X0126344Y0105318D01*
X0126256Y0105333D01*
X0126169Y0105351D01*
X0126083Y0105374D01*
X0125998Y0105400D01*
X0125914Y0105431D01*
X0125832Y0105465D01*
X0125751Y0105502D01*
X0125672Y0105543D01*
X0125595Y0105588D01*
X0125520Y0105636D01*
X0125447Y0105687D01*
X0125376Y0105741D01*
X0125308Y0105799D01*
X0125243Y0105859D01*
X0125180Y0105923D01*
X0125120Y0105989D01*
X0125063Y0106058D01*
X0125010Y0106129D01*
X0124959Y0106202D01*
X0124912Y0106278D01*
X0124869Y0106355D01*
X0124828Y0106435D01*
X0124792Y0106516D01*
X0124759Y0106599D01*
X0124730Y0106683D01*
X0124704Y0106769D01*
X0124682Y0106855D01*
X0124665Y0106942D01*
X0124651Y0107030D01*
X0124641Y0107119D01*
X0124635Y0107208D01*
X0124633Y0107297D01*
X0124633Y0082312D02*
X0124635Y0082401D01*
X0124641Y0082490D01*
X0124651Y0082579D01*
X0124665Y0082667D01*
X0124682Y0082754D01*
X0124704Y0082840D01*
X0124730Y0082926D01*
X0124759Y0083010D01*
X0124792Y0083093D01*
X0124828Y0083174D01*
X0124869Y0083254D01*
X0124912Y0083331D01*
X0124959Y0083407D01*
X0125010Y0083480D01*
X0125063Y0083551D01*
X0125120Y0083620D01*
X0125180Y0083686D01*
X0125243Y0083750D01*
X0125308Y0083810D01*
X0125376Y0083868D01*
X0125447Y0083922D01*
X0125520Y0083973D01*
X0125595Y0084021D01*
X0125672Y0084066D01*
X0125751Y0084107D01*
X0125832Y0084144D01*
X0125914Y0084178D01*
X0125998Y0084209D01*
X0126083Y0084235D01*
X0126169Y0084258D01*
X0126256Y0084276D01*
X0126344Y0084291D01*
X0126433Y0084302D01*
X0126522Y0084309D01*
X0126611Y0084312D01*
X0126700Y0084311D01*
X0126789Y0084306D01*
X0126877Y0084297D01*
X0126966Y0084284D01*
X0127053Y0084267D01*
X0127140Y0084247D01*
X0127226Y0084222D01*
X0127310Y0084194D01*
X0127393Y0084162D01*
X0127475Y0084126D01*
X0127555Y0084087D01*
X0127633Y0084044D01*
X0127709Y0083998D01*
X0127783Y0083948D01*
X0127855Y0083895D01*
X0127924Y0083839D01*
X0127991Y0083780D01*
X0128055Y0083718D01*
X0128116Y0083654D01*
X0128175Y0083586D01*
X0128230Y0083516D01*
X0128282Y0083444D01*
X0128331Y0083369D01*
X0128376Y0083293D01*
X0128418Y0083214D01*
X0128456Y0083134D01*
X0128491Y0083052D01*
X0128522Y0082968D01*
X0128550Y0082883D01*
X0128573Y0082797D01*
X0128593Y0082710D01*
X0128609Y0082623D01*
X0128621Y0082534D01*
X0128629Y0082446D01*
X0128633Y0082357D01*
X0128633Y0082267D01*
X0128629Y0082178D01*
X0128621Y0082090D01*
X0128609Y0082001D01*
X0128593Y0081914D01*
X0128573Y0081827D01*
X0128550Y0081741D01*
X0128522Y0081656D01*
X0128491Y0081572D01*
X0128456Y0081490D01*
X0128418Y0081410D01*
X0128376Y0081331D01*
X0128331Y0081255D01*
X0128282Y0081180D01*
X0128230Y0081108D01*
X0128175Y0081038D01*
X0128116Y0080970D01*
X0128055Y0080906D01*
X0127991Y0080844D01*
X0127924Y0080785D01*
X0127855Y0080729D01*
X0127783Y0080676D01*
X0127709Y0080626D01*
X0127633Y0080580D01*
X0127555Y0080537D01*
X0127475Y0080498D01*
X0127393Y0080462D01*
X0127310Y0080430D01*
X0127226Y0080402D01*
X0127140Y0080377D01*
X0127053Y0080357D01*
X0126966Y0080340D01*
X0126877Y0080327D01*
X0126789Y0080318D01*
X0126700Y0080313D01*
X0126611Y0080312D01*
X0126522Y0080315D01*
X0126433Y0080322D01*
X0126344Y0080333D01*
X0126256Y0080348D01*
X0126169Y0080366D01*
X0126083Y0080389D01*
X0125998Y0080415D01*
X0125914Y0080446D01*
X0125832Y0080480D01*
X0125751Y0080517D01*
X0125672Y0080558D01*
X0125595Y0080603D01*
X0125520Y0080651D01*
X0125447Y0080702D01*
X0125376Y0080756D01*
X0125308Y0080814D01*
X0125243Y0080874D01*
X0125180Y0080938D01*
X0125120Y0081004D01*
X0125063Y0081073D01*
X0125010Y0081144D01*
X0124959Y0081217D01*
X0124912Y0081293D01*
X0124869Y0081370D01*
X0124828Y0081450D01*
X0124792Y0081531D01*
X0124759Y0081614D01*
X0124730Y0081698D01*
X0124704Y0081784D01*
X0124682Y0081870D01*
X0124665Y0081957D01*
X0124651Y0082045D01*
X0124641Y0082134D01*
X0124635Y0082223D01*
X0124633Y0082312D01*
X0105835Y0059111D02*
X0105835Y0052812D01*
X0145821Y0033127D02*
X0145821Y0030858D01*
X0149224Y0030858D01*
X0149224Y0029443D02*
X0149224Y0027175D01*
X0145821Y0027175D01*
X0145821Y0029443D01*
X0147522Y0028309D02*
X0147522Y0027175D01*
X0147522Y0025760D02*
X0146388Y0025760D01*
X0145821Y0025193D01*
X0145821Y0023492D01*
X0149224Y0023492D01*
X0148089Y0023492D02*
X0148089Y0025193D01*
X0147522Y0025760D01*
X0148089Y0024626D02*
X0149224Y0025760D01*
X0148656Y0022077D02*
X0146388Y0022077D01*
X0145821Y0021510D01*
X0145821Y0020376D01*
X0146388Y0019809D01*
X0148656Y0019809D01*
X0149224Y0020376D01*
X0149224Y0021510D01*
X0148656Y0022077D01*
X0149224Y0018487D02*
X0149224Y0017353D01*
X0149224Y0017920D02*
X0145821Y0017920D01*
X0145821Y0017353D02*
X0145821Y0018487D01*
X0155821Y0019055D02*
X0156388Y0019622D01*
X0157522Y0019622D01*
X0158089Y0019055D01*
X0158089Y0017353D01*
X0158089Y0018487D02*
X0159224Y0019622D01*
X0158656Y0021036D02*
X0159224Y0021603D01*
X0159224Y0022738D01*
X0158656Y0023305D01*
X0158089Y0023305D01*
X0157522Y0022738D01*
X0157522Y0021603D01*
X0156955Y0021036D01*
X0156388Y0021036D01*
X0155821Y0021603D01*
X0155821Y0022738D01*
X0156388Y0023305D01*
X0155821Y0024719D02*
X0155821Y0026988D01*
X0155821Y0025854D02*
X0159224Y0025854D01*
X0165821Y0027128D02*
X0165821Y0028262D01*
X0166388Y0028830D01*
X0166955Y0028830D01*
X0167522Y0028262D01*
X0168089Y0028830D01*
X0168656Y0028830D01*
X0169224Y0028262D01*
X0169224Y0027128D01*
X0168656Y0026561D01*
X0168656Y0025287D02*
X0169224Y0025287D01*
X0169224Y0024719D01*
X0168656Y0024719D01*
X0168656Y0025287D01*
X0168656Y0023305D02*
X0169224Y0022738D01*
X0169224Y0021603D01*
X0168656Y0021036D01*
X0167522Y0022171D02*
X0167522Y0022738D01*
X0168089Y0023305D01*
X0168656Y0023305D01*
X0167522Y0022738D02*
X0166955Y0023305D01*
X0166388Y0023305D01*
X0165821Y0022738D01*
X0165821Y0021603D01*
X0166388Y0021036D01*
X0167522Y0019622D02*
X0167522Y0017353D01*
X0166388Y0018487D02*
X0168656Y0018487D01*
X0175821Y0021036D02*
X0175821Y0023305D01*
X0176955Y0022738D02*
X0177522Y0023305D01*
X0178656Y0023305D01*
X0179224Y0022738D01*
X0179224Y0021603D01*
X0178656Y0021036D01*
X0177522Y0021036D02*
X0176955Y0022171D01*
X0176955Y0022738D01*
X0177522Y0021036D02*
X0175821Y0021036D01*
X0177522Y0019622D02*
X0177522Y0017353D01*
X0176388Y0018487D02*
X0178656Y0018487D01*
X0178089Y0024719D02*
X0175821Y0024719D01*
X0178089Y0024719D02*
X0179224Y0025854D01*
X0178089Y0026988D01*
X0175821Y0026988D01*
X0169224Y0031378D02*
X0168089Y0032513D01*
X0165821Y0032513D01*
X0168089Y0030244D02*
X0169224Y0031378D01*
X0168089Y0030244D02*
X0165821Y0030244D01*
X0167522Y0028262D02*
X0167522Y0027695D01*
X0166388Y0026561D02*
X0165821Y0027128D01*
X0159224Y0017353D02*
X0155821Y0017353D01*
X0155821Y0019055D01*
X0147522Y0030858D02*
X0147522Y0031992D01*
X0185821Y0026421D02*
X0185821Y0024719D01*
X0189224Y0024719D01*
X0189224Y0026421D01*
X0188656Y0026988D01*
X0186388Y0026988D01*
X0185821Y0026421D01*
X0185821Y0023305D02*
X0189224Y0023305D01*
X0185821Y0021036D01*
X0189224Y0021036D01*
X0188656Y0019622D02*
X0187522Y0019622D01*
X0187522Y0018487D01*
X0186388Y0017353D02*
X0188656Y0017353D01*
X0189224Y0017920D01*
X0189224Y0019055D01*
X0188656Y0019622D01*
X0186388Y0019622D02*
X0185821Y0019055D01*
X0185821Y0017920D01*
X0186388Y0017353D01*
X0195821Y0017920D02*
X0196388Y0017353D01*
X0198656Y0017353D01*
X0199224Y0017920D01*
X0199224Y0019055D01*
X0198656Y0019622D01*
X0197522Y0019622D01*
X0197522Y0018487D01*
X0196388Y0019622D02*
X0195821Y0019055D01*
X0195821Y0017920D01*
X0195821Y0021036D02*
X0199224Y0023305D01*
X0195821Y0023305D01*
X0195821Y0024719D02*
X0195821Y0026421D01*
X0196388Y0026988D01*
X0198656Y0026988D01*
X0199224Y0026421D01*
X0199224Y0024719D01*
X0195821Y0024719D01*
X0195821Y0021036D02*
X0199224Y0021036D01*
X0205821Y0021036D02*
X0205821Y0022171D01*
X0205821Y0021603D02*
X0209224Y0021603D01*
X0209224Y0021036D02*
X0209224Y0022171D01*
X0209224Y0023492D02*
X0205821Y0023492D01*
X0209224Y0025760D01*
X0205821Y0025760D01*
X0205821Y0019622D02*
X0208089Y0019622D01*
X0209224Y0018487D01*
X0208089Y0017353D01*
X0205821Y0017353D01*
X0225821Y0017920D02*
X0225821Y0019055D01*
X0226388Y0019622D01*
X0228656Y0017353D01*
X0229224Y0017920D01*
X0229224Y0019055D01*
X0228656Y0019622D01*
X0226388Y0019622D01*
X0225821Y0017920D02*
X0226388Y0017353D01*
X0228656Y0017353D01*
X0235821Y0018487D02*
X0239224Y0018487D01*
X0239224Y0017353D02*
X0239224Y0019622D01*
X0236955Y0017353D02*
X0235821Y0018487D01*
X0237631Y0023353D02*
X0237631Y0025622D01*
X0238765Y0026756D01*
X0239899Y0025622D01*
X0239899Y0023353D01*
X0241314Y0023353D02*
X0241314Y0025622D01*
X0243015Y0025622D01*
X0243582Y0025055D01*
X0243582Y0023353D01*
X0244997Y0023920D02*
X0245564Y0024487D01*
X0247266Y0024487D01*
X0247266Y0025055D02*
X0247266Y0023353D01*
X0245564Y0023353D01*
X0244997Y0023920D01*
X0245564Y0025622D02*
X0246698Y0025622D01*
X0247266Y0025055D01*
X0248680Y0026756D02*
X0249247Y0026756D01*
X0249247Y0023353D01*
X0248680Y0023353D02*
X0249814Y0023353D01*
X0251136Y0023920D02*
X0251703Y0023353D01*
X0252837Y0023353D01*
X0253404Y0023920D01*
X0253404Y0025055D01*
X0252837Y0025622D01*
X0251703Y0025622D01*
X0251136Y0025055D01*
X0251136Y0023920D01*
X0254819Y0023920D02*
X0255386Y0023353D01*
X0257087Y0023353D01*
X0257087Y0022786D02*
X0257087Y0025622D01*
X0255386Y0025622D01*
X0254819Y0025055D01*
X0254819Y0023920D01*
X0255953Y0022219D02*
X0256520Y0022219D01*
X0257087Y0022786D01*
X0256955Y0019622D02*
X0257522Y0019055D01*
X0258089Y0019622D01*
X0258656Y0019622D01*
X0259224Y0019055D01*
X0259224Y0017920D01*
X0258656Y0017353D01*
X0257522Y0018487D02*
X0257522Y0019055D01*
X0256955Y0019622D02*
X0256388Y0019622D01*
X0255821Y0019055D01*
X0255821Y0017920D01*
X0256388Y0017353D01*
X0249224Y0017353D02*
X0246955Y0019622D01*
X0246388Y0019622D01*
X0245821Y0019055D01*
X0245821Y0017920D01*
X0246388Y0017353D01*
X0249224Y0017353D02*
X0249224Y0019622D01*
X0239899Y0025055D02*
X0237631Y0025055D01*
X0262185Y0026756D02*
X0263319Y0026756D01*
X0262752Y0026756D02*
X0262752Y0023353D01*
X0262185Y0023353D02*
X0263319Y0023353D01*
X0264640Y0023353D02*
X0264640Y0025622D01*
X0266342Y0025622D01*
X0266909Y0025055D01*
X0266909Y0023353D01*
X0267522Y0019622D02*
X0267522Y0017353D01*
X0265821Y0019055D01*
X0269224Y0019055D01*
X0275821Y0019622D02*
X0275821Y0017353D01*
X0277522Y0017353D01*
X0276955Y0018487D01*
X0276955Y0019055D01*
X0277522Y0019622D01*
X0278656Y0019622D01*
X0279224Y0019055D01*
X0279224Y0017920D01*
X0278656Y0017353D01*
X0282150Y0053024D02*
X0272748Y0053024D01*
X0246748Y0053024D01*
X0245949Y0053024D01*
X0245949Y0092324D01*
X0246748Y0092324D01*
X0272748Y0092324D01*
X0282150Y0092324D01*
X0282150Y0053024D01*
X0272748Y0053024D02*
X0272748Y0059324D01*
X0272748Y0066324D02*
X0272748Y0079024D01*
X0272748Y0086024D02*
X0272748Y0092324D01*
X0272748Y0097119D02*
X0246748Y0097119D01*
X0245949Y0097119D01*
X0245949Y0136418D01*
X0246748Y0136418D01*
X0272748Y0136418D01*
X0282150Y0136418D01*
X0282150Y0097119D01*
X0272748Y0097119D01*
X0272748Y0103418D01*
X0272748Y0110418D02*
X0272748Y0123119D01*
X0272748Y0130119D02*
X0272748Y0136418D01*
X0272354Y0144166D02*
X0246354Y0144166D01*
X0245555Y0144166D01*
X0245555Y0183465D01*
X0246354Y0183465D01*
X0272354Y0183465D01*
X0281756Y0183465D01*
X0281756Y0144166D01*
X0272354Y0144166D01*
X0272354Y0150465D01*
X0272354Y0157465D02*
X0272354Y0170166D01*
X0272354Y0177166D02*
X0272354Y0183465D01*
X0275821Y0189537D02*
X0275821Y0191238D01*
X0276388Y0191805D01*
X0277522Y0191805D01*
X0278089Y0191238D01*
X0278089Y0189537D01*
X0278089Y0190671D02*
X0279224Y0191805D01*
X0279224Y0193220D02*
X0275821Y0195489D01*
X0275821Y0193220D02*
X0279224Y0195489D01*
X0279224Y0189537D02*
X0275821Y0189537D01*
X0269224Y0190671D02*
X0265821Y0190671D01*
X0265821Y0189537D02*
X0265821Y0191805D01*
X0265821Y0193220D02*
X0269224Y0195489D01*
X0269224Y0193220D02*
X0265821Y0195489D01*
X0259224Y0195489D02*
X0259224Y0193220D01*
X0256955Y0195489D01*
X0256388Y0195489D01*
X0255821Y0194921D01*
X0255821Y0193787D01*
X0256388Y0193220D01*
X0249224Y0193787D02*
X0248656Y0193220D01*
X0249224Y0193787D02*
X0249224Y0194921D01*
X0248656Y0195489D01*
X0248089Y0195489D01*
X0247522Y0194921D01*
X0247522Y0194354D01*
X0247522Y0194921D02*
X0246955Y0195489D01*
X0246388Y0195489D01*
X0245821Y0194921D01*
X0245821Y0193787D01*
X0246388Y0193220D01*
X0239224Y0194921D02*
X0235821Y0194921D01*
X0237522Y0193220D01*
X0237522Y0195489D01*
X0229224Y0194921D02*
X0229224Y0193787D01*
X0228656Y0193220D01*
X0227522Y0193220D02*
X0226955Y0194354D01*
X0226955Y0194921D01*
X0227522Y0195489D01*
X0228656Y0195489D01*
X0229224Y0194921D01*
X0227522Y0193220D02*
X0225821Y0193220D01*
X0225821Y0195489D01*
X0219224Y0194921D02*
X0218656Y0195489D01*
X0218089Y0195489D01*
X0217522Y0194921D01*
X0217522Y0193220D01*
X0218656Y0193220D01*
X0219224Y0193787D01*
X0219224Y0194921D01*
X0217522Y0193220D02*
X0216388Y0194354D01*
X0215821Y0195489D01*
X0209224Y0193220D02*
X0208656Y0193220D01*
X0206388Y0195489D01*
X0205821Y0195489D01*
X0205821Y0193220D01*
X0194224Y0193787D02*
X0193656Y0193220D01*
X0193089Y0193220D01*
X0192522Y0193787D01*
X0192522Y0194921D01*
X0193089Y0195489D01*
X0193656Y0195489D01*
X0194224Y0194921D01*
X0194224Y0193787D01*
X0192522Y0193787D02*
X0191955Y0193220D01*
X0191388Y0193220D01*
X0190821Y0193787D01*
X0190821Y0194921D01*
X0191388Y0195489D01*
X0191955Y0195489D01*
X0192522Y0194921D01*
X0184224Y0194921D02*
X0183656Y0195489D01*
X0181388Y0195489D01*
X0180821Y0194921D01*
X0180821Y0193787D01*
X0181388Y0193220D01*
X0181955Y0193220D01*
X0182522Y0193787D01*
X0182522Y0195489D01*
X0184224Y0194921D02*
X0184224Y0193787D01*
X0183656Y0193220D01*
X0174224Y0193787D02*
X0173656Y0193220D01*
X0171388Y0195489D01*
X0173656Y0195489D01*
X0174224Y0194921D01*
X0174224Y0193787D01*
X0173656Y0193220D02*
X0171388Y0193220D01*
X0170821Y0193787D01*
X0170821Y0194921D01*
X0171388Y0195489D01*
X0174224Y0191805D02*
X0174224Y0189537D01*
X0174224Y0190671D02*
X0170821Y0190671D01*
X0171955Y0189537D01*
X0164224Y0189537D02*
X0164224Y0191805D01*
X0164224Y0190671D02*
X0160821Y0190671D01*
X0161955Y0189537D01*
X0161955Y0193220D02*
X0160821Y0194354D01*
X0164224Y0194354D01*
X0164224Y0193220D02*
X0164224Y0195489D01*
X0154224Y0195489D02*
X0154224Y0193220D01*
X0151955Y0195489D01*
X0151388Y0195489D01*
X0150821Y0194921D01*
X0150821Y0193787D01*
X0151388Y0193220D01*
X0150821Y0190671D02*
X0154224Y0190671D01*
X0154224Y0189537D02*
X0154224Y0191805D01*
X0151955Y0189537D02*
X0150821Y0190671D01*
X0144224Y0190671D02*
X0140821Y0190671D01*
X0141955Y0189537D01*
X0144224Y0189537D02*
X0144224Y0191805D01*
X0143656Y0193220D02*
X0144224Y0193787D01*
X0144224Y0194921D01*
X0143656Y0195489D01*
X0143089Y0195489D01*
X0142522Y0194921D01*
X0142522Y0194354D01*
X0142522Y0194921D02*
X0141955Y0195489D01*
X0141388Y0195489D01*
X0140821Y0194921D01*
X0140821Y0193787D01*
X0141388Y0193220D01*
X0134224Y0193220D02*
X0134224Y0194921D01*
X0133656Y0195489D01*
X0131388Y0195489D01*
X0130821Y0194921D01*
X0130821Y0193220D01*
X0134224Y0193220D01*
X0134224Y0191805D02*
X0130821Y0191805D01*
X0130821Y0189537D02*
X0134224Y0191805D01*
X0134224Y0189537D02*
X0130821Y0189537D01*
X0131388Y0188122D02*
X0130821Y0187555D01*
X0130821Y0186421D01*
X0131388Y0185854D01*
X0133656Y0185854D01*
X0134224Y0186421D01*
X0134224Y0187555D01*
X0133656Y0188122D01*
X0132522Y0188122D01*
X0132522Y0186988D01*
X0124224Y0185854D02*
X0120821Y0185854D01*
X0120821Y0187555D01*
X0121388Y0188122D01*
X0122522Y0188122D01*
X0123089Y0187555D01*
X0123089Y0185854D01*
X0123089Y0186988D02*
X0124224Y0188122D01*
X0124224Y0189537D02*
X0120821Y0189537D01*
X0120821Y0191805D01*
X0120821Y0193220D02*
X0120821Y0195489D01*
X0122522Y0194354D02*
X0122522Y0193220D01*
X0120821Y0193220D02*
X0124224Y0193220D01*
X0124224Y0191805D02*
X0124224Y0189537D01*
X0122522Y0189537D02*
X0122522Y0190671D01*
X0114224Y0191238D02*
X0114224Y0189537D01*
X0110821Y0189537D01*
X0110821Y0191238D01*
X0111388Y0191805D01*
X0113656Y0191805D01*
X0114224Y0191238D01*
X0114224Y0193220D02*
X0111955Y0193220D01*
X0110821Y0194354D01*
X0111955Y0195489D01*
X0114224Y0195489D01*
X0112522Y0195489D02*
X0112522Y0193220D01*
X0113089Y0188122D02*
X0113656Y0188122D01*
X0114224Y0187555D01*
X0114224Y0186421D01*
X0113656Y0185854D01*
X0112522Y0186421D02*
X0112522Y0187555D01*
X0113089Y0188122D01*
X0111388Y0188122D02*
X0110821Y0187555D01*
X0110821Y0186421D01*
X0111388Y0185854D01*
X0111955Y0185854D01*
X0112522Y0186421D01*
X0104224Y0186421D02*
X0103656Y0185854D01*
X0104224Y0186421D02*
X0104224Y0187555D01*
X0103656Y0188122D01*
X0103089Y0188122D01*
X0102522Y0187555D01*
X0102522Y0186421D01*
X0101955Y0185854D01*
X0101388Y0185854D01*
X0100821Y0186421D01*
X0100821Y0187555D01*
X0101388Y0188122D01*
X0101388Y0189537D02*
X0103656Y0189537D01*
X0104224Y0190104D01*
X0104224Y0191238D01*
X0103656Y0191805D01*
X0104224Y0193220D02*
X0100821Y0193220D01*
X0101388Y0191805D02*
X0100821Y0191238D01*
X0100821Y0190104D01*
X0101388Y0189537D01*
X0104224Y0193220D02*
X0104224Y0195489D01*
X0120821Y0183305D02*
X0121955Y0184439D01*
X0124224Y0184439D01*
X0122522Y0184439D02*
X0122522Y0182171D01*
X0121955Y0182171D02*
X0120821Y0183305D01*
X0121955Y0182171D02*
X0124224Y0182171D01*
X0133445Y0173536D02*
X0133445Y0166036D01*
X0133571Y0166034D01*
X0133696Y0166028D01*
X0133821Y0166018D01*
X0133946Y0166004D01*
X0134071Y0165987D01*
X0134195Y0165965D01*
X0134318Y0165940D01*
X0134440Y0165910D01*
X0134561Y0165877D01*
X0134681Y0165840D01*
X0134800Y0165800D01*
X0134917Y0165755D01*
X0135034Y0165707D01*
X0135148Y0165655D01*
X0135261Y0165600D01*
X0135372Y0165541D01*
X0135481Y0165479D01*
X0135588Y0165413D01*
X0135693Y0165344D01*
X0135796Y0165272D01*
X0135897Y0165197D01*
X0135995Y0165118D01*
X0136090Y0165036D01*
X0136183Y0164952D01*
X0136273Y0164864D01*
X0136361Y0164774D01*
X0136445Y0164681D01*
X0136527Y0164586D01*
X0136606Y0164488D01*
X0136681Y0164387D01*
X0136753Y0164284D01*
X0136822Y0164179D01*
X0136888Y0164072D01*
X0136950Y0163963D01*
X0137009Y0163852D01*
X0137064Y0163739D01*
X0137116Y0163625D01*
X0137164Y0163508D01*
X0137209Y0163391D01*
X0137249Y0163272D01*
X0137286Y0163152D01*
X0137319Y0163031D01*
X0137349Y0162909D01*
X0137374Y0162786D01*
X0137396Y0162662D01*
X0137413Y0162537D01*
X0137427Y0162412D01*
X0137437Y0162287D01*
X0137443Y0162162D01*
X0137445Y0162036D01*
X0137443Y0161910D01*
X0137437Y0161785D01*
X0137427Y0161660D01*
X0137413Y0161535D01*
X0137396Y0161410D01*
X0137374Y0161286D01*
X0137349Y0161163D01*
X0137319Y0161041D01*
X0137286Y0160920D01*
X0137249Y0160800D01*
X0137209Y0160681D01*
X0137164Y0160564D01*
X0137116Y0160447D01*
X0137064Y0160333D01*
X0137009Y0160220D01*
X0136950Y0160109D01*
X0136888Y0160000D01*
X0136822Y0159893D01*
X0136753Y0159788D01*
X0136681Y0159685D01*
X0136606Y0159584D01*
X0136527Y0159486D01*
X0136445Y0159391D01*
X0136361Y0159298D01*
X0136273Y0159208D01*
X0136183Y0159120D01*
X0136090Y0159036D01*
X0135995Y0158954D01*
X0135897Y0158875D01*
X0135796Y0158800D01*
X0135693Y0158728D01*
X0135588Y0158659D01*
X0135481Y0158593D01*
X0135372Y0158531D01*
X0135261Y0158472D01*
X0135148Y0158417D01*
X0135034Y0158365D01*
X0134917Y0158317D01*
X0134800Y0158272D01*
X0134681Y0158232D01*
X0134561Y0158195D01*
X0134440Y0158162D01*
X0134318Y0158132D01*
X0134195Y0158107D01*
X0134071Y0158085D01*
X0133946Y0158068D01*
X0133821Y0158054D01*
X0133696Y0158044D01*
X0133571Y0158038D01*
X0133445Y0158036D01*
X0133445Y0150536D01*
X0213445Y0150536D01*
X0213445Y0173536D01*
X0133445Y0173536D01*
X0246354Y0183465D02*
X0246354Y0144166D01*
X0246748Y0136418D02*
X0246748Y0097119D01*
X0246748Y0092324D02*
X0246748Y0053024D01*
X0249950Y0062824D02*
X0249952Y0062913D01*
X0249958Y0063002D01*
X0249968Y0063091D01*
X0249982Y0063179D01*
X0249999Y0063266D01*
X0250021Y0063352D01*
X0250047Y0063438D01*
X0250076Y0063522D01*
X0250109Y0063605D01*
X0250145Y0063686D01*
X0250186Y0063766D01*
X0250229Y0063843D01*
X0250276Y0063919D01*
X0250327Y0063992D01*
X0250380Y0064063D01*
X0250437Y0064132D01*
X0250497Y0064198D01*
X0250560Y0064262D01*
X0250625Y0064322D01*
X0250693Y0064380D01*
X0250764Y0064434D01*
X0250837Y0064485D01*
X0250912Y0064533D01*
X0250989Y0064578D01*
X0251068Y0064619D01*
X0251149Y0064656D01*
X0251231Y0064690D01*
X0251315Y0064721D01*
X0251400Y0064747D01*
X0251486Y0064770D01*
X0251573Y0064788D01*
X0251661Y0064803D01*
X0251750Y0064814D01*
X0251839Y0064821D01*
X0251928Y0064824D01*
X0252017Y0064823D01*
X0252106Y0064818D01*
X0252194Y0064809D01*
X0252283Y0064796D01*
X0252370Y0064779D01*
X0252457Y0064759D01*
X0252543Y0064734D01*
X0252627Y0064706D01*
X0252710Y0064674D01*
X0252792Y0064638D01*
X0252872Y0064599D01*
X0252950Y0064556D01*
X0253026Y0064510D01*
X0253100Y0064460D01*
X0253172Y0064407D01*
X0253241Y0064351D01*
X0253308Y0064292D01*
X0253372Y0064230D01*
X0253433Y0064166D01*
X0253492Y0064098D01*
X0253547Y0064028D01*
X0253599Y0063956D01*
X0253648Y0063881D01*
X0253693Y0063805D01*
X0253735Y0063726D01*
X0253773Y0063646D01*
X0253808Y0063564D01*
X0253839Y0063480D01*
X0253867Y0063395D01*
X0253890Y0063309D01*
X0253910Y0063222D01*
X0253926Y0063135D01*
X0253938Y0063046D01*
X0253946Y0062958D01*
X0253950Y0062869D01*
X0253950Y0062779D01*
X0253946Y0062690D01*
X0253938Y0062602D01*
X0253926Y0062513D01*
X0253910Y0062426D01*
X0253890Y0062339D01*
X0253867Y0062253D01*
X0253839Y0062168D01*
X0253808Y0062084D01*
X0253773Y0062002D01*
X0253735Y0061922D01*
X0253693Y0061843D01*
X0253648Y0061767D01*
X0253599Y0061692D01*
X0253547Y0061620D01*
X0253492Y0061550D01*
X0253433Y0061482D01*
X0253372Y0061418D01*
X0253308Y0061356D01*
X0253241Y0061297D01*
X0253172Y0061241D01*
X0253100Y0061188D01*
X0253026Y0061138D01*
X0252950Y0061092D01*
X0252872Y0061049D01*
X0252792Y0061010D01*
X0252710Y0060974D01*
X0252627Y0060942D01*
X0252543Y0060914D01*
X0252457Y0060889D01*
X0252370Y0060869D01*
X0252283Y0060852D01*
X0252194Y0060839D01*
X0252106Y0060830D01*
X0252017Y0060825D01*
X0251928Y0060824D01*
X0251839Y0060827D01*
X0251750Y0060834D01*
X0251661Y0060845D01*
X0251573Y0060860D01*
X0251486Y0060878D01*
X0251400Y0060901D01*
X0251315Y0060927D01*
X0251231Y0060958D01*
X0251149Y0060992D01*
X0251068Y0061029D01*
X0250989Y0061070D01*
X0250912Y0061115D01*
X0250837Y0061163D01*
X0250764Y0061214D01*
X0250693Y0061268D01*
X0250625Y0061326D01*
X0250560Y0061386D01*
X0250497Y0061450D01*
X0250437Y0061516D01*
X0250380Y0061585D01*
X0250327Y0061656D01*
X0250276Y0061729D01*
X0250229Y0061805D01*
X0250186Y0061882D01*
X0250145Y0061962D01*
X0250109Y0062043D01*
X0250076Y0062126D01*
X0250047Y0062210D01*
X0250021Y0062296D01*
X0249999Y0062382D01*
X0249982Y0062469D01*
X0249968Y0062557D01*
X0249958Y0062646D01*
X0249952Y0062735D01*
X0249950Y0062824D01*
X0249950Y0082524D02*
X0249952Y0082613D01*
X0249958Y0082702D01*
X0249968Y0082791D01*
X0249982Y0082879D01*
X0249999Y0082966D01*
X0250021Y0083052D01*
X0250047Y0083138D01*
X0250076Y0083222D01*
X0250109Y0083305D01*
X0250145Y0083386D01*
X0250186Y0083466D01*
X0250229Y0083543D01*
X0250276Y0083619D01*
X0250327Y0083692D01*
X0250380Y0083763D01*
X0250437Y0083832D01*
X0250497Y0083898D01*
X0250560Y0083962D01*
X0250625Y0084022D01*
X0250693Y0084080D01*
X0250764Y0084134D01*
X0250837Y0084185D01*
X0250912Y0084233D01*
X0250989Y0084278D01*
X0251068Y0084319D01*
X0251149Y0084356D01*
X0251231Y0084390D01*
X0251315Y0084421D01*
X0251400Y0084447D01*
X0251486Y0084470D01*
X0251573Y0084488D01*
X0251661Y0084503D01*
X0251750Y0084514D01*
X0251839Y0084521D01*
X0251928Y0084524D01*
X0252017Y0084523D01*
X0252106Y0084518D01*
X0252194Y0084509D01*
X0252283Y0084496D01*
X0252370Y0084479D01*
X0252457Y0084459D01*
X0252543Y0084434D01*
X0252627Y0084406D01*
X0252710Y0084374D01*
X0252792Y0084338D01*
X0252872Y0084299D01*
X0252950Y0084256D01*
X0253026Y0084210D01*
X0253100Y0084160D01*
X0253172Y0084107D01*
X0253241Y0084051D01*
X0253308Y0083992D01*
X0253372Y0083930D01*
X0253433Y0083866D01*
X0253492Y0083798D01*
X0253547Y0083728D01*
X0253599Y0083656D01*
X0253648Y0083581D01*
X0253693Y0083505D01*
X0253735Y0083426D01*
X0253773Y0083346D01*
X0253808Y0083264D01*
X0253839Y0083180D01*
X0253867Y0083095D01*
X0253890Y0083009D01*
X0253910Y0082922D01*
X0253926Y0082835D01*
X0253938Y0082746D01*
X0253946Y0082658D01*
X0253950Y0082569D01*
X0253950Y0082479D01*
X0253946Y0082390D01*
X0253938Y0082302D01*
X0253926Y0082213D01*
X0253910Y0082126D01*
X0253890Y0082039D01*
X0253867Y0081953D01*
X0253839Y0081868D01*
X0253808Y0081784D01*
X0253773Y0081702D01*
X0253735Y0081622D01*
X0253693Y0081543D01*
X0253648Y0081467D01*
X0253599Y0081392D01*
X0253547Y0081320D01*
X0253492Y0081250D01*
X0253433Y0081182D01*
X0253372Y0081118D01*
X0253308Y0081056D01*
X0253241Y0080997D01*
X0253172Y0080941D01*
X0253100Y0080888D01*
X0253026Y0080838D01*
X0252950Y0080792D01*
X0252872Y0080749D01*
X0252792Y0080710D01*
X0252710Y0080674D01*
X0252627Y0080642D01*
X0252543Y0080614D01*
X0252457Y0080589D01*
X0252370Y0080569D01*
X0252283Y0080552D01*
X0252194Y0080539D01*
X0252106Y0080530D01*
X0252017Y0080525D01*
X0251928Y0080524D01*
X0251839Y0080527D01*
X0251750Y0080534D01*
X0251661Y0080545D01*
X0251573Y0080560D01*
X0251486Y0080578D01*
X0251400Y0080601D01*
X0251315Y0080627D01*
X0251231Y0080658D01*
X0251149Y0080692D01*
X0251068Y0080729D01*
X0250989Y0080770D01*
X0250912Y0080815D01*
X0250837Y0080863D01*
X0250764Y0080914D01*
X0250693Y0080968D01*
X0250625Y0081026D01*
X0250560Y0081086D01*
X0250497Y0081150D01*
X0250437Y0081216D01*
X0250380Y0081285D01*
X0250327Y0081356D01*
X0250276Y0081429D01*
X0250229Y0081505D01*
X0250186Y0081582D01*
X0250145Y0081662D01*
X0250109Y0081743D01*
X0250076Y0081826D01*
X0250047Y0081910D01*
X0250021Y0081996D01*
X0249999Y0082082D01*
X0249982Y0082169D01*
X0249968Y0082257D01*
X0249958Y0082346D01*
X0249952Y0082435D01*
X0249950Y0082524D01*
X0249950Y0106918D02*
X0249952Y0107007D01*
X0249958Y0107096D01*
X0249968Y0107185D01*
X0249982Y0107273D01*
X0249999Y0107360D01*
X0250021Y0107446D01*
X0250047Y0107532D01*
X0250076Y0107616D01*
X0250109Y0107699D01*
X0250145Y0107780D01*
X0250186Y0107860D01*
X0250229Y0107937D01*
X0250276Y0108013D01*
X0250327Y0108086D01*
X0250380Y0108157D01*
X0250437Y0108226D01*
X0250497Y0108292D01*
X0250560Y0108356D01*
X0250625Y0108416D01*
X0250693Y0108474D01*
X0250764Y0108528D01*
X0250837Y0108579D01*
X0250912Y0108627D01*
X0250989Y0108672D01*
X0251068Y0108713D01*
X0251149Y0108750D01*
X0251231Y0108784D01*
X0251315Y0108815D01*
X0251400Y0108841D01*
X0251486Y0108864D01*
X0251573Y0108882D01*
X0251661Y0108897D01*
X0251750Y0108908D01*
X0251839Y0108915D01*
X0251928Y0108918D01*
X0252017Y0108917D01*
X0252106Y0108912D01*
X0252194Y0108903D01*
X0252283Y0108890D01*
X0252370Y0108873D01*
X0252457Y0108853D01*
X0252543Y0108828D01*
X0252627Y0108800D01*
X0252710Y0108768D01*
X0252792Y0108732D01*
X0252872Y0108693D01*
X0252950Y0108650D01*
X0253026Y0108604D01*
X0253100Y0108554D01*
X0253172Y0108501D01*
X0253241Y0108445D01*
X0253308Y0108386D01*
X0253372Y0108324D01*
X0253433Y0108260D01*
X0253492Y0108192D01*
X0253547Y0108122D01*
X0253599Y0108050D01*
X0253648Y0107975D01*
X0253693Y0107899D01*
X0253735Y0107820D01*
X0253773Y0107740D01*
X0253808Y0107658D01*
X0253839Y0107574D01*
X0253867Y0107489D01*
X0253890Y0107403D01*
X0253910Y0107316D01*
X0253926Y0107229D01*
X0253938Y0107140D01*
X0253946Y0107052D01*
X0253950Y0106963D01*
X0253950Y0106873D01*
X0253946Y0106784D01*
X0253938Y0106696D01*
X0253926Y0106607D01*
X0253910Y0106520D01*
X0253890Y0106433D01*
X0253867Y0106347D01*
X0253839Y0106262D01*
X0253808Y0106178D01*
X0253773Y0106096D01*
X0253735Y0106016D01*
X0253693Y0105937D01*
X0253648Y0105861D01*
X0253599Y0105786D01*
X0253547Y0105714D01*
X0253492Y0105644D01*
X0253433Y0105576D01*
X0253372Y0105512D01*
X0253308Y0105450D01*
X0253241Y0105391D01*
X0253172Y0105335D01*
X0253100Y0105282D01*
X0253026Y0105232D01*
X0252950Y0105186D01*
X0252872Y0105143D01*
X0252792Y0105104D01*
X0252710Y0105068D01*
X0252627Y0105036D01*
X0252543Y0105008D01*
X0252457Y0104983D01*
X0252370Y0104963D01*
X0252283Y0104946D01*
X0252194Y0104933D01*
X0252106Y0104924D01*
X0252017Y0104919D01*
X0251928Y0104918D01*
X0251839Y0104921D01*
X0251750Y0104928D01*
X0251661Y0104939D01*
X0251573Y0104954D01*
X0251486Y0104972D01*
X0251400Y0104995D01*
X0251315Y0105021D01*
X0251231Y0105052D01*
X0251149Y0105086D01*
X0251068Y0105123D01*
X0250989Y0105164D01*
X0250912Y0105209D01*
X0250837Y0105257D01*
X0250764Y0105308D01*
X0250693Y0105362D01*
X0250625Y0105420D01*
X0250560Y0105480D01*
X0250497Y0105544D01*
X0250437Y0105610D01*
X0250380Y0105679D01*
X0250327Y0105750D01*
X0250276Y0105823D01*
X0250229Y0105899D01*
X0250186Y0105976D01*
X0250145Y0106056D01*
X0250109Y0106137D01*
X0250076Y0106220D01*
X0250047Y0106304D01*
X0250021Y0106390D01*
X0249999Y0106476D01*
X0249982Y0106563D01*
X0249968Y0106651D01*
X0249958Y0106740D01*
X0249952Y0106829D01*
X0249950Y0106918D01*
X0249950Y0126618D02*
X0249952Y0126707D01*
X0249958Y0126796D01*
X0249968Y0126885D01*
X0249982Y0126973D01*
X0249999Y0127060D01*
X0250021Y0127146D01*
X0250047Y0127232D01*
X0250076Y0127316D01*
X0250109Y0127399D01*
X0250145Y0127480D01*
X0250186Y0127560D01*
X0250229Y0127637D01*
X0250276Y0127713D01*
X0250327Y0127786D01*
X0250380Y0127857D01*
X0250437Y0127926D01*
X0250497Y0127992D01*
X0250560Y0128056D01*
X0250625Y0128116D01*
X0250693Y0128174D01*
X0250764Y0128228D01*
X0250837Y0128279D01*
X0250912Y0128327D01*
X0250989Y0128372D01*
X0251068Y0128413D01*
X0251149Y0128450D01*
X0251231Y0128484D01*
X0251315Y0128515D01*
X0251400Y0128541D01*
X0251486Y0128564D01*
X0251573Y0128582D01*
X0251661Y0128597D01*
X0251750Y0128608D01*
X0251839Y0128615D01*
X0251928Y0128618D01*
X0252017Y0128617D01*
X0252106Y0128612D01*
X0252194Y0128603D01*
X0252283Y0128590D01*
X0252370Y0128573D01*
X0252457Y0128553D01*
X0252543Y0128528D01*
X0252627Y0128500D01*
X0252710Y0128468D01*
X0252792Y0128432D01*
X0252872Y0128393D01*
X0252950Y0128350D01*
X0253026Y0128304D01*
X0253100Y0128254D01*
X0253172Y0128201D01*
X0253241Y0128145D01*
X0253308Y0128086D01*
X0253372Y0128024D01*
X0253433Y0127960D01*
X0253492Y0127892D01*
X0253547Y0127822D01*
X0253599Y0127750D01*
X0253648Y0127675D01*
X0253693Y0127599D01*
X0253735Y0127520D01*
X0253773Y0127440D01*
X0253808Y0127358D01*
X0253839Y0127274D01*
X0253867Y0127189D01*
X0253890Y0127103D01*
X0253910Y0127016D01*
X0253926Y0126929D01*
X0253938Y0126840D01*
X0253946Y0126752D01*
X0253950Y0126663D01*
X0253950Y0126573D01*
X0253946Y0126484D01*
X0253938Y0126396D01*
X0253926Y0126307D01*
X0253910Y0126220D01*
X0253890Y0126133D01*
X0253867Y0126047D01*
X0253839Y0125962D01*
X0253808Y0125878D01*
X0253773Y0125796D01*
X0253735Y0125716D01*
X0253693Y0125637D01*
X0253648Y0125561D01*
X0253599Y0125486D01*
X0253547Y0125414D01*
X0253492Y0125344D01*
X0253433Y0125276D01*
X0253372Y0125212D01*
X0253308Y0125150D01*
X0253241Y0125091D01*
X0253172Y0125035D01*
X0253100Y0124982D01*
X0253026Y0124932D01*
X0252950Y0124886D01*
X0252872Y0124843D01*
X0252792Y0124804D01*
X0252710Y0124768D01*
X0252627Y0124736D01*
X0252543Y0124708D01*
X0252457Y0124683D01*
X0252370Y0124663D01*
X0252283Y0124646D01*
X0252194Y0124633D01*
X0252106Y0124624D01*
X0252017Y0124619D01*
X0251928Y0124618D01*
X0251839Y0124621D01*
X0251750Y0124628D01*
X0251661Y0124639D01*
X0251573Y0124654D01*
X0251486Y0124672D01*
X0251400Y0124695D01*
X0251315Y0124721D01*
X0251231Y0124752D01*
X0251149Y0124786D01*
X0251068Y0124823D01*
X0250989Y0124864D01*
X0250912Y0124909D01*
X0250837Y0124957D01*
X0250764Y0125008D01*
X0250693Y0125062D01*
X0250625Y0125120D01*
X0250560Y0125180D01*
X0250497Y0125244D01*
X0250437Y0125310D01*
X0250380Y0125379D01*
X0250327Y0125450D01*
X0250276Y0125523D01*
X0250229Y0125599D01*
X0250186Y0125676D01*
X0250145Y0125756D01*
X0250109Y0125837D01*
X0250076Y0125920D01*
X0250047Y0126004D01*
X0250021Y0126090D01*
X0249999Y0126176D01*
X0249982Y0126263D01*
X0249968Y0126351D01*
X0249958Y0126440D01*
X0249952Y0126529D01*
X0249950Y0126618D01*
X0249556Y0153965D02*
X0249558Y0154054D01*
X0249564Y0154143D01*
X0249574Y0154232D01*
X0249588Y0154320D01*
X0249605Y0154407D01*
X0249627Y0154493D01*
X0249653Y0154579D01*
X0249682Y0154663D01*
X0249715Y0154746D01*
X0249751Y0154827D01*
X0249792Y0154907D01*
X0249835Y0154984D01*
X0249882Y0155060D01*
X0249933Y0155133D01*
X0249986Y0155204D01*
X0250043Y0155273D01*
X0250103Y0155339D01*
X0250166Y0155403D01*
X0250231Y0155463D01*
X0250299Y0155521D01*
X0250370Y0155575D01*
X0250443Y0155626D01*
X0250518Y0155674D01*
X0250595Y0155719D01*
X0250674Y0155760D01*
X0250755Y0155797D01*
X0250837Y0155831D01*
X0250921Y0155862D01*
X0251006Y0155888D01*
X0251092Y0155911D01*
X0251179Y0155929D01*
X0251267Y0155944D01*
X0251356Y0155955D01*
X0251445Y0155962D01*
X0251534Y0155965D01*
X0251623Y0155964D01*
X0251712Y0155959D01*
X0251800Y0155950D01*
X0251889Y0155937D01*
X0251976Y0155920D01*
X0252063Y0155900D01*
X0252149Y0155875D01*
X0252233Y0155847D01*
X0252316Y0155815D01*
X0252398Y0155779D01*
X0252478Y0155740D01*
X0252556Y0155697D01*
X0252632Y0155651D01*
X0252706Y0155601D01*
X0252778Y0155548D01*
X0252847Y0155492D01*
X0252914Y0155433D01*
X0252978Y0155371D01*
X0253039Y0155307D01*
X0253098Y0155239D01*
X0253153Y0155169D01*
X0253205Y0155097D01*
X0253254Y0155022D01*
X0253299Y0154946D01*
X0253341Y0154867D01*
X0253379Y0154787D01*
X0253414Y0154705D01*
X0253445Y0154621D01*
X0253473Y0154536D01*
X0253496Y0154450D01*
X0253516Y0154363D01*
X0253532Y0154276D01*
X0253544Y0154187D01*
X0253552Y0154099D01*
X0253556Y0154010D01*
X0253556Y0153920D01*
X0253552Y0153831D01*
X0253544Y0153743D01*
X0253532Y0153654D01*
X0253516Y0153567D01*
X0253496Y0153480D01*
X0253473Y0153394D01*
X0253445Y0153309D01*
X0253414Y0153225D01*
X0253379Y0153143D01*
X0253341Y0153063D01*
X0253299Y0152984D01*
X0253254Y0152908D01*
X0253205Y0152833D01*
X0253153Y0152761D01*
X0253098Y0152691D01*
X0253039Y0152623D01*
X0252978Y0152559D01*
X0252914Y0152497D01*
X0252847Y0152438D01*
X0252778Y0152382D01*
X0252706Y0152329D01*
X0252632Y0152279D01*
X0252556Y0152233D01*
X0252478Y0152190D01*
X0252398Y0152151D01*
X0252316Y0152115D01*
X0252233Y0152083D01*
X0252149Y0152055D01*
X0252063Y0152030D01*
X0251976Y0152010D01*
X0251889Y0151993D01*
X0251800Y0151980D01*
X0251712Y0151971D01*
X0251623Y0151966D01*
X0251534Y0151965D01*
X0251445Y0151968D01*
X0251356Y0151975D01*
X0251267Y0151986D01*
X0251179Y0152001D01*
X0251092Y0152019D01*
X0251006Y0152042D01*
X0250921Y0152068D01*
X0250837Y0152099D01*
X0250755Y0152133D01*
X0250674Y0152170D01*
X0250595Y0152211D01*
X0250518Y0152256D01*
X0250443Y0152304D01*
X0250370Y0152355D01*
X0250299Y0152409D01*
X0250231Y0152467D01*
X0250166Y0152527D01*
X0250103Y0152591D01*
X0250043Y0152657D01*
X0249986Y0152726D01*
X0249933Y0152797D01*
X0249882Y0152870D01*
X0249835Y0152946D01*
X0249792Y0153023D01*
X0249751Y0153103D01*
X0249715Y0153184D01*
X0249682Y0153267D01*
X0249653Y0153351D01*
X0249627Y0153437D01*
X0249605Y0153523D01*
X0249588Y0153610D01*
X0249574Y0153698D01*
X0249564Y0153787D01*
X0249558Y0153876D01*
X0249556Y0153965D01*
X0249556Y0173665D02*
X0249558Y0173754D01*
X0249564Y0173843D01*
X0249574Y0173932D01*
X0249588Y0174020D01*
X0249605Y0174107D01*
X0249627Y0174193D01*
X0249653Y0174279D01*
X0249682Y0174363D01*
X0249715Y0174446D01*
X0249751Y0174527D01*
X0249792Y0174607D01*
X0249835Y0174684D01*
X0249882Y0174760D01*
X0249933Y0174833D01*
X0249986Y0174904D01*
X0250043Y0174973D01*
X0250103Y0175039D01*
X0250166Y0175103D01*
X0250231Y0175163D01*
X0250299Y0175221D01*
X0250370Y0175275D01*
X0250443Y0175326D01*
X0250518Y0175374D01*
X0250595Y0175419D01*
X0250674Y0175460D01*
X0250755Y0175497D01*
X0250837Y0175531D01*
X0250921Y0175562D01*
X0251006Y0175588D01*
X0251092Y0175611D01*
X0251179Y0175629D01*
X0251267Y0175644D01*
X0251356Y0175655D01*
X0251445Y0175662D01*
X0251534Y0175665D01*
X0251623Y0175664D01*
X0251712Y0175659D01*
X0251800Y0175650D01*
X0251889Y0175637D01*
X0251976Y0175620D01*
X0252063Y0175600D01*
X0252149Y0175575D01*
X0252233Y0175547D01*
X0252316Y0175515D01*
X0252398Y0175479D01*
X0252478Y0175440D01*
X0252556Y0175397D01*
X0252632Y0175351D01*
X0252706Y0175301D01*
X0252778Y0175248D01*
X0252847Y0175192D01*
X0252914Y0175133D01*
X0252978Y0175071D01*
X0253039Y0175007D01*
X0253098Y0174939D01*
X0253153Y0174869D01*
X0253205Y0174797D01*
X0253254Y0174722D01*
X0253299Y0174646D01*
X0253341Y0174567D01*
X0253379Y0174487D01*
X0253414Y0174405D01*
X0253445Y0174321D01*
X0253473Y0174236D01*
X0253496Y0174150D01*
X0253516Y0174063D01*
X0253532Y0173976D01*
X0253544Y0173887D01*
X0253552Y0173799D01*
X0253556Y0173710D01*
X0253556Y0173620D01*
X0253552Y0173531D01*
X0253544Y0173443D01*
X0253532Y0173354D01*
X0253516Y0173267D01*
X0253496Y0173180D01*
X0253473Y0173094D01*
X0253445Y0173009D01*
X0253414Y0172925D01*
X0253379Y0172843D01*
X0253341Y0172763D01*
X0253299Y0172684D01*
X0253254Y0172608D01*
X0253205Y0172533D01*
X0253153Y0172461D01*
X0253098Y0172391D01*
X0253039Y0172323D01*
X0252978Y0172259D01*
X0252914Y0172197D01*
X0252847Y0172138D01*
X0252778Y0172082D01*
X0252706Y0172029D01*
X0252632Y0171979D01*
X0252556Y0171933D01*
X0252478Y0171890D01*
X0252398Y0171851D01*
X0252316Y0171815D01*
X0252233Y0171783D01*
X0252149Y0171755D01*
X0252063Y0171730D01*
X0251976Y0171710D01*
X0251889Y0171693D01*
X0251800Y0171680D01*
X0251712Y0171671D01*
X0251623Y0171666D01*
X0251534Y0171665D01*
X0251445Y0171668D01*
X0251356Y0171675D01*
X0251267Y0171686D01*
X0251179Y0171701D01*
X0251092Y0171719D01*
X0251006Y0171742D01*
X0250921Y0171768D01*
X0250837Y0171799D01*
X0250755Y0171833D01*
X0250674Y0171870D01*
X0250595Y0171911D01*
X0250518Y0171956D01*
X0250443Y0172004D01*
X0250370Y0172055D01*
X0250299Y0172109D01*
X0250231Y0172167D01*
X0250166Y0172227D01*
X0250103Y0172291D01*
X0250043Y0172357D01*
X0249986Y0172426D01*
X0249933Y0172497D01*
X0249882Y0172570D01*
X0249835Y0172646D01*
X0249792Y0172723D01*
X0249751Y0172803D01*
X0249715Y0172884D01*
X0249682Y0172967D01*
X0249653Y0173051D01*
X0249627Y0173137D01*
X0249605Y0173223D01*
X0249588Y0173310D01*
X0249574Y0173398D01*
X0249564Y0173487D01*
X0249558Y0173576D01*
X0249556Y0173665D01*
D15*
X0253753Y0168718D02*
X0253002Y0167967D01*
X0253002Y0166466D01*
X0253753Y0165715D01*
X0253753Y0168718D02*
X0254503Y0168718D01*
X0257506Y0165715D01*
X0257506Y0168718D01*
X0275202Y0169583D02*
X0275202Y0167331D01*
X0279706Y0167331D01*
X0278205Y0167331D02*
X0278205Y0169583D01*
X0277454Y0170334D01*
X0275953Y0170334D01*
X0275202Y0169583D01*
X0278205Y0168832D02*
X0279706Y0170334D01*
X0279706Y0165730D02*
X0279706Y0162727D01*
X0275202Y0162727D01*
X0275202Y0165730D01*
X0277454Y0164228D02*
X0277454Y0162727D01*
X0279706Y0161126D02*
X0275202Y0161126D01*
X0275202Y0158123D02*
X0279706Y0158123D01*
X0278205Y0159624D01*
X0279706Y0161126D01*
X0278955Y0156522D02*
X0275953Y0156522D01*
X0275202Y0155771D01*
X0275202Y0154270D01*
X0275953Y0153519D01*
X0278955Y0153519D01*
X0279706Y0154270D01*
X0279706Y0155771D01*
X0278955Y0156522D01*
X0277454Y0151918D02*
X0278205Y0151167D01*
X0278205Y0148915D01*
X0279706Y0148915D02*
X0275202Y0148915D01*
X0275202Y0151167D01*
X0275953Y0151918D01*
X0277454Y0151918D01*
X0257506Y0149218D02*
X0257506Y0146215D01*
X0257506Y0147717D02*
X0253002Y0147717D01*
X0254503Y0146215D01*
X0275596Y0127140D02*
X0276346Y0127890D01*
X0277097Y0127890D01*
X0277848Y0127140D01*
X0278598Y0127890D01*
X0279349Y0127890D01*
X0280100Y0127140D01*
X0280100Y0125638D01*
X0279349Y0124888D01*
X0280100Y0123286D02*
X0278598Y0121785D01*
X0278598Y0122536D02*
X0278598Y0120284D01*
X0280100Y0120284D02*
X0275596Y0120284D01*
X0275596Y0122536D01*
X0276346Y0123286D01*
X0277848Y0123286D01*
X0278598Y0122536D01*
X0276346Y0124888D02*
X0275596Y0125638D01*
X0275596Y0127140D01*
X0277848Y0127140D02*
X0277848Y0126389D01*
X0279349Y0118682D02*
X0276346Y0118682D01*
X0275596Y0117932D01*
X0275596Y0116431D01*
X0276346Y0115680D01*
X0279349Y0115680D01*
X0280100Y0116431D01*
X0280100Y0117932D01*
X0279349Y0118682D01*
X0275596Y0114079D02*
X0275596Y0111076D01*
X0275596Y0112577D02*
X0280100Y0112577D01*
X0279349Y0109475D02*
X0276346Y0109475D01*
X0275596Y0108724D01*
X0275596Y0107223D01*
X0276346Y0106472D01*
X0279349Y0106472D01*
X0280100Y0107223D01*
X0280100Y0108724D01*
X0279349Y0109475D01*
X0280100Y0104871D02*
X0275596Y0104871D01*
X0277097Y0103369D01*
X0275596Y0101868D01*
X0280100Y0101868D01*
X0257900Y0102171D02*
X0257900Y0099168D01*
X0257900Y0100669D02*
X0253396Y0100669D01*
X0254897Y0099168D01*
X0275596Y0083045D02*
X0277848Y0080793D01*
X0277848Y0083796D01*
X0280100Y0083045D02*
X0275596Y0083045D01*
X0276346Y0079192D02*
X0277848Y0079192D01*
X0278598Y0078441D01*
X0278598Y0076189D01*
X0278598Y0077691D02*
X0280100Y0079192D01*
X0280100Y0076189D02*
X0275596Y0076189D01*
X0275596Y0078441D01*
X0276346Y0079192D01*
X0276346Y0074588D02*
X0275596Y0073837D01*
X0275596Y0072336D01*
X0276346Y0071585D01*
X0279349Y0071585D01*
X0280100Y0072336D01*
X0280100Y0073837D01*
X0279349Y0074588D01*
X0276346Y0074588D01*
X0275596Y0069984D02*
X0275596Y0066981D01*
X0275596Y0068483D02*
X0280100Y0068483D01*
X0279349Y0065380D02*
X0276346Y0065380D01*
X0275596Y0064629D01*
X0275596Y0063128D01*
X0276346Y0062378D01*
X0279349Y0062378D01*
X0280100Y0063128D01*
X0280100Y0064629D01*
X0279349Y0065380D01*
X0280100Y0060776D02*
X0275596Y0060776D01*
X0277097Y0059275D01*
X0275596Y0057774D01*
X0280100Y0057774D01*
X0257900Y0058076D02*
X0257900Y0055074D01*
X0257900Y0056575D02*
X0253396Y0056575D01*
X0254897Y0055074D01*
X0254146Y0074574D02*
X0253396Y0075324D01*
X0253396Y0076826D01*
X0254146Y0077576D01*
X0254897Y0077576D01*
X0257900Y0074574D01*
X0257900Y0077576D01*
X0257900Y0118668D02*
X0254897Y0121671D01*
X0254146Y0121671D01*
X0253396Y0120920D01*
X0253396Y0119419D01*
X0254146Y0118668D01*
X0257900Y0118668D02*
X0257900Y0121671D01*
X0165613Y0160537D02*
X0164863Y0159786D01*
X0162611Y0159786D01*
X0162611Y0164290D01*
X0164863Y0164290D01*
X0165613Y0163539D01*
X0165613Y0160537D01*
X0161009Y0160537D02*
X0160259Y0159786D01*
X0158757Y0159786D01*
X0158007Y0160537D01*
X0156405Y0160537D02*
X0156405Y0163539D01*
X0155655Y0164290D01*
X0154153Y0164290D01*
X0153403Y0163539D01*
X0153403Y0162789D01*
X0154153Y0162038D01*
X0156405Y0162038D01*
X0156405Y0160537D02*
X0155655Y0159786D01*
X0154153Y0159786D01*
X0153403Y0160537D01*
X0151801Y0159786D02*
X0148799Y0159786D01*
X0151801Y0162789D01*
X0151801Y0163539D01*
X0151051Y0164290D01*
X0149549Y0164290D01*
X0148799Y0163539D01*
X0144195Y0164290D02*
X0144195Y0159786D01*
X0147197Y0159786D01*
X0158007Y0163539D02*
X0158757Y0164290D01*
X0160259Y0164290D01*
X0161009Y0163539D01*
X0161009Y0162789D01*
X0160259Y0162038D01*
X0161009Y0161288D01*
X0161009Y0160537D01*
X0160259Y0162038D02*
X0159508Y0162038D01*
X0125183Y0133645D02*
X0125183Y0130643D01*
X0125183Y0132144D02*
X0120679Y0132144D01*
X0122181Y0130643D01*
X0102983Y0130945D02*
X0102983Y0127943D01*
X0099981Y0130945D01*
X0099230Y0130945D01*
X0098479Y0130195D01*
X0098479Y0128694D01*
X0099230Y0127943D01*
X0099230Y0126341D02*
X0100731Y0126341D01*
X0101482Y0125591D01*
X0101482Y0123339D01*
X0102983Y0123339D02*
X0098479Y0123339D01*
X0098479Y0125591D01*
X0099230Y0126341D01*
X0101482Y0124840D02*
X0102983Y0126341D01*
X0102232Y0121738D02*
X0099230Y0121738D01*
X0098479Y0120987D01*
X0098479Y0119486D01*
X0099230Y0118735D01*
X0102232Y0118735D01*
X0102983Y0119486D01*
X0102983Y0120987D01*
X0102232Y0121738D01*
X0098479Y0117134D02*
X0098479Y0114131D01*
X0098479Y0115632D02*
X0102983Y0115632D01*
X0102232Y0112530D02*
X0099230Y0112530D01*
X0098479Y0111779D01*
X0098479Y0110278D01*
X0099230Y0109527D01*
X0102232Y0109527D01*
X0102983Y0110278D01*
X0102983Y0111779D01*
X0102232Y0112530D01*
X0102983Y0107926D02*
X0098479Y0107926D01*
X0099981Y0106425D01*
X0098479Y0104923D01*
X0102983Y0104923D01*
X0120679Y0111894D02*
X0121430Y0111143D01*
X0120679Y0111894D02*
X0120679Y0113395D01*
X0121430Y0114145D01*
X0122181Y0114145D01*
X0125183Y0111143D01*
X0125183Y0114145D01*
X0125183Y0088960D02*
X0125183Y0085958D01*
X0125183Y0087459D02*
X0120679Y0087459D01*
X0122181Y0085958D01*
X0102983Y0086260D02*
X0102983Y0083258D01*
X0102983Y0084759D02*
X0098479Y0084759D01*
X0099981Y0083258D01*
X0100731Y0081656D02*
X0101482Y0080906D01*
X0101482Y0078654D01*
X0102983Y0078654D02*
X0098479Y0078654D01*
X0098479Y0080906D01*
X0099230Y0081656D01*
X0100731Y0081656D01*
X0101482Y0080155D02*
X0102983Y0081656D01*
X0102232Y0077053D02*
X0099230Y0077053D01*
X0098479Y0076302D01*
X0098479Y0074801D01*
X0099230Y0074050D01*
X0102232Y0074050D01*
X0102983Y0074801D01*
X0102983Y0076302D01*
X0102232Y0077053D01*
X0098479Y0072449D02*
X0098479Y0069446D01*
X0098479Y0070947D02*
X0102983Y0070947D01*
X0102232Y0067845D02*
X0099230Y0067845D01*
X0098479Y0067094D01*
X0098479Y0065593D01*
X0099230Y0064842D01*
X0102232Y0064842D01*
X0102983Y0065593D01*
X0102983Y0067094D01*
X0102232Y0067845D01*
X0102983Y0063241D02*
X0098479Y0063241D01*
X0099981Y0061739D01*
X0098479Y0060238D01*
X0102983Y0060238D01*
X0120679Y0067209D02*
X0121430Y0066458D01*
X0120679Y0067209D02*
X0120679Y0068710D01*
X0121430Y0069460D01*
X0122181Y0069460D01*
X0125183Y0066458D01*
X0125183Y0069460D01*
D16*
X0126083Y0047536D02*
X0116083Y0047536D01*
X0116083Y0026536D01*
X0126083Y0026536D01*
X0126083Y0047536D01*
X0123583Y0037036D02*
X0118583Y0037036D01*
X0109803Y0037036D02*
X0104803Y0037036D01*
X0102303Y0026536D02*
X0102303Y0047536D01*
X0112303Y0047536D01*
X0112303Y0026536D01*
X0102303Y0026536D01*
X0231240Y0064135D02*
X0231240Y0085135D01*
X0241240Y0085135D01*
X0241240Y0064135D01*
X0231240Y0064135D01*
X0233740Y0074635D02*
X0238740Y0074635D01*
X0241240Y0096221D02*
X0231240Y0096221D01*
X0231240Y0117221D01*
X0241240Y0117221D01*
X0241240Y0096221D01*
X0238740Y0106721D02*
X0233740Y0106721D01*
D17*
X0233543Y0121485D02*
X0238543Y0121485D01*
X0241043Y0123985D01*
X0241043Y0128985D01*
X0238543Y0131485D01*
X0241043Y0133985D01*
X0241043Y0138985D01*
X0238543Y0141485D01*
X0241043Y0143985D01*
X0241043Y0148985D01*
X0238543Y0151485D01*
X0233543Y0151485D01*
X0231043Y0148985D01*
X0231043Y0143985D01*
X0233543Y0141485D01*
X0231043Y0138985D01*
X0231043Y0133985D01*
X0233543Y0131485D01*
X0231043Y0128985D01*
X0231043Y0123985D01*
X0233543Y0121485D01*
X0221279Y0168139D02*
X0221282Y0168381D01*
X0221291Y0168622D01*
X0221306Y0168863D01*
X0221326Y0169104D01*
X0221353Y0169344D01*
X0221386Y0169583D01*
X0221424Y0169822D01*
X0221468Y0170059D01*
X0221518Y0170296D01*
X0221574Y0170531D01*
X0221636Y0170764D01*
X0221703Y0170996D01*
X0221776Y0171227D01*
X0221854Y0171455D01*
X0221939Y0171681D01*
X0222028Y0171906D01*
X0222123Y0172128D01*
X0222224Y0172347D01*
X0222330Y0172565D01*
X0222441Y0172779D01*
X0222558Y0172991D01*
X0222679Y0173199D01*
X0222806Y0173405D01*
X0222938Y0173607D01*
X0223075Y0173807D01*
X0223216Y0174002D01*
X0223362Y0174195D01*
X0223513Y0174383D01*
X0223669Y0174568D01*
X0223829Y0174749D01*
X0223993Y0174926D01*
X0224162Y0175099D01*
X0224335Y0175268D01*
X0224512Y0175432D01*
X0224693Y0175592D01*
X0224878Y0175748D01*
X0225066Y0175899D01*
X0225259Y0176045D01*
X0225454Y0176186D01*
X0225654Y0176323D01*
X0225856Y0176455D01*
X0226062Y0176582D01*
X0226270Y0176703D01*
X0226482Y0176820D01*
X0226696Y0176931D01*
X0226914Y0177037D01*
X0227133Y0177138D01*
X0227355Y0177233D01*
X0227580Y0177322D01*
X0227806Y0177407D01*
X0228034Y0177485D01*
X0228265Y0177558D01*
X0228497Y0177625D01*
X0228730Y0177687D01*
X0228965Y0177743D01*
X0229202Y0177793D01*
X0229439Y0177837D01*
X0229678Y0177875D01*
X0229917Y0177908D01*
X0230157Y0177935D01*
X0230398Y0177955D01*
X0230639Y0177970D01*
X0230880Y0177979D01*
X0231122Y0177982D01*
X0231364Y0177979D01*
X0231605Y0177970D01*
X0231846Y0177955D01*
X0232087Y0177935D01*
X0232327Y0177908D01*
X0232566Y0177875D01*
X0232805Y0177837D01*
X0233042Y0177793D01*
X0233279Y0177743D01*
X0233514Y0177687D01*
X0233747Y0177625D01*
X0233979Y0177558D01*
X0234210Y0177485D01*
X0234438Y0177407D01*
X0234664Y0177322D01*
X0234889Y0177233D01*
X0235111Y0177138D01*
X0235330Y0177037D01*
X0235548Y0176931D01*
X0235762Y0176820D01*
X0235974Y0176703D01*
X0236182Y0176582D01*
X0236388Y0176455D01*
X0236590Y0176323D01*
X0236790Y0176186D01*
X0236985Y0176045D01*
X0237178Y0175899D01*
X0237366Y0175748D01*
X0237551Y0175592D01*
X0237732Y0175432D01*
X0237909Y0175268D01*
X0238082Y0175099D01*
X0238251Y0174926D01*
X0238415Y0174749D01*
X0238575Y0174568D01*
X0238731Y0174383D01*
X0238882Y0174195D01*
X0239028Y0174002D01*
X0239169Y0173807D01*
X0239306Y0173607D01*
X0239438Y0173405D01*
X0239565Y0173199D01*
X0239686Y0172991D01*
X0239803Y0172779D01*
X0239914Y0172565D01*
X0240020Y0172347D01*
X0240121Y0172128D01*
X0240216Y0171906D01*
X0240305Y0171681D01*
X0240390Y0171455D01*
X0240468Y0171227D01*
X0240541Y0170996D01*
X0240608Y0170764D01*
X0240670Y0170531D01*
X0240726Y0170296D01*
X0240776Y0170059D01*
X0240820Y0169822D01*
X0240858Y0169583D01*
X0240891Y0169344D01*
X0240918Y0169104D01*
X0240938Y0168863D01*
X0240953Y0168622D01*
X0240962Y0168381D01*
X0240965Y0168139D01*
X0240962Y0167897D01*
X0240953Y0167656D01*
X0240938Y0167415D01*
X0240918Y0167174D01*
X0240891Y0166934D01*
X0240858Y0166695D01*
X0240820Y0166456D01*
X0240776Y0166219D01*
X0240726Y0165982D01*
X0240670Y0165747D01*
X0240608Y0165514D01*
X0240541Y0165282D01*
X0240468Y0165051D01*
X0240390Y0164823D01*
X0240305Y0164597D01*
X0240216Y0164372D01*
X0240121Y0164150D01*
X0240020Y0163931D01*
X0239914Y0163713D01*
X0239803Y0163499D01*
X0239686Y0163287D01*
X0239565Y0163079D01*
X0239438Y0162873D01*
X0239306Y0162671D01*
X0239169Y0162471D01*
X0239028Y0162276D01*
X0238882Y0162083D01*
X0238731Y0161895D01*
X0238575Y0161710D01*
X0238415Y0161529D01*
X0238251Y0161352D01*
X0238082Y0161179D01*
X0237909Y0161010D01*
X0237732Y0160846D01*
X0237551Y0160686D01*
X0237366Y0160530D01*
X0237178Y0160379D01*
X0236985Y0160233D01*
X0236790Y0160092D01*
X0236590Y0159955D01*
X0236388Y0159823D01*
X0236182Y0159696D01*
X0235974Y0159575D01*
X0235762Y0159458D01*
X0235548Y0159347D01*
X0235330Y0159241D01*
X0235111Y0159140D01*
X0234889Y0159045D01*
X0234664Y0158956D01*
X0234438Y0158871D01*
X0234210Y0158793D01*
X0233979Y0158720D01*
X0233747Y0158653D01*
X0233514Y0158591D01*
X0233279Y0158535D01*
X0233042Y0158485D01*
X0232805Y0158441D01*
X0232566Y0158403D01*
X0232327Y0158370D01*
X0232087Y0158343D01*
X0231846Y0158323D01*
X0231605Y0158308D01*
X0231364Y0158299D01*
X0231122Y0158296D01*
X0230880Y0158299D01*
X0230639Y0158308D01*
X0230398Y0158323D01*
X0230157Y0158343D01*
X0229917Y0158370D01*
X0229678Y0158403D01*
X0229439Y0158441D01*
X0229202Y0158485D01*
X0228965Y0158535D01*
X0228730Y0158591D01*
X0228497Y0158653D01*
X0228265Y0158720D01*
X0228034Y0158793D01*
X0227806Y0158871D01*
X0227580Y0158956D01*
X0227355Y0159045D01*
X0227133Y0159140D01*
X0226914Y0159241D01*
X0226696Y0159347D01*
X0226482Y0159458D01*
X0226270Y0159575D01*
X0226062Y0159696D01*
X0225856Y0159823D01*
X0225654Y0159955D01*
X0225454Y0160092D01*
X0225259Y0160233D01*
X0225066Y0160379D01*
X0224878Y0160530D01*
X0224693Y0160686D01*
X0224512Y0160846D01*
X0224335Y0161010D01*
X0224162Y0161179D01*
X0223993Y0161352D01*
X0223829Y0161529D01*
X0223669Y0161710D01*
X0223513Y0161895D01*
X0223362Y0162083D01*
X0223216Y0162276D01*
X0223075Y0162471D01*
X0222938Y0162671D01*
X0222806Y0162873D01*
X0222679Y0163079D01*
X0222558Y0163287D01*
X0222441Y0163499D01*
X0222330Y0163713D01*
X0222224Y0163931D01*
X0222123Y0164150D01*
X0222028Y0164372D01*
X0221939Y0164597D01*
X0221854Y0164823D01*
X0221776Y0165051D01*
X0221703Y0165282D01*
X0221636Y0165514D01*
X0221574Y0165747D01*
X0221518Y0165982D01*
X0221468Y0166219D01*
X0221424Y0166456D01*
X0221386Y0166695D01*
X0221353Y0166934D01*
X0221326Y0167174D01*
X0221306Y0167415D01*
X0221291Y0167656D01*
X0221282Y0167897D01*
X0221279Y0168139D01*
X0236622Y0171139D02*
X0236622Y0175139D01*
D18*
X0237421Y0171216D02*
X0237671Y0171216D01*
X0237921Y0170966D01*
X0238172Y0171216D01*
X0238422Y0171216D01*
X0238672Y0170966D01*
X0238672Y0170466D01*
X0238422Y0170215D01*
X0238422Y0169743D02*
X0238672Y0169493D01*
X0238672Y0168992D01*
X0238422Y0168742D01*
X0237421Y0168742D01*
X0237171Y0168992D01*
X0237171Y0169493D01*
X0237421Y0169743D01*
X0237421Y0170215D02*
X0237171Y0170466D01*
X0237171Y0170966D01*
X0237421Y0171216D01*
X0237921Y0170966D02*
X0237921Y0170716D01*
D19*
X0121358Y0156088D02*
X0119662Y0157784D01*
X0117188Y0155767D01*
X0116192Y0156280D01*
X0115124Y0156622D01*
X0114802Y0159798D01*
X0112403Y0159798D01*
X0112080Y0156622D01*
X0111013Y0156280D01*
X0110017Y0155767D01*
X0107543Y0157784D01*
X0105846Y0156088D01*
X0107864Y0153614D01*
X0107351Y0152618D01*
X0107009Y0151550D01*
X0103833Y0151228D01*
X0103833Y0148829D01*
X0107009Y0148506D01*
X0107351Y0147439D01*
X0107864Y0146443D01*
X0105846Y0143969D01*
X0107543Y0142272D01*
X0110017Y0144290D01*
X0111013Y0143777D01*
X0112080Y0143435D01*
X0112403Y0140259D01*
X0114802Y0140259D01*
X0115124Y0143435D01*
X0116192Y0143777D01*
X0117188Y0144290D01*
X0119662Y0142272D01*
X0121358Y0143969D01*
X0119341Y0146443D01*
X0119854Y0147439D01*
X0116444Y0148851D01*
X0116160Y0148319D01*
X0115777Y0147853D01*
X0115311Y0147471D01*
X0114779Y0147186D01*
X0114202Y0147011D01*
X0113602Y0146952D01*
X0112974Y0147017D01*
X0112372Y0147209D01*
X0111822Y0147520D01*
X0111348Y0147936D01*
X0110968Y0148441D01*
X0110699Y0149012D01*
X0110553Y0149627D01*
X0110535Y0150258D01*
X0110647Y0150880D01*
X0110883Y0151466D01*
X0111234Y0151991D01*
X0111684Y0152433D01*
X0112216Y0152774D01*
X0112806Y0152999D01*
X0113430Y0153099D01*
X0114061Y0153070D01*
X0114672Y0152912D01*
X0115239Y0152633D01*
X0115736Y0152244D01*
X0116144Y0151761D01*
X0116444Y0151206D01*
X0119854Y0152618D01*
X0119341Y0153614D01*
X0121358Y0156088D01*
X0121235Y0155938D02*
X0117397Y0155938D01*
X0116857Y0155938D02*
X0110348Y0155938D01*
X0109807Y0155938D02*
X0105969Y0155938D01*
X0106285Y0156527D02*
X0109085Y0156527D01*
X0108362Y0157116D02*
X0106874Y0157116D01*
X0107463Y0157705D02*
X0107640Y0157705D01*
X0106450Y0155348D02*
X0120755Y0155348D01*
X0120275Y0154759D02*
X0106930Y0154759D01*
X0107410Y0154170D02*
X0119794Y0154170D01*
X0119358Y0153581D02*
X0107847Y0153581D01*
X0107543Y0152992D02*
X0112787Y0152992D01*
X0111654Y0152403D02*
X0107282Y0152403D01*
X0107093Y0151814D02*
X0111116Y0151814D01*
X0110786Y0151225D02*
X0103833Y0151225D01*
X0103833Y0150636D02*
X0110603Y0150636D01*
X0110541Y0150047D02*
X0103833Y0150047D01*
X0103833Y0149458D02*
X0110593Y0149458D01*
X0110767Y0148869D02*
X0103833Y0148869D01*
X0107082Y0148280D02*
X0111089Y0148280D01*
X0111627Y0147691D02*
X0107270Y0147691D01*
X0107524Y0147102D02*
X0112709Y0147102D01*
X0114500Y0147102D02*
X0119681Y0147102D01*
X0119377Y0146513D02*
X0107828Y0146513D01*
X0107441Y0145923D02*
X0119764Y0145923D01*
X0120245Y0145334D02*
X0106960Y0145334D01*
X0106480Y0144745D02*
X0120725Y0144745D01*
X0121205Y0144156D02*
X0117352Y0144156D01*
X0116929Y0144156D02*
X0110276Y0144156D01*
X0109853Y0144156D02*
X0106000Y0144156D01*
X0106248Y0143567D02*
X0109130Y0143567D01*
X0108408Y0142978D02*
X0106837Y0142978D01*
X0107426Y0142389D02*
X0107686Y0142389D01*
X0111667Y0143567D02*
X0115537Y0143567D01*
X0115078Y0142978D02*
X0112127Y0142978D01*
X0112187Y0142389D02*
X0115018Y0142389D01*
X0114958Y0141800D02*
X0112246Y0141800D01*
X0112306Y0141211D02*
X0114899Y0141211D01*
X0114839Y0140622D02*
X0112366Y0140622D01*
X0118074Y0143567D02*
X0120957Y0143567D01*
X0120368Y0142978D02*
X0118797Y0142978D01*
X0119519Y0142389D02*
X0119779Y0142389D01*
X0119246Y0147691D02*
X0115579Y0147691D01*
X0116127Y0148280D02*
X0117824Y0148280D01*
X0116491Y0151225D02*
X0116434Y0151225D01*
X0116099Y0151814D02*
X0117913Y0151814D01*
X0119335Y0152403D02*
X0115532Y0152403D01*
X0114362Y0152992D02*
X0119662Y0152992D01*
X0120920Y0156527D02*
X0118120Y0156527D01*
X0118842Y0157116D02*
X0120331Y0157116D01*
X0119742Y0157705D02*
X0119565Y0157705D01*
X0115421Y0156527D02*
X0111783Y0156527D01*
X0112130Y0157116D02*
X0115074Y0157116D01*
X0115014Y0157705D02*
X0112190Y0157705D01*
X0112250Y0158294D02*
X0114955Y0158294D01*
X0114895Y0158883D02*
X0112310Y0158883D01*
X0112370Y0159472D02*
X0114835Y0159472D01*
M02*
