%
M48
M72
T01C0.02756
T02C0.03200
T03C0.04000
T04C0.04700
%
T01
X231122Y173139
X231122Y163139
T02
X138445Y177036
X148445Y177036
X158445Y177036
X168445Y177036
X178445Y177036
X188445Y177036
X198445Y177036
X208445Y177036
X208445Y147036
X198445Y147036
X188445Y147036
X178445Y147036
X168445Y147036
X158445Y147036
X148445Y147036
X138445Y147036
T03
X102524Y201603
X112524Y201603
X122524Y201603
X132524Y201603
X142524Y201603
X152524Y201603
X162524Y201603
X172524Y201603
X182524Y201603
X192524Y201603
X207524Y201603
X217524Y201603
X227524Y201603
X237524Y201603
X247524Y201603
X257524Y201603
X267524Y201603
X277524Y201603
X236043Y146485
X236043Y136485
X236043Y126485
X236240Y112221
X236240Y101221
X216555Y105619
X216555Y95619
X216555Y85619
X216555Y75619
X236240Y80135
X236240Y69135
X245886Y43335
X255886Y43335
X265886Y43335
X275886Y43335
X275886Y32312
X265886Y32312
X255886Y32312
X245886Y32312
X247524Y11603
X237524Y11603
X227524Y11603
X207524Y11603
X197524Y11603
X187524Y11603
X177524Y11603
X167524Y11603
X157524Y11603
X147524Y11603
X137524Y11603
X121083Y31536
X121083Y42536
X107303Y42536
X107303Y31536
X146476Y75619
X146476Y85619
X146476Y95619
X146476Y105619
X257524Y11603
X267524Y11603
X277524Y11603
T04
X112933Y126997
X112933Y107312
X112933Y82312
X112933Y62627
X265650Y62824
X265650Y82509
X265650Y106918
X265650Y126603
X265256Y153965
X265256Y173650
M30
